0
SECTION
2
ENTITIES
0
SPLINE
70
8
71
3
73
2666
40
0.0
40
0.0
40
0.0
40
0.0
40
0.0
40
0.0
40
0.0
40
0.0
40
0.0
40
0.0
40
0.0
40
0.0
40
0.0
40
0.0
40
0.0
40
0.0
40
0.0
40
0.0
40
0.0
40
0.0
40
0.0
40
0.0
40
0.0
40
0.0
40
0.0
40
0.0
40
0.0
40
0.0
40
0.0
40
0.0
40
0.0
40
0.0
40
0.0
40
0.0
40
0.0
40
0.0
40
0.0
40
0.0
40
0.0
40
0.0
40
0.0
40
0.0
40
0.0
40
0.0
40
0.0
40
0.0
40
0.0
40
0.0
40
0.0
40
0.0
40
0.0
40
0.0
40
0.0
40
0.0
40
0.0
40
0.0
40
0.0
40
0.0
40
0.0
40
0.0
40
0.0
40
0.0
40
0.0
40
0.0
40
0.0
40
0.0
40
0.0
40
0.0
40
0.0
40
0.0
40
0.0
40
0.0
40
0.0
40
0.0
40
0.0
40
0.0
40
0.0
40
0.0
40
0.0
40
0.0
40
0.0
40
0.0
40
0.0
40
0.0
40
0.0
40
0.0
40
0.0
40
0.0
40
0.0
40
0.0
40
0.0
40
0.0
40
0.0
40
0.0
40
0.0
40
0.0
40
0.0
40
0.0
40
0.0
40
0.0
40
0.0
40
0.0
40
0.0
40
0.0
40
0.0
40
0.0
40
0.0
40
0.0
40
0.0
40
0.0
40
0.0
40
0.0
40
0.0
40
0.0
40
0.0
40
0.0
40
0.0
40
0.0
40
0.0
40
0.0
40
0.0
40
0.0
40
0.0
40
0.0
40
0.0
40
0.0
40
0.0
40
0.0
40
0.0
40
0.0
40
0.0
40
0.0
40
0.0
40
0.0
40
0.0
40
0.0
40
0.0
40
0.0
40
0.0
40
0.0
40
0.0
40
0.0
40
0.0
40
0.0
40
0.0
40
0.0
40
0.0
40
0.0
40
0.0
40
0.0
40
0.0
40
0.0
40
0.0
40
0.0
40
0.0
40
0.0
40
0.0
40
0.0
40
0.0
40
0.0
40
0.0
40
0.0
40
0.0
40
0.0
40
0.0
40
0.0
40
0.0
40
0.0
40
0.0
40
0.0
40
0.0
40
0.0
40
0.0
40
0.0
40
0.0
40
0.0
40
0.0
40
0.0
40
0.0
40
0.0
40
0.0
40
0.0
40
0.0
40
0.0
40
0.0
40
0.0
40
0.0
40
0.0
40
0.0
40
0.0
40
0.0
40
0.0
40
0.0
40
0.0
40
0.0
40
0.0
40
0.0
40
0.0
40
0.0
40
0.0
40
0.0
40
0.0
40
0.0
40
0.0
40
0.0
40
0.0
40
0.0
40
0.0
40
0.0
40
0.0
40
0.0
40
0.0
40
0.0
40
0.0
40
0.0
40
0.0
40
0.0
40
0.0
40
0.0
40
0.0
40
0.0
40
0.0
40
0.0
40
0.0
40
0.0
40
0.0
40
0.0
40
0.0
40
0.0
40
0.0
40
0.0
40
0.0
40
0.0
40
0.0
40
0.0
40
0.0
40
0.0
40
0.0
40
0.0
40
0.0
40
0.0
40
0.0
40
0.0
40
0.0
40
0.0
40
0.0
40
0.0
40
0.0
40
0.0
40
0.0
40
0.0
40
0.0
40
0.0
40
0.0
40
0.0
40
0.0
40
0.0
40
0.0
40
0.0
40
0.0
40
0.0
40
0.0
40
0.0
40
0.0
40
0.0
40
0.0
40
0.0
40
0.0
40
0.0
40
0.0
40
0.0
40
0.0
40
0.0
40
0.0
40
0.0
40
0.0
40
0.0
40
0.0
40
0.0
40
0.0
40
0.0
40
0.0
40
0.0
40
0.0
40
0.0
40
0.0
40
0.0
40
0.0
40
0.0
40
0.0
40
0.0
40
0.0
40
0.0
40
0.0
40
0.0
40
0.0
40
0.0
40
0.0
40
0.0
40
0.0
40
0.0
40
0.0
40
0.0
40
0.0
40
0.0
40
0.0
40
0.0
40
0.0
40
0.0
40
0.0
40
0.0
40
0.0
40
0.0
40
0.0
40
0.0
40
0.0
40
0.0
40
0.0
40
0.0
40
0.0
40
0.0
40
0.0
40
0.0
40
0.0
40
0.0
40
0.0
40
0.0
40
0.0
40
0.0
40
0.0
40
0.0
40
0.0
40
0.0
40
0.0
40
0.0
40
0.0
40
0.0
40
0.0
40
0.0
40
0.0
40
0.0
40
0.0
40
0.0
40
0.0
40
0.0
40
0.0
40
0.0
40
0.0
40
0.0
40
0.0
40
0.0
40
0.0
40
0.0
40
0.0
40
0.0
40
0.0
40
0.0
40
0.0
40
0.0
40
0.0
40
0.0
40
0.0
40
0.0
40
0.0
40
0.0
40
0.0
40
0.0
40
0.0
40
0.0
40
0.0
40
0.0
40
0.0
40
0.0
40
0.0
40
0.0
40
0.0
40
0.0
40
0.0
40
0.0
40
0.0
40
0.0
40
0.0
40
0.0
40
0.0
40
0.0
40
0.0
40
0.0
40
0.0
40
0.0
40
0.0
40
0.0
40
0.0
40
0.0
40
0.0
40
0.0
40
0.0
40
0.0
40
0.0
40
0.0
40
0.0
40
0.0
40
0.0
40
0.0
40
0.0
40
0.0
40
0.0
40
0.0
40
0.0
40
0.0
40
0.0
40
0.0
40
0.0
40
0.0
40
0.0
40
0.0
40
0.0
40
0.0
40
0.0
40
0.0
40
0.0
40
0.0
40
0.0
40
0.0
40
0.0
40
0.0
40
0.0
40
0.0
40
0.0
40
0.0
40
0.0
40
0.0
40
0.0
40
0.0
40
0.0
40
0.0
40
0.0
40
0.0
40
0.0
40
0.0
40
0.0
40
0.0
40
0.0
40
0.0
40
0.0
40
0.0
40
0.0
40
0.0
40
0.0
40
0.0
40
0.0
40
0.0
40
0.0
40
0.0
40
0.0
40
0.0
40
0.0
40
0.0
40
0.0
40
0.0
40
0.0
40
0.0
40
0.0
40
0.0
40
0.0
40
0.0
40
0.0
40
0.0
40
0.0
40
0.0
40
0.0
40
0.0
40
0.0
40
0.0
40
0.0
40
0.0
40
0.0
40
0.0
40
0.0
40
0.0
40
0.0
40
0.0
40
0.0
40
0.0
40
0.0
40
0.0
40
0.0
40
0.0
40
0.0
40
0.0
40
0.0
40
0.0
40
0.0
40
0.0
40
0.0
40
0.0
40
0.0
40
0.0
40
0.0
40
0.0
40
0.0
40
0.0
40
0.0
40
0.0
40
0.0
40
0.0
40
0.0
40
0.0
40
0.0
40
0.0
40
0.0
40
0.0
40
0.0
40
0.0
40
0.0
40
0.0
40
0.0
40
0.0
40
0.0
40
0.0
40
0.0
40
0.0
40
0.0
40
0.0
40
0.0
40
0.0
40
0.0
40
0.0
40
0.0
40
0.0
40
0.0
40
0.0
40
0.0
40
0.0
40
0.0
40
0.0
40
0.0
40
0.0
40
0.0
40
0.0
40
0.0
40
0.0
40
0.0
40
0.0
40
0.0
40
0.0
40
0.0
40
0.0
40
0.0
40
0.0
40
0.0
40
0.0
40
0.0
40
0.0
40
0.0
40
0.0
40
0.0
40
0.0
40
0.0
40
0.0
40
0.0
40
0.0
40
0.0
40
0.0
40
0.0
40
0.0
40
0.0
40
0.0
40
0.0
40
0.0
40
0.0
40
0.0
40
0.0
40
0.0
40
0.0
40
0.0
40
0.0
40
0.0
40
0.0
40
0.0
40
0.0
40
0.0
40
0.0
40
0.0
40
0.0
40
0.0
40
0.0
40
0.0
40
0.0
40
0.0
40
0.0
40
0.0
40
0.0
40
0.0
40
0.0
40
0.0
40
0.0
40
0.0
40
0.0
40
0.0
40
0.0
40
0.0
40
0.0
40
0.0
40
0.0
40
0.0
40
0.0
40
0.0
40
0.0
40
0.0
40
0.0
40
0.0
40
0.0
40
0.0
40
0.0
40
0.0
40
0.0
40
0.0
40
0.0
40
0.0
40
0.0
40
0.0
40
0.0
40
0.0
40
0.0
40
0.0
40
0.0
40
0.0
40
0.0
40
0.0
40
0.0
40
0.0
40
0.0
40
0.0
40
0.0
40
0.0
40
0.0
40
0.0
40
0.0
40
0.0
40
0.0
40
0.0
40
0.0
40
0.0
40
0.0
40
0.0
40
0.0
40
0.0
40
0.0
40
0.0
40
0.0
40
0.0
40
0.0
40
0.0
40
0.0
40
0.0
40
0.0
40
0.0
40
0.0
40
0.0
40
0.0
40
0.0
40
0.0
40
0.0
40
0.0
40
0.0
40
0.0
40
0.0
40
0.0
40
0.0
40
0.0
40
0.0
40
0.0
40
0.0
40
0.0
40
0.0
40
0.0
40
0.0
40
0.0
40
0.0
40
0.0
40
0.0
40
0.0
40
0.0
40
0.0
40
0.0
40
0.0
40
0.0
40
0.0
40
0.0
40
0.0
40
0.0
40
0.0
40
0.0
40
0.0
40
0.0
40
0.0
40
0.0
40
0.0
40
0.0
40
0.0
40
0.0
40
0.0
40
0.0
40
0.0
40
0.0
40
0.0
40
0.0
40
0.0
40
0.0
40
0.0
40
0.0
40
0.0
40
0.0
40
0.0
40
0.0
40
0.0
40
0.0
40
0.0
40
0.0
40
0.0
40
0.0
40
0.0
40
0.0
40
0.0
40
0.0
40
0.0
40
0.0
40
0.0
40
0.0
40
0.0
40
0.0
40
0.0
40
0.0
40
0.0
40
0.0
40
0.0
40
0.0
40
0.0
40
0.0
40
0.0
40
0.0
40
0.0
40
0.0
40
0.0
40
0.0
40
0.0
40
0.0
40
0.0
40
0.0
40
0.0
40
0.0
40
0.0
40
0.0
40
0.0
40
0.0
40
0.0
40
0.0
40
0.0
40
0.0
40
0.0
40
0.0
40
0.0
40
0.0
40
0.0
40
0.0
40
0.0
40
0.0
40
0.0
40
0.0
40
0.0
40
0.0
40
0.0
40
0.0
40
0.0
40
0.0
40
0.0
40
0.0
40
0.0
40
0.0
40
0.0
40
0.0
40
0.0
40
0.0
40
0.0
40
0.0
40
0.0
40
0.0
40
0.0
40
0.0
40
0.0
40
0.0
40
0.0
40
0.0
40
0.0
40
0.0
40
0.0
40
0.0
40
0.0
40
0.0
40
0.0
40
0.0
40
0.0
40
0.0
40
0.0
40
0.0
40
0.0
40
0.0
40
0.0
40
0.0
40
0.0
40
0.0
40
0.0
40
0.0
40
0.0
40
0.0
40
0.0
40
0.0
40
0.0
40
0.0
40
0.0
40
0.0
40
0.0
40
0.0
40
0.0
40
0.0
40
0.0
40
0.0
40
0.0
40
0.0
40
0.0
40
0.0
40
0.0
40
0.0
40
0.0
40
0.0
40
0.0
40
0.0
40
0.0
40
0.0
40
0.0
40
0.0
40
0.0
40
0.0
40
0.0
40
0.0
40
0.0
40
0.0
40
0.0
40
0.0
40
0.0
40
0.0
40
0.0
40
0.0
40
0.0
40
0.0
40
0.0
40
0.0
40
0.0
40
0.0
40
0.0
40
0.0
40
0.0
40
0.0
40
0.0
40
0.0
40
0.0
40
0.0
40
0.0
40
0.0
40
0.0
40
0.0
40
0.0
40
0.0
40
0.0
40
0.0
40
0.0
40
0.0
40
0.0
40
0.0
40
0.0
40
0.0
40
0.0
40
0.0
40
0.0
40
0.0
40
0.0
40
0.0
40
0.0
40
0.0
40
0.0
40
0.0
40
0.0
40
0.0
40
0.0
40
0.0
40
0.0
40
0.0
40
0.0
40
0.0
40
0.0
40
0.0
40
0.0
40
0.0
40
0.0
40
0.0
40
0.0
40
0.0
40
0.0
40
0.0
40
0.0
40
0.0
40
0.0
40
0.0
40
0.0
40
0.0
40
0.0
40
0.0
40
0.0
40
0.0
40
0.0
40
0.0
40
0.0
40
0.0
40
0.0
40
0.0
40
0.0
40
0.0
40
0.0
40
0.0
40
0.0
40
0.0
40
0.0
40
0.0
40
0.0
40
0.0
40
0.0
40
0.0
40
0.0
40
0.0
40
0.0
40
0.0
40
0.0
40
0.0
40
0.0
40
0.0
40
0.0
40
0.0
40
0.0
40
0.0
40
0.0
40
0.0
40
0.0
40
0.0
40
0.0
40
0.0
40
0.0
40
0.0
40
0.0
40
0.0
40
0.0
40
0.0
40
0.0
40
0.0
40
0.0
40
0.0
40
0.0
40
0.0
40
0.0
40
0.0
40
0.0
40
0.0
40
0.0
40
0.0
40
0.0
40
0.0
40
0.0
40
0.0
40
0.0
40
0.0
40
0.0
40
0.0
40
0.0
40
0.0
40
0.0
40
0.0
40
0.0
40
0.0
40
0.0
40
0.0
40
0.0
40
0.0
40
0.0
40
0.0
40
0.0
40
0.0
40
0.0
40
0.0
40
0.0
40
0.0
40
0.0
40
0.0
40
0.0
40
0.0
40
0.0
40
0.0
40
0.0
40
0.0
40
0.0
40
0.0
40
0.0
40
0.0
40
0.0
40
0.0
40
0.0
40
0.0
40
0.0
40
0.0
40
0.0
40
0.0
40
0.0
40
0.0
40
0.0
40
0.0
40
0.0
40
0.0
40
0.0
40
0.0
40
0.0
40
0.0
40
0.0
40
0.0
40
0.0
40
0.0
40
0.0
40
0.0
40
0.0
40
0.0
40
0.0
40
0.0
40
0.0
40
0.0
40
0.0
40
0.0
40
0.0
40
0.0
40
0.0
40
0.0
40
0.0
40
0.0
40
0.0
40
0.0
40
0.0
40
0.0
40
0.0
40
0.0
40
0.0
40
0.0
40
0.0
40
0.0
40
0.0
40
0.0
40
0.0
40
0.0
40
0.0
40
0.0
40
0.0
40
0.0
40
0.0
40
0.0
40
0.0
40
0.0
40
0.0
40
0.0
40
0.0
40
0.0
40
0.0
40
0.0
40
0.0
40
0.0
40
0.0
40
0.0
40
0.0
40
0.0
40
0.0
40
0.0
40
0.0
40
0.0
40
0.0
40
0.0
40
0.0
40
0.0
40
0.0
40
0.0
40
0.0
40
0.0
40
0.0
40
0.0
40
0.0
40
0.0
40
0.0
40
0.0
40
0.0
40
0.0
40
0.0
40
0.0
40
0.0
40
0.0
40
0.0
40
0.0
40
0.0
40
0.0
40
0.0
40
0.0
40
0.0
40
0.0
40
0.0
40
0.0
40
0.0
40
0.0
40
0.0
40
0.0
40
0.0
40
0.0
40
0.0
40
0.0
40
0.0
40
0.0
40
0.0
40
0.0
40
0.0
40
0.0
40
0.0
40
0.0
40
0.0
40
0.0
40
0.0
40
0.0
40
0.0
40
0.0
40
0.0
40
0.0
40
0.0
40
0.0
40
0.0
40
0.0
40
0.0
40
0.0
40
0.0
40
0.0
40
0.0
40
0.0
40
0.0
40
0.0
40
0.0
40
0.0
40
0.0
40
0.0
40
0.0
40
0.0
40
0.0
40
0.0
40
0.0
40
0.0
40
0.0
40
0.0
40
0.0
40
0.0
40
0.0
40
0.0
40
0.0
40
0.0
40
0.0
40
0.0
40
0.0
40
0.0
40
0.0
40
0.0
40
0.0
40
0.0
40
0.0
40
0.0
40
0.0
40
0.0
40
0.0
40
0.0
40
0.0
40
0.0
40
0.0
40
0.0
40
0.0
40
0.0
40
0.0
40
0.0
40
0.0
40
0.0
40
0.0
40
0.0
40
0.0
40
0.0
40
0.0
40
0.0
40
0.0
40
0.0
40
0.0
40
0.0
40
0.0
40
0.0
40
0.0
40
0.0
40
0.0
40
0.0
40
0.0
40
0.0
40
0.0
40
0.0
40
0.0
40
0.0
40
0.0
40
0.0
40
0.0
40
0.0
40
0.0
40
0.0
40
0.0
40
0.0
40
0.0
40
0.0
40
0.0
40
0.0
40
0.0
40
0.0
40
0.0
40
0.0
40
0.0
40
0.0
40
0.0
40
0.0
40
0.0
40
0.0
40
0.0
40
0.0
40
0.0
40
0.0
40
0.0
40
0.0
40
0.0
40
0.0
40
0.0
40
0.0
40
0.0
40
0.0
40
0.0
40
0.0
40
0.0
40
0.0
40
0.0
40
0.0
40
0.0
40
0.0
40
0.0
40
0.0
40
0.0
40
0.0
40
0.0
40
0.0
40
0.0
40
0.0
40
0.0
40
0.0
40
0.0
40
0.0
40
0.0
40
0.0
40
0.0
40
0.0
40
0.0
40
0.0
40
0.0
40
0.0
40
0.0
40
0.0
40
0.0
40
0.0
40
0.0
40
0.0
40
0.0
40
0.0
40
0.0
40
0.0
40
0.0
40
0.0
40
0.0
40
0.0
40
0.0
40
0.0
40
0.0
40
0.0
40
0.0
40
0.0
40
0.0
40
0.0
40
0.0
40
0.0
40
0.0
40
0.0
40
0.0
40
0.0
40
0.0
40
0.0
40
0.0
40
0.0
40
0.0
40
0.0
40
0.0
40
0.0
40
0.0
40
0.0
40
0.0
40
0.0
40
0.0
40
0.0
40
0.0
40
0.0
40
0.0
40
0.0
40
0.0
40
0.0
40
0.0
40
0.0
40
0.0
40
0.0
40
0.0
40
0.0
40
0.0
40
0.0
40
0.0
40
0.0
40
0.0
40
0.0
40
0.0
40
0.0
40
0.0
40
0.0
40
0.0
40
0.0
40
0.0
40
0.0
40
0.0
40
0.0
40
0.0
40
0.0
40
0.0
40
0.0
40
0.0
40
0.0
40
0.0
40
0.0
40
0.0
40
0.0
40
0.0
40
0.0
40
0.0
40
0.0
40
0.0
40
0.0
40
0.0
40
0.0
40
0.0
40
0.0
40
0.0
40
0.0
40
0.0
40
0.0
40
0.0
40
0.0
40
0.0
40
0.0
40
0.0
40
0.0
40
0.0
40
0.0
40
0.0
40
0.0
40
0.0
40
0.0
40
0.0
40
0.0
40
0.0
40
0.0
40
0.0
40
0.0
40
0.0
40
0.0
40
0.0
40
0.0
40
0.0
40
0.0
40
0.0
40
0.0
40
0.0
40
0.0
40
0.0
40
0.0
40
0.0
40
0.0
40
0.0
40
0.0
40
0.0
40
0.0
40
0.0
40
0.0
40
0.0
40
0.0
40
0.0
40
0.0
40
0.0
40
0.0
40
0.0
40
0.0
40
0.0
40
0.0
40
0.0
40
0.0
40
0.0
40
0.0
40
0.0
40
0.0
40
0.0
40
0.0
40
0.0
40
0.0
40
0.0
40
0.0
40
0.0
40
0.0
40
0.0
40
0.0
40
0.0
40
0.0
40
0.0
40
0.0
40
0.0
40
0.0
40
0.0
40
0.0
40
0.0
40
0.0
40
0.0
40
0.0
40
0.0
40
0.0
40
0.0
40
0.0
40
0.0
40
0.0
40
0.0
40
0.0
40
0.0
40
0.0
40
0.0
40
0.0
40
0.0
40
0.0
40
0.0
40
0.0
40
0.0
40
0.0
40
0.0
40
0.0
40
0.0
40
0.0
40
0.0
40
0.0
40
0.0
40
0.0
40
0.0
40
0.0
40
0.0
40
0.0
40
0.0
40
0.0
40
0.0
40
0.0
40
0.0
40
0.0
40
0.0
40
0.0
40
0.0
40
0.0
40
0.0
40
0.0
40
0.0
40
0.0
40
0.0
40
0.0
40
0.0
40
0.0
40
0.0
40
0.0
40
0.0
40
0.0
40
0.0
40
0.0
40
0.0
40
0.0
40
0.0
40
0.0
40
0.0
40
0.0
40
0.0
40
0.0
40
0.0
40
0.0
40
0.0
40
0.0
40
0.0
40
0.0
40
0.0
40
0.0
40
0.0
40
0.0
40
0.0
40
0.0
40
0.0
40
0.0
40
0.0
40
0.0
40
0.0
40
0.0
40
0.0
40
0.0
40
0.0
40
0.0
40
0.0
40
0.0
40
0.0
40
0.0
40
0.0
40
0.0
40
0.0
40
0.0
40
0.0
40
0.0
40
0.0
40
0.0
40
0.0
40
0.0
40
0.0
40
0.0
40
0.0
40
0.0
40
0.0
40
0.0
40
0.0
40
0.0
40
0.0
40
0.0
40
0.0
40
0.0
40
0.0
40
0.0
40
0.0
40
0.0
40
0.0
40
0.0
40
0.0
40
0.0
40
0.0
40
0.0
40
0.0
40
0.0
40
0.0
40
0.0
40
0.0
40
0.0
40
0.0
40
0.0
40
0.0
40
0.0
40
0.0
40
0.0
40
0.0
40
0.0
40
0.0
40
0.0
40
0.0
40
0.0
40
0.0
40
0.0
40
0.0
40
0.0
40
0.0
40
0.0
40
0.0
40
0.0
40
0.0
40
0.0
40
0.0
40
0.0
40
0.0
40
0.0
40
0.0
40
0.0
40
0.0
40
0.0
40
0.0
40
0.0
40
0.0
40
0.0
40
0.0
40
0.0
40
0.0
40
0.0
40
0.0
40
0.0
40
0.0
40
0.0
40
0.0
40
0.0
40
0.0
40
0.0
40
0.0
40
0.0
40
0.0
40
0.0
40
0.0
40
0.0
40
0.0
40
0.0
40
0.0
40
0.0
40
0.0
40
0.0
40
0.0
40
0.0
40
0.0
40
0.0
40
0.0
40
0.0
40
0.0
40
0.0
40
0.0
40
0.0
40
0.0
40
0.0
40
0.0
40
0.0
40
0.0
40
0.0
40
0.0
40
0.0
40
0.0
40
0.0
40
0.0
40
0.0
40
0.0
40
0.0
40
0.0
40
0.0
40
0.0
40
0.0
40
0.0
40
0.0
40
0.0
40
0.0
40
0.0
40
0.0
40
0.0
40
0.0
40
0.0
40
0.0
40
0.0
40
0.0
40
0.0
40
0.0
40
0.0
40
0.0
40
0.0
40
0.0
40
0.0
40
0.0
40
0.0
40
0.0
40
0.0
40
0.0
40
0.0
40
0.0
40
0.0
40
0.0
40
0.0
40
0.0
40
0.0
40
0.0
40
0.0
40
0.0
40
0.0
40
0.0
40
0.0
40
0.0
40
0.0
40
0.0
40
0.0
40
0.0
40
0.0
40
0.0
40
0.0
40
0.0
40
0.0
40
0.0
40
0.0
40
0.0
40
0.0
40
0.0
40
0.0
40
0.0
40
0.0
40
0.0
40
0.0
40
0.0
40
0.0
40
0.0
40
0.0
40
0.0
40
0.0
40
0.0
40
0.0
40
0.0
40
0.0
40
0.0
40
0.0
40
0.0
40
0.0
40
0.0
40
0.0
40
0.0
40
0.0
40
0.0
40
0.0
40
0.0
40
0.0
40
0.0
40
0.0
40
0.0
40
0.0
40
0.0
40
0.0
40
0.0
40
0.0
40
0.0
40
0.0
40
0.0
40
0.0
40
0.0
40
0.0
40
0.0
40
0.0
40
0.0
40
0.0
40
0.0
40
0.0
40
0.0
40
0.0
40
0.0
40
0.0
40
0.0
40
0.0
40
0.0
40
0.0
40
0.0
40
0.0
40
0.0
40
0.0
40
0.0
40
0.0
40
0.0
40
0.0
40
0.0
40
0.0
40
0.0
40
0.0
40
0.0
40
0.0
40
0.0
40
0.0
40
0.0
40
0.0
40
0.0
40
0.0
40
0.0
40
0.0
40
0.0
40
0.0
40
0.0
40
0.0
40
0.0
40
0.0
40
0.0
40
0.0
40
0.0
40
0.0
40
0.0
40
0.0
40
0.0
40
0.0
40
0.0
40
0.0
40
0.0
40
0.0
40
0.0
40
0.0
40
0.0
40
0.0
40
0.0
40
0.0
40
0.0
40
0.0
40
0.0
40
0.0
40
0.0
40
0.0
40
0.0
40
0.0
40
0.0
40
0.0
40
0.0
40
0.0
40
0.0
40
0.0
40
0.0
40
0.0
40
0.0
40
0.0
40
0.0
40
0.0
40
0.0
40
0.0
40
0.0
40
0.0
40
0.0
40
0.0
40
0.0
40
0.0
40
0.0
40
0.0
40
0.0
40
0.0
40
0.0
40
0.0
40
0.0
40
0.0
40
0.0
40
0.0
40
0.0
40
0.0
40
0.0
40
0.0
40
0.0
40
0.0
40
0.0
40
0.0
40
0.0
40
0.0
40
0.0
40
0.0
40
0.0
40
0.0
40
0.0
40
0.0
40
0.0
40
0.0
40
0.0
40
0.0
40
0.0
40
0.0
40
0.0
40
0.0
40
0.0
40
0.0
40
0.0
40
0.0
40
0.0
40
0.0
40
0.0
40
0.0
40
0.0
40
0.0
40
0.0
40
0.0
40
0.0
40
0.0
40
0.0
40
0.0
40
0.0
40
0.0
40
0.0
40
0.0
40
0.0
40
0.0
40
0.0
40
0.0
40
0.0
40
0.0
40
0.0
40
0.0
40
0.0
40
0.0
40
0.0
40
0.0
40
0.0
40
0.0
40
0.0
40
0.0
40
0.0
40
0.0
40
0.0
40
0.0
40
0.0
40
0.0
40
0.0
40
0.0
40
0.0
40
0.0
40
0.0
40
0.0
40
0.0
40
0.0
40
0.0
40
0.0
40
0.0
40
0.0
40
0.0
40
0.0
40
0.0
40
0.0
40
0.0
40
0.0
40
0.0
40
0.0
40
0.0
40
0.0
40
0.0
40
0.0
40
0.0
40
0.0
40
0.0
40
0.0
40
0.0
40
0.0
40
0.0
40
0.0
40
0.0
40
0.0
40
0.0
40
0.0
40
0.0
40
0.0
40
0.0
40
0.0
40
0.0
40
0.0
40
0.0
40
0.0
40
0.0
40
0.0
40
0.0
40
0.0
40
0.0
40
0.0
40
0.0
40
0.0
40
0.0
40
0.0
40
0.0
40
0.0
40
0.0
40
0.0
40
0.0
40
0.0
40
0.0
40
0.0
40
0.0
40
0.0
40
0.0
40
0.0
40
0.0
40
0.0
40
0.0
40
0.0
40
0.0
40
0.0
40
0.0
40
0.0
40
0.0
40
0.0
40
0.0
40
0.0
40
0.0
40
0.0
40
0.0
40
0.0
40
0.0
40
0.0
40
0.0
40
0.0
40
0.0
40
0.0
40
0.0
40
0.0
40
0.0
40
0.0
40
0.0
40
0.0
40
0.0
40
0.0
40
0.0
40
0.0
40
0.0
40
0.0
40
0.0
40
0.0
40
0.0
40
0.0
40
0.0
40
0.0
40
0.0
40
0.0
40
0.0
40
0.0
40
0.0
40
0.0
40
0.0
40
0.0
40
0.0
40
0.0
40
0.0
40
0.0
40
0.0
40
0.0
40
0.0
40
0.0
40
0.0
40
0.0
40
0.0
40
0.0
40
0.0
40
0.0
40
0.0
40
0.0
40
0.0
40
0.0
40
0.0
40
0.0
40
0.0
40
0.0
40
0.0
40
0.0
40
0.0
40
0.0
40
0.0
40
0.0
40
0.0
40
0.0
40
0.0
40
0.0
40
0.0
40
0.0
40
0.0
40
0.0
40
0.0
40
0.0
40
0.0
40
0.0
40
0.0
40
0.0
40
0.0
40
0.0
40
0.0
40
0.0
40
0.0
40
0.0
40
0.0
40
0.0
40
0.0
40
0.0
40
0.0
40
0.0
40
0.0
40
0.0
40
0.0
40
0.0
40
0.0
40
0.0
40
0.0
40
0.0
40
0.0
40
0.0
40
0.0
40
0.0
40
0.0
40
0.0
40
0.0
40
0.0
40
0.0
40
0.0
40
0.0
40
0.0
40
0.0
40
0.0
40
0.0
40
0.0
40
0.0
40
0.0
40
0.0
40
0.0
40
0.0
40
0.0
40
0.0
40
0.0
40
0.0
40
0.0
40
0.0
40
0.0
40
0.0
40
0.0
40
0.0
40
0.0
40
0.0
40
0.0
40
0.0
40
0.0
40
0.0
40
0.0
40
0.0
40
0.0
40
0.0
40
0.0
40
0.0
40
0.0
40
0.0
40
0.0
40
0.0
40
0.0
40
0.0
40
0.0
40
0.0
40
0.0
40
0.0
40
0.0
40
0.0
40
0.0
40
0.0
40
0.0
40
0.0
40
0.0
40
0.0
40
0.0
40
0.0
40
0.0
40
0.0
40
0.0
40
0.0
40
0.0
40
0.0
40
0.0
40
0.0
40
0.0
40
0.0
40
0.0
40
0.0
40
0.0
40
0.0
40
0.0
40
0.0
40
0.0
40
0.0
40
0.0
40
0.0
40
0.0
40
0.0
40
0.0
40
0.0
40
0.0
40
0.0
40
0.0
40
0.0
40
0.0
40
0.0
40
0.0
40
0.0
40
0.0
40
0.0
40
0.0
40
0.0
40
0.0
40
0.0
40
0.0
40
0.0
40
0.0
40
0.0
40
0.0
40
0.0
40
0.0
40
0.0
40
0.0
40
0.0
40
0.0
40
0.0
40
0.0
40
0.0
40
0.0
40
0.0
40
0.0
40
0.0
40
0.0
40
0.0
40
0.0
40
0.0
40
0.0
40
0.0
40
0.0
40
0.0
40
0.0
40
0.0
40
0.0
40
0.0
40
0.0
40
0.0
40
0.0
40
0.0
40
0.0
40
0.0
40
0.0
40
0.0
40
0.0
40
0.0
40
0.0
40
0.0
40
0.0
40
0.0
40
0.0
40
0.0
40
0.0
40
0.0
40
0.0
40
0.0
40
0.0
40
0.0
40
0.0
40
0.0
40
0.0
40
0.0
40
0.0
40
0.0
40
0.0
40
0.0
40
0.0
40
0.0
40
0.0
40
0.0
40
0.0
40
0.0
40
0.0
40
0.0
40
0.0
40
0.0
40
0.0
40
0.0
40
0.0
40
0.0
40
0.0
40
0.0
40
0.0
40
0.0
40
0.0
40
0.0
40
0.0
40
0.0
40
0.0
40
0.0
40
0.0
40
0.0
40
0.0
40
0.0
40
0.0
40
0.0
40
0.0
40
0.0
40
0.0
40
0.0
40
0.0
40
0.0
40
0.0
40
0.0
40
0.0
40
0.0
40
0.0
40
0.0
40
0.0
40
0.0
40
0.0
40
0.0
40
0.0
40
0.0
40
0.0
40
0.0
40
0.0
40
0.0
40
0.0
40
0.0
40
0.0
40
0.0
40
0.0
40
0.0
40
0.0
40
0.0
40
0.0
40
0.0
40
0.0
40
0.0
40
0.0
40
0.0
40
0.0
40
0.0
40
0.0
40
0.0
40
0.0
40
0.0
40
0.0
40
0.0
40
0.0
40
0.0
40
0.0
40
0.0
40
0.0
40
0.0
40
0.0
40
0.0
40
0.0
40
0.0
40
0.0
40
0.0
40
0.0
40
0.0
40
0.0
40
0.0
40
0.0
40
0.0
40
0.0
40
0.0
40
0.0
40
0.0
40
0.0
40
0.0
40
0.0
40
0.0
40
0.0
40
0.0
40
0.0
40
0.0
40
0.0
40
0.0
40
0.0
40
0.0
40
0.0
40
0.0
40
0.0
40
0.0
40
0.0
40
0.0
40
0.0
40
0.0
40
0.0
40
0.0
40
0.0
40
0.0
40
0.0
40
0.0
40
0.0
40
0.0
40
0.0
40
0.0
40
0.0
40
0.0
40
0.0
40
0.0
40
0.0
40
0.0
40
0.0
40
0.0
40
0.0
40
0.0
40
0.0
40
0.0
40
0.0
40
0.0
40
0.0
40
0.0
40
0.0
40
0.0
40
0.0
40
0.0
40
0.0
40
0.0
40
0.0
40
0.0
40
0.0
40
0.0
40
0.0
40
0.0
40
0.0
40
0.0
40
0.0
40
0.0
40
0.0
40
0.0
40
0.0
40
0.0
40
0.0
40
0.0
40
0.0
40
0.0
40
0.0
40
0.0
40
0.0
40
0.0
40
0.0
40
0.0
40
0.0
40
0.0
40
0.0
40
0.0
40
0.0
40
0.0
40
0.0
40
0.0
40
0.0
40
0.0
40
0.0
40
0.0
40
0.0
40
0.0
40
0.0
40
0.0
40
0.0
40
0.0
40
0.0
40
0.0
40
0.0
40
0.0
40
0.0
40
0.0
40
0.0
40
0.0
40
0.0
40
0.0
40
0.0
40
0.0
40
0.0
40
0.0
40
0.0
40
0.0
40
0.0
40
0.0
40
0.0
40
0.0
40
0.0
40
0.0
40
0.0
40
0.0
40
0.0
40
0.0
40
0.0
40
0.0
40
0.0
40
0.0
40
0.0
40
0.0
40
0.0
40
0.0
40
0.0
40
0.0
40
0.0
40
0.0
40
0.0
40
0.0
40
0.0
40
0.0
40
0.0
40
0.0
40
0.0
40
0.0
40
0.0
40
0.0
40
0.0
40
0.0
40
0.0
40
0.0
40
0.0
40
0.0
40
0.0
40
0.0
40
0.0
40
0.0
40
0.0
40
0.0
40
0.0
40
0.0
40
0.0
40
0.0
40
0.0
40
0.0
40
0.0
40
0.0
40
0.0
40
0.0
40
0.0
40
0.0
40
0.0
40
0.0
40
0.0
40
0.0
40
0.0
40
0.0
40
0.0
40
0.0
40
0.0
40
0.0
40
0.0
40
0.0
40
0.0
40
0.0
40
0.0
40
0.0
40
0.0
40
0.0
40
0.0
40
0.0
40
0.0
40
0.0
40
0.0
40
0.0
40
0.0
40
0.0
40
0.0
40
0.0
40
0.0
40
0.0
40
0.0
40
0.0
40
0.0
40
0.0
40
0.0
40
0.0
40
0.0
40
0.0
40
0.0
40
0.0
40
0.0
40
0.0
40
0.0
40
0.0
40
0.0
40
0.0
40
0.0
40
0.0
40
0.0
40
0.0
40
0.0
40
0.0
40
0.0
40
0.0
40
0.0
40
0.0
40
0.0
40
0.0
40
0.0
40
0.0
40
0.0
40
0.0
40
0.0
40
0.0
40
0.0
40
0.0
40
0.0
40
0.0
40
0.0
40
0.0
40
0.0
40
0.0
40
0.0
40
0.0
40
0.0
40
0.0
40
0.0
40
0.0
40
0.0
40
0.0
40
0.0
40
0.0
40
0.0
40
0.0
40
0.0
40
0.0
40
0.0
40
0.0
40
0.0
40
0.0
40
0.0
40
0.0
40
0.0
40
0.0
40
0.0
40
0.0
40
0.0
40
0.0
40
0.0
40
0.0
40
0.0
40
0.0
40
0.0
40
0.0
40
0.0
40
0.0
40
0.0
40
0.0
40
0.0
40
0.0
40
0.0
40
0.0
40
0.0
40
0.0
40
0.0
40
0.0
40
0.0
40
0.0
40
0.0
40
0.0
40
0.0
40
0.0
40
0.0
40
0.0
40
0.0
40
0.0
40
0.0
40
0.0
40
0.0
40
0.0
40
0.0
40
0.0
40
0.0
40
0.0
40
0.0
40
0.0
40
0.0
40
0.0
40
0.0
40
0.0
40
0.0
40
0.0
40
0.0
40
0.0
40
0.0
40
0.0
40
0.0
40
0.0
40
0.0
40
0.0
40
0.0
40
0.0
40
0.0
10
0.0
20
42.74874000408491
30
0
10
0.008395794528244623
20
42.74874000408491
30
0
10
0.016791598710504473
20
42.74876293276296
30
0
10
0.02518742670333748
20
42.74880878906418
30
0
10
0.033583292661637655
20
42.748877570862064
30
0
10
0.04197921073758713
20
42.7489692749592
30
0
10
0.05037519507960946
20
42.7490838970883
30
0
10
0.058771259831324495
20
42.74922143191357
30
0
10
0.06716741913050564
20
42.74938187303248
30
0
10
0.07556368710803954
20
42.749565212977835
30
0
10
0.08396007788688907
20
42.74977144322013
30
0
10
0.09235660558105975
20
42.75000055417042
30
0
10
0.10075328429457031
20
42.75025253518333
30
0
10
0.10915012812042778
20
42.750527374560534
30
0
10
0.11754715113960738
20
42.75082505955451
30
0
10
0.125944367420038
20
42.751145576372615
30
0
10
0.13434179101559346
20
42.75148891018157
30
0
10
0.1427394359650898
20
42.7518550451121
30
0
10
0.15113731629128987
20
42.75224396426412
30
0
10
0.15953544599991443
20
42.75265564971201
30
0
10
0.1679338390786611
20
42.75309008251036
30
0
10
0.17633250949623125
20
42.753547242699945
30
0
10
0.1847314712013652
20
42.75402710931401
30
0
10
0.19313073812188622
20
42.75452966038489
30
0
10
0.2015303241637534
20
42.75505487295083
30
0
10
0.2099302432101243
20
42.7556027230632
30
0
10
0.21833050912042753
20
42.75617318579391
30
0
10
0.22673113572944514
20
42.75676623524316
30
0
10
0.23513213684640571
20
42.75738184454736
30
0
10
0.24353352625408864
20
42.758019985887415
30
0
10
0.2519353177079391
20
42.75868063049721
30
0
10
0.2603375249351949
20
42.75936374867235
30
0
10
0.26874016163402503
20
42.76006930977915
30
0
10
0.27714324147268027
20
42.760797282263844
30
0
10
0.28554677808865586
20
42.76154763366204
30
0
10
0.29395078508786765
20
42.76232033060838
30
0
10
0.30235527604384027
20
42.763115338846426
30
0
10
0.31076026449690863
20
42.763932623238716
30
0
10
0.31916576395343305
20
42.76477214777708
30
0
10
0.3275717878850277
20
42.76563387559311
30
0
10
0.33597834972780294
20
42.766517768968775
30
0
10
0.3443854628816215
20
42.76742378934732
30
0
10
0.35279314070936874
20
42.76835189734421
30
0
10
0.36120139653623756
20
42.76930205275832
30
0
10
0.3696102436490272
20
42.77027421458323
30
0
10
0.3780196952954573
20
42.77126834101871
30
0
10
0.3864297646834962
20
42.7722843894823
30
0
10
0.39484046498070396
20
42.77332231662104
30
0
10
0.4032518093135912
20
42.77438207832332
30
0
10
0.4116638107669919
20
42.77546362973084
30
0
10
0.42007648238345185
20
42.776566925250684
30
0
10
0.42848983716263267
20
42.77769191856751
30
0
10
0.43690388806073044
20
42.7788385626558
30
0
10
0.4453186479899098
20
42.78000680979218
30
0
10
0.4537341298177536
20
42.781196611567886
30
0
10
0.46215034636672786
20
42.782407918901235
30
0
10
0.470567310413662
20
42.7836406820502
30
0
10
0.47898503468924464
20
42.78489485062499
30
0
10
0.48740353187753443
20
42.78617037360072
30
0
10
0.4958228146154869
20
42.78746719933015
30
0
10
0.504242895492496
20
42.788785275556386
30
0
10
0.512663787049951
20
42.790124549425606
30
0
10
0.5210855017808093
20
42.791484967499926
30
0
10
0.5295080521291838
20
42.792866475770126
30
0
10
0.5379314504899455
20
42.79426901966846
30
0
10
0.5463557092083415
20
42.795692544081504
30
0
10
0.5547808405796275
20
42.79713699336289
30
0
10
0.5632068568487156
20
42.798602311346144
30
0
10
0.5716337702098372
20
42.800088441357424
30
0
10
0.5800615928062194
20
42.801595326228274
30
0
10
0.5884903367297775
20
42.80312290830834
30
0
10
0.5969200140208208
20
42.80467112947803
30
0
10
0.6053506366677734
20
42.80623993116119
30
0
10
0.6137822166069089
20
42.80782925433764
30
0
10
0.6222147657220993
20
42.80943903955579
30
0
10
0.630648295844578
20
42.81106922694506
30
0
10
0.639082818752716
20
42.81271975622833
30
0
10
0.6475183461718125
20
42.8143905667343
30
0
10
0.655954889773898
20
42.81608159740977
30
0
10
0.6643924611775521
20
42.81779278683184
30
0
10
0.672831071947733
20
42.8195240732201
30
0
10
0.6812707335956207
20
42.82127539444861
30
0
10
0.6897114575784729
20
42.82304668805792
30
0
10
0.6981532552994933
20
42.8248378912669
30
0
10
0.7065961381077125
20
42.82664894098454
30
0
10
0.715040117297881
20
42.82847977382163
30
0
10
0.7234852041103741
20
42.830330326102306
30
0
10
0.731931409731109
20
42.832200533875586
30
0
10
0.7403787452914738
20
42.834090332926685
30
0
10
0.7488272218682664
20
42.835999658788275
30
0
10
0.7572768504836462
20
42.83792844675164
30
0
10
0.765727642105097
20
42.83987663187771
30
0
10
0.7741796076453994
20
42.84184414900793
30
0
10
0.7826327579626137
20
42.843830932775084
30
0
10
0.7910871038600759
20
42.84583691761394
30
0
10
0.7995426560864002
20
42.847862037771755
30
0
10
0.8079994253354945
20
42.84990622731877
30
0
10
0.816457422246584
20
42.8519694201584
30
0
10
0.8249166574042449
20
42.85405155003744
30
0
10
0.8333771413384475
20
42.85615255055604
30
0
10
0.8418388845246082
20
42.85827235517764
30
0
10
0.8503018973836507
20
42.86041089723868
30
0
10
0.8587661902820768
20
42.86256810995822
30
0
10
0.8672317735320428
20
42.86474392644742
30
0
10
0.8756986573914488
20
42.86693827971889
30
0
10
0.8841668520640314
20
42.86915110269586
30
0
10
0.8926363676994679
20
42.87138232822128
30
0
10
0.9011072143934863
20
42.8736318890667
30
0
10
0.9095794021879832
20
42.87589971794107
30
0
10
0.918052941071149
20
42.87818574749936
30
0
10
0.9265278409776009
20
42.88048991035108
30
0
10
0.9350041117885223
20
42.882812139068626
30
0
10
0.9434817633318076
20
42.88515236619548
30
0
10
0.9519608053822165
20
42.88751052425429
30
0
10
0.9604412476615317
20
42.889886545754806
30
0
10
0.9689230998387245
20
42.892280363201664
30
0
10
0.977406371530125
20
42.894691909102015
30
0
10
0.9858910722995997
20
42.89712111597306
30
0
10
0.9943772116587329
20
42.899567916349376
30
0
10
1.0028647990670163
20
42.90203224279021
30
0
10
1.011353843932039
20
42.90451402788648
30
0
10
1.0198443556096872
20
42.907013204267756
30
0
10
1.028336343404347
20
42.909529704609106
30
0
10
1.0368298165691117
20
42.9120634616377
30
0
10
1.0453247843059925
20
42.91461440813939
30
0
10
1.0538212557661366
20
42.91718247696508
30
0
10
1.0623192400500465
20
42.919767601037
30
0
10
1.0708187462078051
20
42.92236971335483
30
0
10
1.0793197832393038
20
42.924988747001706
30
0
10
1.0878223600944739
20
42.92762463515005
30
0
10
1.0963264856735235
20
42.93027731106734
30
0
10
1.1048321688271758
20
42.9329467081217
30
0
10
1.1133394183569107
20
42.935632759787325
30
0
10
1.1218482430152112
20
42.9383353996499
30
0
10
1.1303586515058106
20
42.94105456141175
30
0
10
1.138870652483944
20
42.94379017889696
30
0
10
1.1473842545566026
20
42.94654218605638
30
0
10
1.15589946628279
20
42.9493105169724
30
0
10
1.1644162961737794
20
42.952095105863734
30
0
10
1.172934752693376
20
42.95489588708996
30
0
10
1.1814548442581798
20
42.95771279515607
30
0
10
1.1899765792378505
20
42.960545764716784
30
0
10
1.1984999659553748
20
42.96339473058086
30
0
10
1.2070250126873348
20
42.96625962771517
30
0
10
1.2155517276641792
20
42.96914039124876
30
0
10
1.224080119070495
20
42.972036956476764
30
0
10
1.2326101950452808
20
42.974949258864186
30
0
10
1.2411419636822218
20
42.977877234049615
30
0
10
1.2496754330299664
20
42.98082081784881
30
0
10
1.2582106110924027
20
42.98377994625818
30
0
10
1.266747505828937
20
42.98675455545815
30
0
10
1.2752861251547736
20
42.98974458181646
30
0
10
1.283826476941193
20
42.992749961891306
30
0
10
1.2923685690158346
20
42.99577063243447
30
0
10
1.300912409162978
20
42.99880653039423
30
0
10
1.3094580051238236
20
43.00185759291832
30
0
10
1.3180053645967762
20
43.00492375735663
30
0
10
1.3265544952377277
20
43.00800496126397
30
0
10
1.33510540466034
20
43.01110114240265
30
0
10
1.3436581004363284
20
43.014212238744975
30
0
10
1.352212590095746
20
43.017338188475684
30
0
10
1.3607688811272667
20
43.02047892999429
30
0
10
1.3693269809784683
20
43.02363440191732
30
0
10
1.3778868970561178
20
43.02680454308048
30
0
10
1.3864486367264535
20
43.02998929254077
30
0
10
1.3950122073154692
20
43.033188589578415
30
0
10
1.4035776161091964
20
43.03640237369888
30
0
10
1.4121448703539892
20
43.03963058463464
30
0
10
1.4207139772568027
20
43.04287316234698
30
0
10
1.4292849439854802
20
43.04613004702769
30
0
10
1.43785777766903
20
43.04940117910067
30
0
10
1.4464324853979107
20
43.0526864992235
30
0
10
1.4550090742243076
20
43.05598594828888
30
0
10
1.4635875511624146
20
43.059299467426065
30
0
10
1.4721679231887141
20
43.062626998002195
30
0
10
1.4807501972422528
20
43.06596848162354
30
0
10
1.489334380224922
20
43.069323860136755
30
0
10
1.4979204790017318
20
43.07269307562998
30
0
10
1.50650850040109
20
43.07607607043393
30
0
10
1.5150984512150742
20
43.07947278712292
30
0
10
1.523690338199708
20
43.0828831685158
30
0
10
1.5322841680752324
20
43.08630715767688
30
0
10
1.540879947526379
20
43.089744697916736
30
0
10
1.5494776832026411
20
43.09319573279303
30
0
10
1.5580773817185434
20
43.09666020611122
30
0
10
1.5666790496539098
20
43.10013806192521
30
0
10
1.5752826935541333
20
43.10362924453801
30
0
10
1.5838883199304405
20
43.10713369850231
30
0
10
1.5924959352601589
20
43.11065136862094
30
0
10
1.601105545986978
20
43.11418219994742
30
0
10
1.6097171585212169
20
43.11772613778631
30
0
10
1.61833077924008
20
43.12128312769363
30
0
10
1.6269464144879224
20
43.12485311547715
30
0
10
1.6355640705765058
20
43.12843604719672
30
0
10
1.6441837537852582
20
43.1320318691645
30
0
10
1.6528054703615296
20
43.13564052794513
30
0
10
1.6614292265208452
20
43.1392619703559
30
0
10
1.670055028447162
20
43.14289614346689
30
0
10
1.678682882293118
20
43.146542994601006
30
0
10
1.6873127941802848
20
43.15020247133403
30
0
10
1.6959447701994164
20
43.15387452149466
30
0
10
1.7045788164106965
20
43.15755909316438
30
0
10
1.713214938843985
20
43.1612561346775
30
0
10
1.721853143499065
20
43.16496559462098
30
0
10
1.730493436345882
20
43.1686874218343
30
0
10
1.7391358233247896
20
43.17242156540929
30
0
10
1.7477803103467882
20
43.17616797468993
30
0
10
1.756426903293764
20
43.179926599272115
30
0
10
1.7650756080187269
20
43.18369738900337
30
0
10
1.7737264303460458
20
43.18748029398256
30
0
10
1.782379376071682
20
43.19127526455957
30
0
10
1.7910344509634246
20
43.19508225133496
30
0
10
1.7996916607611189
20
43.19890120515956
30
0
10
1.8083510111768988
20
43.20273207713408
30
0
10
1.81701250789541
20
43.20657481860867
30
0
10
1.8256761565740436
20
43.21042938118248
30
0
10
1.8343419628431554
20
43.21429571670314
30
0
10
1.8430099323062912
20
43.21817377726632
30
0
10
1.851680070540409
20
43.222063515215126
30
0
10
1.8603523830960984
20
43.225964883139596
30
0
10
1.8690268754978006
20
43.229877833876124
30
0
10
1.8777035532440234
20
43.233802320506875
30
0
10
1.8863824218075593
20
43.23773829635915
30
0
10
1.8950634866356968
20
43.241685715004756
30
0
10
1.9037467531504357
20
43.24564453025942
30
0
10
1.912432226748695
20
43.249614696182014
30
0
10
1.9211199128025254
20
43.25359616707398
30
0
10
1.9298098166593127
20
43.257588897478534
30
0
10
1.9385019436419888
20
43.26159284218001
30
0
10
1.9471962990492324
20
43.265607956203105
30
0
10
1.9558928881556739
20
43.26963419481213
30
0
10
1.9645917162120967
20
43.27367151351024
30
0
10
1.9732927884456368
20
43.277719868038666
30
0
10
1.9819961100599817
20
43.28177921437594
30
0
10
1.9907016862355664
20
43.285849508737044
30
0
10
1.999409522129769
20
43.28993070757263
30
0
10
2.008119622877105
20
43.29402276756819
30
0
10
2.01683199358942
20
43.29812564564317
30
0
10
2.0255466393560773
20
43.30223929895019
30
0
10
2.034263565244151
20
43.30636368487412
30
0
10
2.042982776298613
20
43.31049876103125
30
0
10
2.051704277542517
20
43.31464448526836
30
0
10
2.0604280739771847
20
43.318800815661874
30
0
10
2.0691541705823893
20
43.32296771051691
30
0
10
2.077882572316536
20
43.327145128366425
30
0
10
2.086613284116845
20
43.33133302797024
30
0
10
2.095346310899526
20
43.33553136831414
30
0
10
2.1040816575599584
20
43.33974010860896
30
0
10
2.1128193289728676
20
43.34395920828958
30
0
10
2.1215593299924986
20
43.34818862701407
30
0
10
2.130301665452788
20
43.35242832466263
30
0
10
2.1390463401675373
20
43.35667826133672
30
0
10
2.147793358930581
20
43.36093839735803
30
0
10
2.1565427265159576
20
43.36520869326753
30
0
10
2.1652944476780758
20
43.369489109824514
30
0
10
2.174048527151881
20
43.37377960800557
30
0
10
2.1828049696530165
20
43.37808014900363
30
0
10
2.1915637798779932
20
43.38239069422697
30
0
10
2.2003249625043457
20
43.38671120529821
30
0
10
2.2090885221907945
20
43.39104164405332
30
0
10
2.217854463577406
20
43.39538197254059
30
0
10
2.2266227912857492
20
43.39973215301969
30
0
10
2.235393509919051
20
43.40409214796057
30
0
10
2.244166624062354
20
43.40846192004252
30
0
10
2.252942138282669
20
43.41284143215315
30
0
10
2.2617200571291245
20
43.41723064738732
30
0
10
2.2705003851331247
20
43.4216295290462
30
0
10
2.279283126808491
20
43.42603804063617
30
0
10
2.2880682866516175
20
43.430456145867865
30
0
10
2.2968558691416128
20
43.43488380865511
30
0
10
2.3056458787404517
20
43.43932099311392
30
0
10
2.314438319893113
20
43.44376766356145
30
0
10
2.32323319702773
20
43.44822378451501
30
0
10
2.332030514555727
20
43.452689320690986
30
0
10
2.340830276871965
20
43.45716423700386
30
0
10
2.3496324883548763
20
43.461648498565154
30
0
10
2.3584371533666104
20
43.46614207068244
30
0
10
2.3672442762531634
20
43.47064491885826
30
0
10
2.376053861344519
20
43.47515700878914
30
0
10
2.3848659129547825
20
43.47967830636454
30
0
10
2.393680435382314
20
43.48420877766586
30
0
10
2.4024974329098616
20
43.48874838896538
30
0
10
2.4113169098046936
20
43.49329710672527
30
0
10
2.420138870318727
20
43.49785489759655
30
0
10
2.428963318688659
20
43.50242172841806
30
0
10
2.4377902591360936
20
43.50699756621547
30
0
10
2.4466196958676676
20
43.51158237820022
30
0
10
2.455451633075179
20
43.51617613176854
30
0
10
2.4642860749357105
20
43.52077879450043
30
0
10
2.473123025611754
20
43.52539033415865
30
0
10
2.48196248925133
20
43.530010718687656
30
0
10
2.4908044699881136
20
43.53463991621268
30
0
10
2.499648971941552
20
43.53927789503865
30
0
10
2.508495999216985
20
43.543924623649225
30
0
10
2.517345555905763
20
43.548580070705775
30
0
10
2.526197646085365
20
43.553244205046404
30
0
10
2.535052273819513
20
43.55791699568491
30
0
10
2.5439094431582903
20
43.562598411809844
30
0
10
2.5527691581382523
20
43.567288422783484
30
0
10
2.561631422782543
20
43.57198699814086
30
0
10
2.5704962411010053
20
43.57669410758874
30
0
10
2.5793636170902916
20
43.58140972100471
30
0
10
2.5882335547339776
20
43.58613380843613
30
0
10
2.597106058002667
20
43.590866340099176
30
0
10
2.605981130854101
20
43.595607286377884
30
0
10
2.6148587772332705
20
43.600356617823174
30
0
10
2.623739001072517
20
43.60511430515187
30
0
10
2.6326218062916382
20
43.609880319245754
30
0
10
2.6415071967979973
20
43.61465463115058
30
0
10
2.6503951764866223
20
43.61943721207516
30
0
10
2.65928574924031
20
43.62422803339037
30
0
10
2.6681789189297285
20
43.629027066628204
30
0
10
2.677074689413518
20
43.633834283480866
30
0
10
2.68597306453839
20
43.638649655799796
30
0
10
2.6948740481392286
20
43.64347315559475
30
0
10
2.7037776440391856
20
43.64830475503283
30
0
10
2.712683856049782
20
43.65314442643761
30
0
10
2.7215926879709995
20
43.65799214228816
30
0
10
2.7305041435913826
20
43.66284787521814
30
0
10
2.7394182266881266
20
43.66771159801489
30
0
10
2.7483349410271782
20
43.672583283618515
30
0
10
2.757254290363324
20
43.677462905120954
30
0
10
2.7661762784402875
20
43.68235043576512
30
0
10
2.775100908990814
20
43.687245848943945
30
0
10
2.7840281857367692
20
43.69214911819949
30
0
10
2.792958112389223
20
43.697060217222074
30
0
10
2.8018906926485436
20
43.701979119849405
30
0
10
2.810825930204482
20
43.70690580006562
30
0
10
2.819763828736262
20
43.71184023200047
30
0
10
2.8287043919126678
20
43.71678238992842
30
0
10
2.837647623392129
20
43.72173224826778
30
0
10
2.8465935268228026
20
43.72668978157981
30
0
10
2.855542105842666
20
43.7316549645679
30
0
10
2.8644933640795935
20
43.736627772076694
30
0
10
2.873447305151444
20
43.741608179091216
30
0
10
2.8824039326661404
20
43.74659616073604
30
0
10
2.891363250221752
20
43.75159169227441
30
0
10
2.900325261406579
20
43.756594749107464
30
0
10
2.9092899697992287
20
43.761605306773326
30
0
10
2.9182573789686956
20
43.7666233409463
30
0
10
2.927227492474444
20
43.77164882743606
30
0
10
2.936200313866484
20
43.77668174218678
30
0
10
2.945175846685444
20
43.78172206127635
30
0
10
2.9541540944626594
20
43.78676976091556
30
0
10
2.9631350607202394
20
43.791824817447264
30
0
10
2.9721187489711434
20
43.796887207345584
30
0
10
2.981105162719261
20
43.80195690721512
30
0
10
2.990094305459485
20
43.80703389379015
30
0
10
2.999086180677778
20
43.81211814393378
30
0
10
3.008080791851255
20
43.81720963463725
30
0
10
3.0170781424482493
20
43.82230834301907
30
0
10
3.02607823592839
20
43.82741424632426
30
0
10
3.035081075742669
20
43.83252732192362
30
0
10
3.044086665333511
20
43.8376475473129
30
0
10
3.0530950081348474
20
43.84277490011203
30
0
10
3.0621061075721823
20
43.84790935806441
30
0
10
3.0711199670626628
20
43.853050899036106
30
0
10
3.0801365900151474
20
43.85819950101511
30
0
10
3.089155979830273
20
43.86335514211058
30
0
10
3.0981781399005213
20
43.86851780055211
30
0
10
3.1072030736102865
20
43.87368745468899
30
0
10
3.116230784335942
20
43.87886408298944
30
0
10
3.1252612754459017
20
43.88404766403992
30
0
10
3.134294550300693
20
43.88923817654436
30
0
10
3.143330612253011
20
43.89443559932347
30
0
10
3.1523694646477884
20
43.899639911314004
30
0
10
3.1614111108222587
20
43.904851091568034
30
0
10
3.1704555541060153
20
43.910069119252256
30
0
10
3.1795027978210775
20
43.91529397364729
30
0
10
3.18855284528195
20
43.920525634146955
30
0
10
3.1976056997956843
20
43.92576408025759
30
0
10
3.20666136466194
20
43.93100929159735
30
0
10
3.215719843173043
20
43.936261247895494
30
0
10
3.2247811386140453
20
43.94151992899175
30
0
10
3.2338452542627882
20
43.9467853148356
30
0
10
3.242912193389955
20
43.95205738548562
30
0
10
3.2519819592591346
20
43.95733612110877
30
0
10
3.2610545551268704
20
43.962621501979754
30
0
10
3.2701299842427303
20
43.967913508480386
30
0
10
3.279208249849353
20
43.97321212109887
30
0
10
3.2882893551825054
20
43.97851732042916
30
0
10
3.2973733034711437
20
43.983829087170356
30
0
10
3.3064600979374643
20
43.98914740212599
30
0
10
3.3155497417969584
20
43.994472246203394
30
0
10
3.324642238258469
20
43.99980360041311
30
0
10
3.3337375905242403
20
44.005141445868205
30
0
10
3.3428358017899784
20
44.010485763783635
30
0
10
3.3519368752448973
20
44.01583653547568
30
0
10
3.361040814071773
20
44.02119374236121
30
0
10
3.3701476214469985
20
44.02655736595719
30
0
10
3.3792573005406337
20
44.031927387879975
30
0
10
3.388369854516456
20
44.03730378984472
30
0
10
3.3974852865320093
20
44.042686553664794
30
0
10
3.4066035997386623
20
44.048075661251154
30
0
10
3.415724797281649
20
44.053471094611744
30
0
10
3.4248488823001226
20
44.058872835850906
30
0
10
3.4339758579272046
20
44.06428086716879
30
0
10
3.4431057272900367
20
44.06969517086076
30
0
10
3.452238493509821
20
44.0751157293168
30
0
10
3.4613741597018763
20
44.08054252502096
30
0
10
3.4705127289756805
20
44.085975540550734
30
0
10
3.4796542044349215
20
44.09141475857654
30
0
10
3.488798589177542
20
44.0968601618611
30
0
10
3.497945886295784
20
44.102311733258894
30
0
10
3.5070960988762385
20
44.10776945571562
30
0
10
3.516249229999892
20
44.1132333122676
30
0
10
3.525405282742168
20
44.11870328604124
30
0
10
3.534564260172971
20
44.12417936025247
30
0
10
3.543726165356739
20
44.1296615182062
30
0
10
3.5528910013524775
20
44.135149743295784
30
0
10
3.5620587712138128
20
44.14064401900247
30
0
10
3.5712294779890272
20
44.14614432889486
30
0
10
3.5804031247211103
20
44.15165065662839
30
0
10
3.5895797144477966
20
44.15716298594479
30
0
10
3.598759250201607
20
44.16268130067153
30
0
10
3.607941735009896
20
44.16820558472136
30
0
10
3.6171271718948907
20
44.17373582209174
30
0
10
3.626315563873731
20
44.17927199686433
30
0
10
3.6355069139585137
20
44.18481409320447
30
0
10
3.6447012251563304
20
44.19036209536072
30
0
10
3.6538985004693116
20
44.19591598766428
30
0
10
3.6630987428946633
20
44.201475754528545
30
0
10
3.6723019554247096
20
44.20704138044858
30
0
10
3.68150814104693
20
44.21261285000062
30
0
10
3.6907173027440012
20
44.21819014784158
30
0
10
3.6999294434938355
20
44.2237732587086
30
0
10
3.7091445662696163
20
44.229362167418486
30
0
10
3.71836267403984
20
44.23495685886729
30
0
10
3.7275837697683563
20
44.24055731802982
30
0
10
3.736807856414398
20
44.246163529959134
30
0
10
3.7460349369326256
20
44.25177547978607
30
0
10
3.755265014273162
20
44.25739315271881
30
0
10
3.764498091381629
20
44.26301653404239
30
0
10
3.7737341711991856
20
44.26864560911823
30
0
10
3.782973256662561
20
44.274280363383674
30
0
10
3.7922153507040965
20
44.279920782351546
30
0
10
3.8014604562517733
20
44.28556685160967
30
0
10
3.8107085762292554
20
44.29121855682046
30
0
10
3.81995971355592
20
44.296875883720425
30
0
10
3.829213871146896
20
44.30253881811974
30
0
10
3.838471051913097
20
44.308207345901835
30
0
10
3.8477312587612547
20
44.31388145302288
30
0
10
3.856994494593951
20
44.31956112551141
30
0
10
3.8662607623096616
20
44.325246349467896
30
0
10
3.8755300648027777
20
44.33093711106426
30
0
10
3.8848024049636463
20
44.33663339654348
30
0
10
3.8940777856786006
20
44.34233519221919
30
0
10
3.903356209829998
20
44.3480424844752
30
0
10
3.9126376802962435
20
44.35375525976511
30
0
10
3.9219221999518297
20
44.3594735046119
30
0
10
3.9312097716673695
20
44.3651972056075
30
0
10
3.94050039830962
20
44.37092634941238
30
0
10
3.949794082741522
20
44.37666092275513
30
0
10
3.959090827822226
20
44.38240091243208
30
0
10
3.968390636407132
20
44.3881463053069
30
0
10
3.9776935113479075
20
44.39389708831014
30
0
10
3.9869994554925308
20
44.39965324843892
30
0
10
3.9963084716853117
20
44.405414772756465
30
0
10
4.005620562766929
20
44.411181648391725
30
0
10
4.014935731574455
20
44.41695386253903
30
0
10
4.024253980941391
20
44.42273140245766
30
0
10
4.033575313697692
20
44.428514255471455
30
0
10
4.042899732669798
20
44.43430240896846
30
0
10
4.052227240680663
20
44.44009585040054
30
0
10
4.061557840549784
20
44.44589456728297
30
0
10
4.07089153509323
20
44.45169854719412
30
0
10
4.080228327123671
20
44.45750777777503
30
0
10
4.0895682194504035
20
44.46332224672905
30
0
10
4.098911214879383
20
44.46914194182151
30
0
10
4.108257316213246
20
44.47496685087931
30
0
10
4.117606526251348
20
44.48079696179059
30
0
10
4.126958847789775
20
44.48663226250433
30
0
10
4.136314283621388
20
44.492472741030035
30
0
10
4.145672836535841
20
44.49831838543738
30
0
10
4.155034509319605
20
44.50416918385583
30
0
10
4.164399304756001
20
44.51002512447429
30
0
10
4.173767225625226
20
44.51588619554077
30
0
10
4.183138274704376
20
44.52175238536207
30
0
10
4.192512454767474
20
44.52762368230336
30
0
10
4.201889768585495
20
44.533500074787895
30
0
10
4.211270218926393
20
44.5393815512967
30
0
10
4.220653808555128
20
44.54526810036816
30
0
10
4.230040540233686
20
44.55115971059774
30
0
10
4.2394304167211105
20
44.55705637063764
30
0
10
4.248823440773523
20
44.56295806919646
30
0
10
4.258219615144151
20
44.56886479503888
30
0
10
4.26761894258335
20
44.57477653698531
30
0
10
4.27702142583863
20
44.58069328391164
30
0
10
4.286427067654676
20
44.5866150247488
30
0
10
4.295835870773383
20
44.59254174848255
30
0
10
4.305247837933862
20
44.598473444153115
30
0
10
4.314662971872481
20
44.604410100854864
30
0
10
4.3240812753228814
20
44.61035170773602
30
0
10
4.333502751015999
20
44.61629825399835
30
0
10
4.34292740168009
20
44.62224972889683
30
0
10
4.352355230040756
20
44.62820612173937
30
0
10
4.361786238820965
20
44.63416742188646
30
0
10
4.371220430741074
20
44.64013361875095
30
0
10
4.380657808518853
20
44.64610470179768
30
0
10
4.390098374869503
20
44.65208066054321
30
0
10
4.399542132505688
20
44.65806148455552
30
0
10
4.408989084137546
20
44.6640471634537
30
0
10
4.4184392324727195
20
44.67003768690769
30
0
10
4.427892580216371
20
44.67603304463796
30
0
10
4.437349130071211
20
44.68203322641524
30
0
10
4.446808884737515
20
44.688038222060236
30
0
10
4.456271846913147
20
44.69404802144331
30
0
10
4.465738019293578
20
44.70006261448424
30
0
10
4.475207404571914
20
44.70608199115193
30
0
10
4.484680005438908
20
44.712106141464126
30
0
10
4.494155824582988
20
44.71813505548712
30
0
10
4.503634864690272
20
44.72416872333549
30
0
10
4.513117128444597
20
44.73020713517185
30
0
10
4.522602618527527
20
44.73625028120655
30
0
10
4.532091337618385
20
44.74229815169739
30
0
10
4.541583288394269
20
44.748350736949405
30
0
10
4.551078473530069
20
44.75440802731456
30
0
10
4.560576895698489
20
44.760470013191465
30
0
10
4.570078557570069
20
44.76653668502519
30
0
10
4.579583461813204
20
44.77260803330692
30
0
10
4.58909161109416
20
44.77868404857376
30
0
10
4.598603008077096
20
44.7847647214084
30
0
10
4.608117655424084
20
44.79085004243896
30
0
10
4.617635555795126
20
44.79694000233866
30
0
10
4.627156711848176
20
44.80303459182558
30
0
10
4.6366811262391545
20
44.80913380166244
30
0
10
4.646208801621969
20
44.81523762265632
30
0
10
4.655739740648538
20
44.82134604565842
30
0
10
4.6652739459688
20
44.827459061563836
30
0
10
4.674811420230738
20
44.833576661311255
30
0
10
4.684352166080398
20
44.839698835882814
30
0
10
4.693896186161902
20
44.84582557630373
30
0
10
4.703443483117474
20
44.85195687364219
30
0
10
4.712994059587448
20
44.858092719008994
30
0
10
4.722547918210296
20
44.86423310355744
30
0
10
4.732105061622639
20
44.87037801848298
30
0
10
4.7416654924592665
20
44.876527455023044
30
0
10
4.751229213353152
20
44.882681404456804
30
0
10
4.7607962269354775
20
44.88883985810492
30
0
10
4.770366535835636
20
44.89500280732934
30
0
10
4.779940142681267
20
44.90117024353305
30
0
10
4.789517050098259
20
44.90734215815987
30
0
10
4.799097260710775
20
44.91351854269421
30
0
10
4.808680777141264
20
44.91969938866086
30
0
10
4.81826760201048
20
44.92588468762475
30
0
10
4.827857737937498
20
44.932074431190756
30
0
10
4.837451187539731
20
44.93826861100346
30
0
10
4.847047953432948
20
44.94446721874694
30
0
10
4.856648038231283
20
44.950670246144554
30
0
10
4.866251444547259
20
44.956877684958734
30
0
10
4.875858174991805
20
44.963089526990764
30
0
10
4.885468232174265
20
44.96930576408058
30
0
10
4.895081618702415
20
44.975526388106516
30
0
10
4.904698337182485
20
44.981751390985174
30
0
10
4.914318390219169
20
44.98798076467113
30
0
10
4.92394178041564
20
44.99421450115678
30
0
10
4.93356851037357
20
45.000452592472165
30
0
10
4.943198582693144
20
45.00669503068467
30
0
10
4.95283199997307
20
45.0129418078989
30
0
10
4.962468764810602
20
45.019192916256465
30
0
10
4.972108879801546
20
45.02544834793575
30
0
10
4.981752347540286
20
45.031708095151764
30
0
10
4.991399170619791
20
45.03797215015592
30
0
10
5.001049351631631
20
45.04424050523581
30
0
10
5.010702893165991
20
45.05051315271507
30
0
10
5.020359797811693
20
45.056790084953114
30
0
10
5.030020068156199
20
45.063071294345036
30
0
10
5.039683706785634
20
45.06935677332132
30
0
10
5.049350716284793
20
45.075646514347696
30
0
10
5.059021099237164
20
45.081940509924976
30
0
10
5.068694858224937
20
45.088238752588836
30
0
10
5.078371995829019
20
45.09454123490964
30
0
10
5.0880525146290445
20
45.10084794949223
30
0
10
5.097736417203398
20
45.10715888897578
30
0
10
5.107423706129219
20
45.1134740460336
30
0
10
5.117114383982417
20
45.119793413372925
30
0
10
5.126808453337692
20
45.12611698373479
30
0
10
5.136505916768543
20
45.13244474989382
30
0
10
5.146206776847279
20
45.138776704658035
30
0
10
5.155911036145034
20
45.145112840868705
30
0
10
5.165618697231789
20
45.15145315140017
30
0
10
5.175329762676371
20
45.15779762915964
30
0
10
5.185044235046474
20
45.164146267087055
30
0
10
5.194762116908675
20
45.17049905815489
30
0
10
5.204483410828438
20
45.17685599536798
30
0
10
5.214208119370134
20
45.183217071763366
30
0
10
5.223936245097053
20
45.18958228041012
30
0
10
5.233667790571414
20
45.195951614409196
30
0
10
5.2434027583543825
20
45.20232506689322
30
0
10
5.2531411510060755
20
45.208702631026355
30
0
10
5.26288297108558
20
45.21508430000413
30
0
10
5.272628221150965
20
45.22147006705327
30
0
10
5.282376903759294
20
45.22785992543154
30
0
10
5.292129021466633
20
45.23425386842759
30
0
10
5.301884576828068
20
45.24065188936078
30
0
10
5.311643572397715
20
45.247053981581026
30
0
10
5.321406010728731
20
45.25346013846863
30
0
10
5.33117189437333
20
45.25987035343417
30
0
10
5.34094122588279
20
45.26628461991826
30
0
10
5.3507140078074675
20
45.272702931391464
30
0
10
5.360490242696811
20
45.279125281354126
30
0
10
5.370269933099365
20
45.28555166333617
30
0
10
5.380053081562796
20
45.29198207089704
30
0
10
5.38983969063389
20
45.29841649762547
30
0
10
5.399629762858573
20
45.30485493713934
30
0
10
5.409423300781916
20
45.31129738308556
30
0
10
5.4192203069481515
20
45.31774382913989
30
0
10
5.4290207839006825
20
45.324194269006824
30
0
10
5.438824734182095
20
45.33064869641941
30
0
10
5.44863216033417
20
45.33710710513912
30
0
10
5.458443064897889
20
45.34356948895569
30
0
10
5.468257450413454
20
45.350035841687
30
0
10
5.47807531942029
20
45.35650615717892
30
0
10
5.4878966744570645
20
45.36298042930516
30
0
10
5.497721518061689
20
45.36945865196713
30
0
10
5.507549852771339
20
45.3759408190938
30
0
10
5.517381681122459
20
45.382426924641564
30
0
10
5.527217005650775
20
45.38891696259411
30
0
10
5.5370558288913045
20
45.395410926962256
30
0
10
5.546898153378368
20
45.40190881178382
30
0
10
5.5567439816456
20
45.40841061112351
30
0
10
5.5665933162259575
20
45.41491631907273
30
0
10
5.5764461596517325
20
45.42142592974953
30
0
10
5.586302514454562
20
45.4279394372984
30
0
10
5.596162383165438
20
45.43445683589015
30
0
10
5.606025768314716
20
45.44097811972181
30
0
10
5.615892672432131
20
45.447503283016474
30
0
10
5.6257630980468
20
45.454032320023146
30
0
10
5.635637047687236
20
45.46056522501665
30
0
10
5.64551452388136
20
45.46710199229751
30
0
10
5.655395529156508
20
45.473642616191746
30
0
10
5.665280066039442
20
45.480187091050844
30
0
10
5.675168137056359
20
45.486735411251566
30
0
10
5.685059744732904
20
45.49328757119583
30
0
10
5.694954891594175
20
45.499843565310606
30
0
10
5.704853580164733
20
45.506403388047765
30
0
10
5.714755812968621
20
45.51296703388399
30
0
10
5.724661592529359
20
45.51953449732061
30
0
10
5.734570921369966
20
45.526105772883525
30
0
10
5.744483802012964
20
45.53268085512305
30
0
10
5.754400236980387
20
45.53925973861378
30
0
10
5.764320228793792
20
45.545842417954525
30
0
10
5.774243779974266
20
45.55242888776814
30
0
10
5.784170893042443
20
45.55901914270143
30
0
10
5.7941015705185
20
45.565613177425014
30
0
10
5.80403581492218
20
45.57221098663324
30
0
10
5.813973628772791
20
45.57881256504403
30
0
10
5.823915014589225
20
45.585417907398806
30
0
10
5.833859974889956
20
45.59202700846233
30
0
10
5.843808512193054
20
45.598639863022605
30
0
10
5.8537606290161985
20
45.60525646589079
30
0
10
5.8637163278766815
20
45.61187681190105
30
0
10
5.873675611291418
20
45.618500895910444
30
0
10
5.883638481776951
20
45.625128712798826
30
0
10
5.893604941849471
20
45.63176025746876
30
0
10
5.90357499402482
20
45.638395524845365
30
0
10
5.9135486408184885
20
45.64503450987622
30
0
10
5.923525884745644
20
45.651677207531264
30
0
10
5.933506728321125
20
45.65832361280268
30
0
10
5.943491174059453
20
45.66497372070478
30
0
10
5.953479224474848
20
45.671627526273916
30
0
10
5.963470882081227
20
45.67828502456835
30
0
10
5.973466149392216
20
45.68494621066819
30
0
10
5.983465028921167
20
45.691611079675205
30
0
10
5.99346752318115
20
45.69827962671282
30
0
10
6.003473634684974
20
45.70495184692594
30
0
10
6.013483365945192
20
45.71162773548085
30
0
10
6.023496719474106
20
45.718307287565175
30
0
10
6.033513697783781
20
45.7249904983877
30
0
10
6.043534303386047
20
45.73167736317831
30
0
10
6.053558538792515
20
45.73836787718789
30
0
10
6.063586406514579
20
45.745062035688214
30
0
10
6.0736179090634215
20
45.75175983397183
30
0
10
6.083653048950025
20
45.758461267351976
30
0
10
6.093691828685188
20
45.765166331162504
30
0
10
6.103734250779517
20
45.77187502075775
30
0
10
6.1137803177434495
20
45.77858733151244
30
0
10
6.12383003208725
20
45.78530325882161
30
0
10
6.133883396321027
20
45.79202279810048
30
0
10
6.143940412954733
20
45.7987459447844
30
0
10
6.154001084498179
20
45.80547269432872
30
0
10
6.1640654134610395
20
45.81220304220871
30
0
10
6.174133402352857
20
45.81893698391945
30
0
10
6.184205053683052
20
45.82567451497576
30
0
10
6.194280369960933
20
45.83241563091209
30
0
10
6.204359353695709
20
45.83916032728245
30
0
10
6.214442007396478
20
45.84590859966027
30
0
10
6.224528333572252
20
45.85266044363836
30
0
10
6.234618334731963
20
45.859415854828804
30
0
10
6.244712013384461
20
45.866174828862846
30
0
10
6.254809372038531
20
45.872937361390825
30
0
10
6.264910413202893
20
45.879703448082076
30
0
10
6.2750151393862135
20
45.886473084624846
30
0
10
6.285123553097115
20
45.8932462667262
30
0
10
6.295235656844179
20
45.90002299011196
30
0
10
6.305351453135952
20
45.90680325052654
30
0
10
6.315470944480957
20
45.91358704373298
30
0
10
6.3255941333877
20
45.92037436551274
30
0
10
6.335721022364673
20
45.927165211665695
30
0
10
6.3458516139203685
20
45.93395957801
30
0
10
6.355985910563274
20
45.94075746038204
30
0
10
6.366123914801897
20
45.94755885463632
30
0
10
6.376265629144755
20
45.95436375664541
30
0
10
6.3864110561003935
20
45.96117216229984
30
0
10
6.3965601981773865
20
45.967984067508006
30
0
10
6.406713057884347
20
45.974799468196125
30
0
10
6.416869637729932
20
45.98161836030812
30
0
10
6.427029940222851
20
45.98844073980553
30
0
10
6.43719396787187
20
45.995266602667485
30
0
10
6.447361723185826
20
46.00209594489058
30
0
10
6.457533208673621
20
46.00892876248878
30
0
10
6.467708426844238
20
46.01576505149339
30
0
10
6.477887380206748
20
46.02260480795293
30
0
10
6.488070071270304
20
46.02944802793307
30
0
10
6.498256502544173
20
46.0362947075166
30
0
10
6.508446676537715
20
46.043144842803265
30
0
10
6.518640595760409
20
46.04999842990975
30
0
10
6.528838262721846
20
46.05685546496957
30
0
10
6.539039679931746
20
46.06371594413303
30
0
10
6.549244849899958
20
46.07057986356711
30
0
10
6.559453775136473
20
46.077447219455436
30
0
10
6.569666458151418
20
46.08431800799813
30
0
10
6.579882901455079
20
46.091192225411795
30
0
10
6.5901031075578915
20
46.098069867929446
30
0
10
6.600327078970462
20
46.104950931800396
30
0
10
6.61055481820356
20
46.111835413290216
30
0
10
6.620786327768135
20
46.118723308680636
30
0
10
6.631021610175316
20
46.12561461426949
30
0
10
6.641260667936419
20
46.13250932637062
30
0
10
6.651503503562959
20
46.13940744131384
30
0
10
6.661750119566646
20
46.14630895544486
30
0
10
6.672000518459406
20
46.153213865125174
30
0
10
6.682254702753369
20
46.16012216673202
30
0
10
6.692512674960883
20
46.167033856658314
30
0
10
6.70277443759453
20
46.17394893131256
30
0
10
6.713039993167117
20
46.1808673871188
30
0
10
6.723309344191688
20
46.18778922051654
30
0
10
6.733582493181533
20
46.19471442796067
30
0
10
6.743859442650187
20
46.2016430059214
30
0
10
6.7541401951114475
20
46.20857495088422
30
0
10
6.764424753079367
20
46.21551025934978
30
0
10
6.774713119068264
20
46.222448927833845
30
0
10
6.785005295592734
20
46.22939095286726
30
0
10
6.795301285167647
20
46.23633633099584
30
0
10
6.805601090308162
20
46.24328505878032
30
0
10
6.815904713529723
20
46.2502371327963
30
0
10
6.826212157348075
20
46.257192549634155
30
0
10
6.836523424279264
20
46.264151305899
30
0
10
6.846838516839641
20
46.27111339821059
30
0
10
6.85715743754587
20
46.27807882320328
30
0
10
6.8674801889149375
20
46.28504757752598
30
0
10
6.877806773464153
20
46.29201965784203
30
0
10
6.888137193711154
20
46.298995060829206
30
0
10
6.898471452173915
20
46.30597378317959
30
0
10
6.908809551370753
20
46.31295582159956
30
0
10
6.919151493820334
20
46.31994117280972
30
0
10
6.929497282041672
20
46.32692983354481
30
0
10
6.93984691855414
20
46.333921800553675
30
0
10
6.950200405877477
20
46.340917070599176
30
0
10
6.960557746531789
20
46.34791564045816
30
0
10
6.970918943037559
20
46.354917506921375
30
0
10
6.981283997915644
20
46.361922666793404
30
0
10
6.991652913687297
20
46.36893111689265
30
0
10
7.0020256928741516
20
46.37594285405122
30
0
10
7.012402337998242
20
46.38295787511488
30
0
10
7.022782851582003
20
46.38997617694306
30
0
10
7.033167236148279
20
46.39699775640868
30
0
10
7.04355549422032
20
46.40402261039817
30
0
10
7.0539476283218026
20
46.411050735811436
30
0
10
7.0643436409768166
20
46.41808212956171
30
0
10
7.074743534709888
20
46.425116788575565
30
0
10
7.085147312045971
20
46.43215470979284
30
0
10
7.09555497551046
20
46.43919589016658
30
0
10
7.105966527629192
20
46.446240326662966
30
0
10
7.1163819709284555
20
46.4532880162613
30
0
10
7.126801307934991
20
46.460338955953894
30
0
10
7.1372245411759945
20
46.46739314274605
30
0
10
7.147651673179134
20
46.474450573656014
30
0
10
7.158082706472544
20
46.481511245714884
30
0
10
7.1685176435848295
20
46.48857515596658
30
0
10
7.1789564870450775
20
46.495642301467775
30
0
10
7.189399239382862
20
46.502712679287875
30
0
10
7.199845903128241
20
46.50978628650892
30
0
10
7.210296480811775
20
46.516863120225565
30
0
10
7.220750974964514
20
46.523943177545
30
0
10
7.231209388118023
20
46.53102645558692
30
0
10
7.2416717228043685
20
46.538112951483456
30
0
10
7.252137981556138
20
46.54520266237914
30
0
10
7.262608166906432
20
46.55229558543082
30
0
10
7.273082281388876
20
46.55939171780765
30
0
10
7.283560327537631
20
46.566491056691014
30
0
10
7.294042307887383
20
46.57359359927447
30
0
10
7.304528224973364
20
46.5806993427637
30
0
10
7.315018081331346
20
46.58780828437651
30
0
10
7.325511879497651
20
46.59492042134269
30
0
10
7.336009622009153
20
46.60203575090403
30
0
10
7.346511311403286
20
46.60915427031425
30
0
10
7.357016950218041
20
46.61627597683895
30
0
10
7.367526540991986
20
46.62340086775556
30
0
10
7.378040086264251
20
46.63052894035329
30
0
10
7.388557588574555
20
46.637660191933094
30
0
10
7.399079050463186
20
46.6447946198076
30
0
10
7.409604474471027
20
46.65193222130107
30
0
10
7.420133863139547
20
46.65907299374936
30
0
10
7.430667219010813
20
46.666216934499865
30
0
10
7.441204544627493
20
46.67336404091148
30
0
10
7.451745842532859
20
46.68051431035454
30
0
10
7.462291115270792
20
46.68766774021076
30
0
10
7.472840365385787
20
46.694824327873235
30
0
10
7.483393595422955
20
46.701984070746335
30
0
10
7.493950807928038
20
46.70914696624571
30
0
10
7.504512005447396
20
46.71631301179823
30
0
10
7.515077190528031
20
46.7234822048419
30
0
10
7.525646365717575
20
46.73065454282587
30
0
10
7.536219533564298
20
46.73783002321034
30
0
10
7.546796696617129
20
46.74500864346658
30
0
10
7.557377857425633
20
46.75219040107682
30
0
10
7.5679630185400395
20
46.75937529353421
30
0
10
7.57855218251123
20
46.76656331834283
30
0
10
7.589145351890753
20
46.7737544730176
30
0
10
7.599742529230825
20
46.78094875508423
30
0
10
7.6103437170843335
20
46.788146162079215
30
0
10
7.620948918004842
20
46.79534669154975
30
0
10
7.631558134546598
20
46.80255034105374
30
0
10
7.642171369264534
20
46.80975710815968
30
0
10
7.652788624714265
20
46.81696699044667
30
0
10
7.66340990345211
20
46.82417998550439
30
0
10
7.674035208035083
20
46.83139609093298
30
0
10
7.684664541020895
20
46.83861530434306
30
0
10
7.695297904967975
20
46.845837623355685
30
0
10
7.705935302435449
20
46.853063045602255
30
0
10
7.716576735983169
20
46.860291568724534
30
0
10
7.727222208171703
20
46.86752319037458
30
0
10
7.737871721562344
20
46.87475790821468
30
0
10
7.748525278717112
20
46.881995719917384
30
0
10
7.759182882198759
20
46.889236623165374
30
0
10
7.769844534570775
20
46.89648061565147
30
0
10
7.780510238397387
20
46.903727695078594
30
0
10
7.791179996243573
20
46.91097785915972
30
0
10
7.801853810675054
20
46.91823110561783
30
0
10
7.812531684258305
20
46.925487432185854
30
0
10
7.823213619560559
20
46.9327468366067
30
0
10
7.833899619149811
20
46.94000931663314
30
0
10
7.844589685594823
20
46.947274870027805
30
0
10
7.855283821465122
20
46.95454349456314
30
0
10
7.8659820293310085
20
46.96181518802137
30
0
10
7.876684311763567
20
46.969089948194465
30
0
10
7.887390671334658
20
46.976367772884075
30
0
10
7.898101110616928
20
46.983648659901526
30
0
10
7.908815632183813
20
46.99093260706776
30
0
10
7.919534238609547
20
46.998219612213326
30
0
10
7.930256932469157
20
47.00550967317829
30
0
10
7.940983716338471
20
47.012802787812234
30
0
10
7.951714592794126
20
47.02009895397423
30
0
10
7.962449564413569
20
47.027398169532766
30
0
10
7.973188633775057
20
47.03470043236577
30
0
10
7.983931803457668
20
47.04200574036048
30
0
10
7.9946790760412965
20
47.049314091413486
30
0
10
8.00543045410667
20
47.05662548343067
30
0
10
8.016185940235337
20
47.06393991432717
30
0
10
8.026945537009682
20
47.07125738202733
30
0
10
8.037709247012932
20
47.078577884464686
30
0
10
8.048477072829147
20
47.085901419581916
30
0
10
8.059249017043234
20
47.0932279853308
30
0
10
8.070025082240951
20
47.10055757967222
30
0
10
8.080805271008908
20
47.10789020057609
30
0
10
8.09158958593457
20
47.1152258460213
30
0
10
8.102378029606259
20
47.12256451399577
30
0
10
8.113170604613165
20
47.129906202496294
30
0
10
8.123967313545348
20
47.13725090952862
30
0
10
8.134768158993738
20
47.144598633107336
30
0
10
8.145573143550134
20
47.151949371255874
30
0
10
8.15638226980722
20
47.15930312200646
30
0
10
8.167195540358565
20
47.16665988340011
30
0
10
8.178012957798614
20
47.17401965348654
30
0
10
8.188834524722715
20
47.18138243032419
30
0
10
8.199660243727102
20
47.18874821198016
30
0
10
8.210490117408911
20
47.196116996530186
30
0
10
8.221324148366177
20
47.203488782058606
30
0
10
8.232162339197838
20
47.21086356665832
30
0
10
8.243004692503744
20
47.218241348430766
30
0
10
8.253851210884658
20
47.22562212548589
30
0
10
8.264701896942258
20
47.23300589594212
30
0
10
8.27555675327914
20
47.24039265792631
30
0
10
8.286415782498826
20
47.247782409573716
30
0
10
8.297278987205765
20
47.25517514902798
30
0
10
8.308146370005334
20
47.26257087444109
30
0
10
8.319017933503849
20
47.26996958397336
30
0
10
8.329893680308562
20
47.27737127579335
30
0
10
8.340773613027661
20
47.2847759480779
30
0
10
8.351657734270288
20
47.29218359901207
30
0
10
8.362546046646527
20
47.29959422678908
30
0
10
8.37343855276742
20
47.30700782961035
30
0
10
8.384335255244961
20
47.3144244056854
30
0
10
8.395236156692103
20
47.321843953231856
30
0
10
8.406141259722766
20
47.32926647047541
30
0
10
8.417050566951831
20
47.33669195564979
30
0
10
8.427964080995151
20
47.34412040699674
30
0
10
8.438881804469554
20
47.351551822765956
30
0
10
8.449803739992847
20
47.358986201215124
30
0
10
8.460729890183813
20
47.366423540609816
30
0
10
8.471660257662224
20
47.37386383922351
30
0
10
8.48259484504883
20
47.381307095337526
30
0
10
8.493533654965386
20
47.38875330724104
30
0
10
8.504476690034632
20
47.396202473231014
30
0
10
8.515423952880306
20
47.40365459161219
30
0
10
8.526375446127153
20
47.411109660697036
30
0
10
8.537331172400915
20
47.418567678805765
30
0
10
8.548291134328352
20
47.42602864426626
30
0
10
8.559255334537227
20
47.43349255541407
30
0
10
8.570223775656322
20
47.44095941059237
30
0
10
8.581196460315438
20
47.44842920815194
30
0
10
8.592173391145398
20
47.45590194645116
30
0
10
8.603154570778049
20
47.46337762385592
30
0
10
8.614140001846266
20
47.47085623873966
30
0
10
8.625129686983959
20
47.478337789483284
30
0
10
8.636123628826073
20
47.48582227447519
30
0
10
8.647121830008592
20
47.49330969211121
30
0
10
8.658124293168536
20
47.50080004079457
30
0
10
8.669131020943981
20
47.50829331893592
30
0
10
8.680142015974045
20
47.51578952495321
30
0
10
8.691157280898896
20
47.52328865727176
30
0
10
8.702176818359767
20
47.530790714324205
30
0
10
8.713200630998944
20
47.53829569455044
30
0
10
8.724228721459777
20
47.54580359639762
30
0
10
8.735261092386677
20
47.5533144183201
30
0
10
8.74629774642513
20
47.56082815877947
30
0
10
8.757338686221686
20
47.56834481624448
30
0
10
8.768383914423982
20
47.57586438919104
30
0
10
8.779433433680722
20
47.58338687610216
30
0
10
8.790487246641701
20
47.59091227546797
30
0
10
8.801545355957796
20
47.59844058578566
30
0
10
8.812607764280969
20
47.60597180555946
30
0
10
8.82367447426428
20
47.61350593330066
30
0
10
8.834745488561879
20
47.6210429675275
30
0
10
8.845820809829018
20
47.628582906765224
30
0
10
8.856900440722047
20
47.636125749546
30
0
10
8.86798438389842
20
47.643671494408935
30
0
10
8.879072642016707
20
47.651220139900026
30
0
10
8.890165217736579
20
47.65877168457215
30
0
10
8.901262113718824
20
47.66632612698502
30
0
10
8.912363332625352
20
47.67388346570519
30
0
10
8.92346887711919
20
47.681443699305994
30
0
10
8.934578749864487
20
47.689006826367574
30
0
10
8.945692953526523
20
47.6965728454768
30
0
10
8.95681149077171
20
47.70414175522728
30
0
10
8.967934364267583
20
47.71171355421932
30
0
10
8.979061576682827
20
47.71928824105993
30
0
10
8.990193130687258
20
47.72686581436274
30
0
10
9.001329028951837
20
47.73444627274805
30
0
10
9.012469274148671
20
47.742029614842764
30
0
10
9.023613868951017
20
47.749615839280374
30
0
10
9.03476281603328
20
47.757204944700916
30
0
10
9.045916118071027
20
47.764796929751
30
0
10
9.05707377774098
20
47.77239179308374
30
0
10
9.068235797721021
20
47.779989533358766
30
0
10
9.0794021806902
20
47.78759014924215
30
0
10
9.090572929328733
20
47.79519363940645
30
0
10
9.101748046318008
20
47.80280000253063
30
0
10
9.11292753434058
20
47.81040923730007
30
0
10
9.124111396080194
20
47.81802134240655
30
0
10
9.135299634221765
20
47.82563631654819
30
0
10
9.146492251451393
20
47.83325415842947
30
0
10
9.157689250456368
20
47.840874866761176
30
0
10
9.168890633925166
20
47.84849844026041
30
0
10
9.180096404547456
20
47.85612487765054
30
0
10
9.191306565014099
20
47.863754177661164
30
0
10
9.20252111801716
20
47.87138633902816
30
0
10
9.213740066249905
20
47.8790213604936
30
0
10
9.224963412406801
20
47.886659240805734
30
0
10
9.236191159183521
20
47.89429997871899
30
0
10
9.247423309276957
20
47.90194357299396
30
0
10
9.258659865385209
20
47.90959002239734
30
0
10
9.269900830207588
20
47.91723932570194
30
0
10
9.281146206444635
20
47.924891481686664
30
0
10
9.292395996798104
20
47.93254648913647
30
0
10
9.30365020397098
20
47.940204346842364
30
0
10
9.31490883066748
20
47.9478650536014
30
0
10
9.326171879593048
20
47.95552860821661
30
0
10
9.337439353454355
20
47.96319500949699
30
0
10
9.348711254959325
20
47.97086425625756
30
0
10
9.359987586817109
20
47.97853634731924
30
0
10
9.371268351738111
20
47.986211281508886
30
0
10
9.382553552433976
20
47.993889057659246
30
0
10
9.393843191617597
20
48.00156967460896
30
0
10
9.405137272003122
20
48.00925313120253
30
0
10
9.416435796305956
20
48.01693942629031
30
0
10
9.427738767242754
20
48.02462855872846
30
0
10
9.439046187531442
20
48.03232052737897
30
0
10
9.450358059891204
20
48.04001533110961
30
0
10
9.461674387042489
20
48.04771296879389
30
0
10
9.472995171707028
20
48.05541343931111
30
0
10
9.48432041660781
20
48.063116741546274
30
0
10
9.495650124469107
20
48.07082287439009
30
0
10
9.506984298016466
20
48.07853183673897
30
0
10
9.518322939976716
20
48.08624362749497
30
0
10
9.529666053077975
20
48.09395824556585
30
0
10
9.541013640049645
20
48.10167568986497
30
0
10
9.552365703622412
20
48.109395959311286
30
0
10
9.563722246528268
20
48.1171190528294
30
0
10
9.575083271500489
20
48.12484496934945
30
0
10
9.586448781273653
20
48.13257370780715
30
0
10
9.597818778583642
20
48.14030526714375
30
0
10
9.609193266167644
20
48.14803964630606
30
0
10
9.620572246764146
20
48.15577684424633
30
0
10
9.631955723112949
20
48.16351685992234
30
0
10
9.643343697955178
20
48.171259692297355
30
0
10
9.654736174033255
20
48.179005340340034
30
0
10
9.666133154090934
20
48.18675380302454
30
0
10
9.677534640873288
20
48.1945050793304
30
0
10
9.68894063712671
20
48.20225916824255
30
0
10
9.700351145598919
20
48.21001606875131
30
0
10
9.711766169038976
20
48.217775779852374
30
0
10
9.723185710197255
20
48.225538300546766
30
0
10
9.73460977182549
20
48.23330362984086
30
0
10
9.746038356676731
20
48.241071766746316
30
0
10
9.757471467505384
20
48.24884271028011
30
0
10
9.768909107067193
20
48.256616459464475
30
0
10
9.78035127811925
20
48.26439301332693
30
0
10
9.791797983419992
20
48.27217237090019
30
0
10
9.803249225729218
20
48.27995453122227
30
0
10
9.81470500780807
20
48.287739493336325
30
0
10
9.826165332419064
20
48.29552725629073
30
0
10
9.837630202326059
20
48.30331781913904
30
0
10
9.849099620294291
20
48.311111180939974
30
0
10
9.86057358909036
20
48.318907340757384
30
0
10
9.872052111482226
20
48.32670629766025
30
0
10
9.88353519023923
20
48.334508050722654
30
0
10
9.895022828132086
20
48.34231259902379
30
0
10
9.906515027932885
20
48.350119941647925
30
0
10
9.918011792415099
20
48.357930077684394
30
0
10
9.929513124353582
20
48.365743006227554
30
0
10
9.941019026524568
20
48.373558726376814
30
0
10
9.952529501705689
20
48.38137723723658
30
0
10
9.964044552675961
20
48.38919853791626
30
0
10
9.975564182215797
20
48.397022627530255
30
0
10
9.987088393107008
20
48.40484950519794
30
0
10
9.998617188132801
20
48.41267917004361
30
0
10
10.010150570077789
20
48.42051162119652
30
0
10
10.021688541727986
20
48.428346857790835
30
0
10
10.033231105870815
20
48.43618487896564
30
0
10
10.044778265295111
20
48.444025683864886
30
0
10
10.056330022791117
20
48.451869271637406
30
0
10
10.067886381150496
20
48.45971564143689
30
0
10
10.079447343166326
20
48.467564792421875
30
0
10
10.091012911633113
20
48.47541672375574
30
0
10
10.102583089346782
20
48.48327143460666
30
0
10
10.114157879104681
20
48.491128924147596
30
0
10
10.125737283705591
20
48.49898919155631
30
0
10
10.137321305949728
20
48.50685223601535
30
0
10
10.148909948638737
20
48.51471805671199
30
0
10
10.160503214575703
20
48.52258665283825
30
0
10
10.17210110656515
20
48.53045802359086
30
0
10
10.183703627413044
20
48.538332168171294
30
0
10
10.1953107799268
20
48.54620908578569
30
0
10
10.206922566915273
20
48.55408877564488
30
0
10
10.218538991188778
20
48.56197123696436
30
0
10
10.230160055559077
20
48.56985646896429
30
0
10
10.241785762839392
20
48.57774447086945
30
0
10
10.253416115844402
20
48.58563524190926
30
0
10
10.265051117390247
20
48.59352878131773
30
0
10
10.276690770294529
20
48.60142508833348
30
0
10
10.28833507737632
20
48.609324162199705
30
0
10
10.299984041456161
20
48.61722600216417
30
0
10
10.311637665356058
20
48.62513060747918
30
0
10
10.323295951899503
20
48.633037977401614
30
0
10
10.334958903911458
20
48.64094811119285
30
0
10
10.346626524218363
20
48.64886100811877
30
0
10
10.358298815648148
20
48.65677666744978
30
0
10
10.369975781030226
20
48.664695088460775
30
0
10
10.381657423195493
20
48.67261627043109
30
0
10
10.393343744976336
20
48.68054021264453
30
0
10
10.405034749206642
20
48.68846691438936
30
0
10
10.416730438721785
20
48.696396374958255
30
0
10
10.428430816358638
20
48.70432859364831
30
0
10
10.440135884955584
20
48.71226356976104
30
0
10
10.451845647352497
20
48.72020130260234
30
0
10
10.463560106390768
20
48.72814179148248
30
0
10
10.475279264913288
20
48.73608503571611
30
0
10
10.487003125764469
20
48.744031034622225
30
0
10
10.498731691790228
20
48.75197978752415
30
0
10
10.510464965838002
20
48.759931293749545
30
0
10
10.522202950756748
20
48.767885552630396
30
0
10
10.533945649396946
20
48.77584256350296
30
0
10
10.545693064610594
20
48.7838023257078
30
0
10
10.557445199251225
20
48.791764838589756
30
0
10
10.569202056173891
20
48.79973010149791
30
0
10
10.580963638235186
20
48.807698113785605
30
0
10
10.592729948293236
20
48.81566887481044
30
0
10
10.604500989207704
20
48.82364238393423
30
0
10
10.616276763839792
20
48.83161864052298
30
0
10
10.628057275052246
20
48.839597643946924
30
0
10
10.639842525709355
20
48.84757939358046
30
0
10
10.651632518676957
20
48.85556388880218
30
0
10
10.663427256822441
20
48.863551128994835
30
0
10
10.675226743014745
20
48.871541113545305
30
0
10
10.687030980124367
20
48.87953384184465
30
0
10
10.69883997102336
20
48.88752931328801
30
0
10
10.71065371858534
20
48.89552752727469
30
0
10
10.722472225685483
20
48.90352848320805
30
0
10
10.734295495200534
20
48.91153218049558
30
0
10
10.7461235300088
20
48.919538618548806
30
0
10
10.757956332990167
20
48.927547796783365
30
0
10
10.769793907026088
20
48.93555971461893
30
0
10
10.781636254999594
20
48.943574371479215
30
0
10
10.793483379795296
20
48.95159176679197
30
0
10
10.805335284299384
20
48.959611899988964
30
0
10
10.81719197139963
20
48.967634770505974
30
0
10
10.829053443985396
20
48.97566037778278
30
0
10
10.84091970494763
20
48.98368872126315
30
0
10
10.852790757178877
20
48.99171980039482
30
0
10
10.86466660357326
20
48.999753614629476
30
0
10
10.876547247026513
20
49.00779016342277
30
0
10
10.888432690435968
20
49.01582944623431
30
0
10
10.900322936700553
20
49.02387146252761
30
0
10
10.912217988720798
20
49.0319162117701
30
0
10
10.924117849398844
20
49.03996369343313
30
0
10
10.936022521638439
20
49.04801390699194
30
0
10
10.947932008344948
20
49.05606685192567
30
0
10
10.959846312425338
20
49.064122527717295
30
0
10
10.971765436788202
20
49.072180933853694
30
0
10
10.983689384343753
20
49.080242069825594
30
0
10
10.99561815800382
20
49.08830593512753
30
0
10
11.007551760681855
20
49.09637252925789
30
0
10
11.019490195292944
20
49.10444185171889
30
0
10
11.031433464753796
20
49.11251390201654
30
0
10
11.043381571982751
20
49.12058867966064
30
0
10
11.05533451989979
20
49.128666184164814
30
0
10
11.067292311426518
20
49.13674641504641
30
0
10
11.079254949486195
20
49.14482937182658
30
0
10
11.091222437003713
20
49.15291505403024
30
0
10
11.103194776905609
20
49.16100346118601
30
0
10
11.115171972120068
20
49.16909459282629
30
0
10
11.127154025576923
20
49.17718844848717
30
0
10
11.13914094020766
20
49.185285027708474
30
0
10
11.15113271894542
20
49.193384330033716
30
0
10
11.163129364724997
20
49.201486355010104
30
0
10
11.175130880482845
20
49.20959110218855
30
0
10
11.187137269157088
20
49.21769857112362
30
0
10
11.1991485336875
20
49.22580876137355
30
0
10
11.211164677015534
20
49.23392167250022
30
0
10
11.223185702084303
20
49.24203730406917
30
0
10
11.235211611838597
20
49.25015565564956
30
0
10
11.247242409224878
20
49.25827672681416
30
0
10
11.259278097191288
20
49.26640051713939
30
0
10
11.271318678687642
20
49.27452702620524
30
0
10
11.283364156665446
20
49.28265625359531
30
0
10
11.295414534077878
20
49.290788198896784
30
0
10
11.307469813879813
20
49.29892286170041
30
0
10
11.319529999027809
20
49.30706024160051
30
0
10
11.33159509248012
20
49.31520033819495
30
0
10
11.343665097196686
20
49.32334315108515
30
0
10
11.355740016139155
20
49.33148867987606
30
0
10
11.367819852270866
20
49.33963692417617
30
0
10
11.379904608556863
20
49.347787883597455
30
0
10
11.391994287963891
20
49.35594155775543
30
0
10
11.404088893460402
20
49.364097946269084
30
0
10
11.416188428016556
20
49.37225704876089
30
0
10
11.42829289460423
20
49.38041886485684
30
0
10
11.440402296197007
20
49.38858339418635
30
0
10
11.452516635770193
20
49.39675063638231
30
0
10
11.46463591630081
20
49.40492059108108
30
0
10
11.476760140767603
20
49.413093257922434
30
0
10
11.488889312151034
20
49.42126863654959
30
0
10
11.501023433433302
20
49.42944672660919
30
0
10
11.513162507598324
20
49.437627527751296
30
0
10
11.525306537631756
20
49.44581103962936
30
0
10
11.537455526520983
20
49.45399726190024
30
0
10
11.549609477255128
20
49.462186194224174
30
0
10
11.561768392825053
20
49.47037783626479
30
0
10
11.573932276223358
20
49.47857218768907
30
0
10
11.58610113044439
20
49.48676924816736
30
0
10
11.59827495848424
20
49.49496901737337
30
0
10
11.610453763340745
20
49.503171494984144
30
0
10
11.622637548013495
20
49.511376680680044
30
0
10
11.63482631550384
20
49.5195845741448
30
0
10
11.647020068814877
20
49.527795175065414
30
0
10
11.659218810951462
20
49.536008483132214
30
0
10
11.67142254492021
20
49.54422449803882
30
0
10
11.68363127372951
20
49.552443219482164
30
0
10
11.695845000389504
20
49.56066464716243
30
0
10
11.708063727912105
20
49.5688887807831
30
0
10
11.720287459311002
20
49.577115620050904
30
0
10
11.732516197601655
20
49.58534516467584
30
0
10
11.74474994580129
20
49.59357741437114
30
0
10
11.756988706928924
20
49.601812368853295
30
0
10
11.769232484005347
20
49.61005002784201
30
0
10
11.781481280053132
20
49.61829039106022
30
0
10
11.79373509809664
20
49.62653345823408
30
0
10
11.805993941162013
20
49.634779229092935
30
0
10
11.818257812277196
20
49.643027703369356
30
0
10
11.83052671447191
20
49.65127888079907
30
0
10
11.842800650777685
20
49.65953276112101
30
0
10
11.855079624227837
20
49.66778934407727
30
0
10
11.867363637857492
20
49.67604862941313
30
0
10
11.879652694703571
20
49.684310616877006
30
0
10
11.891946797804803
20
49.69257530622047
30
0
10
11.904245950201725
20
49.70084269719824
30
0
10
11.91655015493668
20
49.70911278956816
30
0
10
11.928859415053823
20
49.7173855830912
30
0
10
11.941173733599125
20
49.725661077531456
30
0
10
11.953493113620377
20
49.73393927265612
30
0
10
11.965817558167185
20
49.74222016823551
30
0
10
11.978147070290973
20
49.75050376404301
30
0
10
11.990481653045
20
49.758790059855116
30
0
10
12.002821309484347
20
49.76707905545138
30
0
10
12.015166042665918
20
49.77537075061445
30
0
10
12.027515855648454
20
49.78366514513
30
0
10
12.03987075149253
20
49.7919622387868
30
0
10
12.052230733260558
20
49.800262031376654
30
0
10
12.064595804016786
20
49.808564522694404
30
0
10
12.076965966827307
20
49.81686971253792
30
0
10
12.08934122476005
20
49.8251776007081
30
0
10
12.1017215808848
20
49.83348818700887
30
0
10
12.11410703827318
20
49.841801471247145
30
0
10
12.126497599998675
20
49.85011745323286
30
0
10
12.138893269136616
20
49.858436132778955
30
0
10
12.151294048764193
20
49.866757509701344
30
0
10
12.163699941960452
20
49.87508158381892
30
0
10
12.176110951806303
20
49.88340835495356
30
0
10
12.188527081384512
20
49.89173782293008
30
0
10
12.200948333779719
20
49.900069987576295
30
0
10
12.213374712078426
20
49.908404848722945
30
0
10
12.225806219369007
20
49.916742406203724
30
0
10
12.238242858741714
20
49.92508265985526
30
0
10
12.250684633288666
20
49.933425609517116
30
0
10
12.263131546103859
20
49.94177125503176
30
0
10
12.275583600283179
20
49.95011959624461
30
0
10
12.288040798924388
20
49.95847063300398
30
0
10
12.300503145127138
20
49.96682436516107
30
0
10
12.31297064199296
20
49.97518079256998
30
0
10
12.325443292625277
20
49.983539915087704
30
0
10
12.337921100129407
20
49.99190173257412
30
0
10
12.35040406761256
20
50.00026624489197
30
0
10
12.362892198183852
20
50.00863345190689
30
0
10
12.375385494954283
20
50.017003353487326
30
0
10
12.387883961036767
20
50.02537594950463
30
0
10
12.400387599546121
20
50.03375123983297
30
0
10
12.412896413599064
20
50.04212922434936
30
0
10
12.425410406314226
20
50.050509902933655
30
0
10
12.43792958081215
20
50.058893275468535
30
0
10
12.450453940215294
20
50.06727934183948
30
0
10
12.462983487648025
20
50.07566810193481
30
0
10
12.47551822623664
20
50.08405955564563
30
0
10
12.48805815910935
20
50.09245370286587
30
0
10
12.500603289396292
20
50.10085054349222
30
0
10
12.51315362022953
20
50.10925007742419
30
0
10
12.525709154743055
20
50.11765230456405
30
0
10
12.538269896072787
20
50.12605722481684
30
0
10
12.550835847356584
20
50.13446483809039
30
0
10
12.563407011734236
20
50.14287514429525
30
0
10
12.575983392347474
20
50.151288143344765
30
0
10
12.588564992339972
20
50.159703835155014
30
0
10
12.601151814857339
20
50.168122219644815
30
0
10
12.613743863047137
20
50.17654329673571
30
0
10
12.62634114005887
20
50.18496706635198
30
0
10
12.638943649043998
20
50.19339352842064
30
0
10
12.651551393155938
20
50.20182268287142
30
0
10
12.664164375550042
20
50.21025452963672
30
0
10
12.67678259938365
20
50.218689068651706
30
0
10
12.689406067816034
20
50.227126299854184
30
0
10
12.702034784008445
20
50.23556622318467
30
0
10
12.714668751124092
20
50.24400883858638
30
0
10
12.727307972328152
20
50.25245414600519
30
0
10
12.73995245078778
20
50.26090214538967
30
0
10
12.752602189672087
20
50.269352836691034
30
0
10
12.765257192152179
20
50.277806219863166
30
0
10
12.77791746140112
20
50.28626229486261
30
0
10
12.790583000593967
20
50.29472106164853
30
0
10
12.80325381290775
20
50.303182520182766
30
0
10
12.815929901521486
20
50.311646670429774
30
0
10
12.82861126961618
20
50.320113512356656
30
0
10
12.841297920374831
20
50.32858304593312
30
0
10
12.85398985698242
20
50.33705527113152
30
0
10
12.86668708262593
20
50.34553018792679
30
0
10
12.879389600494335
20
50.35400779629649
30
0
10
12.892097413778616
20
50.36248809622079
30
0
10
12.90481052567174
20
50.37097108768241
30
0
10
12.91752893936869
20
50.379456770666714
30
0
10
12.93025265806646
20
50.38794514516161
30
0
10
12.94298168496403
20
50.3964362111576
30
0
10
12.955716023262422
20
50.404929968647764
30
0
10
12.968455676164643
20
50.41342641762773
30
0
10
12.981200646875742
20
50.42192555809572
30
0
10
12.99395093860276
20
50.430427390052465
30
0
10
13.006706554554775
20
50.43893191350127
30
0
10
13.01946749794289
20
50.44743912844798
30
0
10
13.032233771980213
20
50.45594903490097
30
0
10
13.045005379881916
20
50.464461632871185
30
0
10
13.057782324865165
20
50.47297692237204
30
0
10
13.070564610149187
20
50.48149490341952
30
0
10
13.083352238955223
20
50.49001557603209
30
0
10
13.096145214506562
20
50.49853894023074
30
0
10
13.108943540028534
20
50.50706499603896
30
0
10
13.121747218748512
20
50.51559374348276
30
0
10
13.134556253895909
20
50.524125182590616
30
0
10
13.147370648702188
20
50.53265931339351
30
0
10
13.160190406400865
20
50.54119613592489
30
0
10
13.1730155302275
20
50.549735650220704
30
0
10
13.185846023419721
20
50.55827785631934
30
0
10
13.198681889217191
20
50.566822754261686
30
0
10
13.211523130861664
20
50.57537034409109
30
0
10
13.224369751596933
20
50.583920625853324
30
0
10
13.237221754668857
20
50.59247359959664
30
0
10
13.250079143325378
20
50.601029265371736
30
0
10
13.262941920816486
20
50.60958762323173
30
0
10
13.275810090394259
20
50.6181486732322
30
0
10
13.288683655312836
20
50.62671241543112
30
0
10
13.301562618828445
20
50.635278849888934
30
0
10
13.31444698419939
20
50.64384797666847
30
0
10
13.32733675468605
20
50.652419795834966
30
0
10
13.340231933550898
20
50.660994307456114
30
0
10
13.35313252405848
20
50.66957151160197
30
0
10
13.366038529475453
20
50.678151408345016
30
0
10
13.378949953070538
20
50.68673399776009
30
0
10
13.39186679811457
20
50.69531927992447
30
0
10
13.404789067880474
20
50.70390725491777
30
0
10
13.417716765643268
20
50.71249792282202
30
0
10
13.430649894680084
20
50.7210912837216
30
0
10
13.44358845827014
20
50.72968733770327
30
0
10
13.456532459694781
20
50.73828608485616
30
0
10
13.469481902237444
20
50.74688752527176
30
0
10
13.482436789183682
20
50.755491659043884
30
0
10
13.495397123821157
20
50.76409848626873
30
0
10
13.50836290943966
20
50.77270800704484
30
0
10
13.52133414933109
20
50.78132022147308
30
0
10
13.534310846789463
20
50.78993512965666
30
0
10
13.547293005110935
20
50.79855273170112
30
0
10
13.56028062759376
20
50.80717302771431
30
0
10
13.573273717538349
20
50.81579601780643
30
0
10
13.586272278247227
20
50.82442170208998
30
0
10
13.599276313025053
20
50.833050080679755
30
0
10
13.61228582517863
20
50.84168115369289
30
0
10
13.625300818016882
20
50.85031492124879
30
0
10
13.638321294850893
20
50.85895138346919
30
0
10
13.651347258993878
20
50.86759054047809
30
0
10
13.664378713761206
20
50.876232392401796
30
0
10
13.677415662470375
20
50.88487693936888
30
0
10
13.690458108441058
20
50.893524181510216
30
0
10
13.703506054995069
20
50.90217411895893
30
0
10
13.716559505456358
20
50.910826751850415
30
0
10
13.729618463151075
20
50.91948208032236
30
0
10
13.742682931407487
20
50.92814010451467
30
0
10
13.755752913556057
20
50.93680082456955
30
0
10
13.76882841292938
20
50.94546424063142
30
0
10
13.781909432862252
20
50.95413035284699
30
0
10
13.794995976691624
20
50.96279916136517
30
0
10
13.80808804775661
20
50.971470666337126
30
0
10
13.821185649398512
20
50.98014486791625
30
0
10
13.8342887849608
20
50.98882176625818
30
0
10
13.847397457789135
20
50.99750136152077
30
0
10
13.860511671231345
20
51.00618365386407
30
0
10
13.873631428637458
20
51.01486864345039
30
0
10
13.886756733359679
20
51.02355633044423
30
0
10
13.899887588752398
20
51.03224671501228
30
0
10
13.913023998172221
20
51.04093979732347
30
0
10
13.926165964977912
20
51.04963557754888
30
0
10
13.939313492530466
20
51.058334055861835
30
0
10
13.952466584193056
20
51.067035232437824
30
0
10
13.965625243331068
20
51.07573910745454
30
0
10
13.978789473312085
20
51.08444568109183
30
0
10
13.991959277505904
20
51.09315495353174
30
0
10
14.00513465928453
20
51.10186692495847
30
0
10
14.018315622022163
20
51.11058159555841
30
0
10
14.031502169095244
20
51.1192989655201
30
0
10
14.044694303882414
20
51.12801903503425
30
0
10
14.057892029764542
20
51.13674180429372
30
0
10
14.071095350124704
20
51.14546727349353
30
0
10
14.084304268348212
20
51.15419544283083
30
0
10
14.097518787822615
20
51.16292631250496
30
0
10
14.110738911937668
20
51.17165988271733
30
0
10
14.123964644085373
20
51.180396153671545
30
0
10
14.137195987659952
20
51.18913512557331
30
0
10
14.15043294605789
20
51.19787679863049
30
0
10
14.163675522677877
20
51.20662117305302
30
0
10
14.176923720920875
20
51.21536824905303
30
0
10
14.190177544190067
20
51.22411802684468
30
0
10
14.203436995890895
20
51.2328705066443
30
0
10
14.216702079431057
20
51.24162568867034
30
0
10
14.229972798220482
20
51.25038357314331
30
0
10
14.243249155671366
20
51.259144160285835
30
0
10
14.256531155198159
20
51.26790745032264
30
0
10
14.26981880021758
20
51.276673443480554
30
0
10
14.283112094148583
20
51.28544213998846
30
0
10
14.296411040412416
20
51.29421354007737
30
0
10
14.309715642432575
20
51.302987643980345
30
0
10
14.323025903634827
20
51.311764451932525
30
0
10
14.336341827447223
20
51.320543964171144
30
0
10
14.349663417300066
20
51.329326180935475
30
0
10
14.362990676625964
20
51.3381111024669
30
0
10
14.376323608859773
20
51.346898729008814
30
0
10
14.389662217438655
20
51.355689060806704
30
0
10
14.403006505802049
20
51.3644820981081
30
0
10
14.416356477391668
20
51.37327784116257
30
0
10
14.429712135651533
20
51.382076290221754
30
0
10
14.443073484027945
20
51.390877445539324
30
0
10
14.456440525969505
20
51.39968130737098
30
0
10
14.4698132649271
20
51.408487875974465
30
0
10
14.48319170435393
20
51.41729715160956
30
0
10
14.496575847705481
20
51.426109134538066
30
0
10
14.509965698439563
20
51.43492382502382
30
0
10
14.52336126001628
20
51.44374122333267
30
0
10
14.53676253589804
20
51.45256132973248
30
0
10
14.550169529549574
20
51.46138414449314
30
0
10
14.563582244437919
20
51.47020966788653
30
0
10
14.577000684032443
20
51.47903790018656
30
0
10
14.590424851804805
20
51.487868841669126
30
0
10
14.603854751229019
20
51.496702492612144
30
0
10
14.6172903857814
20
51.50553885329549
30
0
10
14.630731758940598
20
51.51437792400107
30
0
10
14.644178874187597
20
51.52321970501276
30
0
10
14.657631735005694
20
51.53206419661641
30
0
10
14.671090344880545
20
51.54091139909989
30
0
10
14.684554707300126
20
51.549761312753006
30
0
10
14.698024825754757
20
51.55861393786756
30
0
10
14.711500703737109
20
51.567469274737334
30
0
10
14.724982344742171
20
51.57632732365805
30
0
10
14.738469752267322
20
51.585188084927445
30
0
10
14.75196292981225
20
51.59405155884516
30
0
10
14.765461880879013
20
51.60291774571282
30
0
10
14.778966608972022
20
51.611786645834016
30
0
10
14.792477117598049
20
51.62065825951428
30
0
10
14.805993410266215
20
51.62953258706108
30
0
10
14.81951549048801
20
51.63840962878384
30
0
10
14.833043361777296
20
51.647289384993925
30
0
10
14.846577027650284
20
51.65617185600464
30
0
10
14.860116491625572
20
51.66505704213122
30
0
10
14.873661757224118
20
51.67394494369082
30
0
10
14.887212827969272
20
51.682835561002555
30
0
10
14.90076970738674
20
51.69172889438745
30
0
10
14.914332399004618
20
51.700624944168425
30
0
10
14.927900906353395
20
51.70952371067036
30
0
10
14.941475232965926
20
51.71842519422002
30
0
10
14.955055382377468
20
51.7273293951461
30
0
10
14.968641358125655
20
51.73623631377918
30
0
10
14.982233163750534
20
51.745145950451786
30
0
10
14.995830802794531
20
51.75405830549832
30
0
10
15.009434278802473
20
51.76297337925508
30
0
10
15.023043595321594
20
51.771891172060265
30
0
10
15.036658755901513
20
51.780811684253955
30
0
10
15.050279764094286
20
51.789734916178155
30
0
10
15.063906623454344
20
51.79866086817672
30
0
10
15.077539337538552
20
51.8075895405954
30
0
10
15.091177909906172
20
51.81652093378183
30
0
10
15.104822344118901
20
51.82545504808553
30
0
10
15.118472643740834
20
51.83439188385787
30
0
10
15.1321288123385
20
51.84333144145211
30
0
10
15.145790853480856
20
51.85227372122339
30
0
10
15.159458770739265
20
51.86121872352868
30
0
10
15.17313256768754
20
51.870166448726835
30
0
10
15.18681224790191
20
51.87911689717857
30
0
10
15.200497814961054
20
51.88807006924644
30
0
10
15.214189272446067
20
51.89702596529487
30
0
10
15.2278866239405
20
51.90598458569014
30
0
10
15.241589873030348
20
51.914945930800364
30
0
10
15.25529902330403
20
51.92391000099549
30
0
10
15.269014078352432
20
51.93287679664733
30
0
10
15.282735041768877
20
51.941846318129514
30
0
10
15.296461917149152
20
51.95081856581753
30
0
10
15.310194708091478
20
51.95979354008867
30
0
10
15.32393341819656
20
51.96877124132209
30
0
10
15.337678051067549
20
51.97775166989874
30
0
10
15.351428610310046
20
51.9867348262014
30
0
10
15.365185099532143
20
51.99572071061469
30
0
10
15.378947522344383
20
52.004709323525056
30
0
10
15.392715882359788
20
52.01370066532072
30
0
10
15.406490183193835
20
52.02269473639173
30
0
10
15.420270428464502
20
52.03169153712995
30
0
10
15.43405662179223
20
52.04069106792907
30
0
10
15.447848766799936
20
52.04969332918455
30
0
10
15.461646867113041
20
52.058698321293676
30
0
10
15.475450926359425
20
52.06770604465551
30
0
10
15.489260948169479
20
52.07671649967092
30
0
10
15.503076936176067
20
52.085729686742575
30
0
10
15.516898894014561
20
52.09474560627492
30
0
10
15.530726825322827
20
52.10376425867421
30
0
10
15.544560733741223
20
52.112785644348456
30
0
10
15.558400622912616
20
52.121809763707475
30
0
10
15.572246496482371
20
52.13083661716284
30
0
10
15.586098358098363
20
52.13986620512791
30
0
10
15.599956211410975
20
52.14889852801783
30
0
10
15.613820060073106
20
52.157933586249506
30
0
10
15.627689907740164
20
52.16697138024161
30
0
10
15.641565758070081
20
52.17601191041458
30
0
10
15.65544761472331
20
52.18505517719063
30
0
10
15.66933548136281
20
52.19410118099371
30
0
10
15.683229361654087
20
52.20314992224956
30
0
10
15.69712925926516
20
52.21220140138564
30
0
10
15.711035177866588
20
52.22125561883118
30
0
10
15.724947121131454
20
52.230312575017166
30
0
10
15.738865092735391
20
52.239372270376336
30
0
10
15.752789096356548
20
52.248434705343136
30
0
10
15.766719135675636
20
52.257499880353805
30
0
10
15.780655214375907
20
52.266567795846285
30
0
10
15.794597336143145
20
52.27563845226027
30
0
10
15.808545504665693
20
52.28471185003716
30
0
10
15.82249972363445
20
52.29378798962016
30
0
10
15.83645999674287
20
52.30286687145412
30
0
10
15.850426327686947
20
52.311948495985675
30
0
10
15.864398720165251
20
52.321032863663156
30
0
10
15.87837717787891
20
52.33011997493661
30
0
10
15.892361704531616
20
52.33920983025783
30
0
10
15.906352303829632
20
52.34830243008032
30
0
10
15.920348979481789
20
52.35739777485929
30
0
10
15.93435173519949
20
52.36649586505165
30
0
10
15.948360574696704
20
52.37559670111603
30
0
10
15.962375501690007
20
52.3847002835128
30
0
10
15.97639651989852
20
52.393806612703976
30
0
10
15.99042363304398
20
52.40291568915333
30
0
10
16.00445684485069
20
52.412027513326294
30
0
10
16.01849615904554
20
52.42114208569001
30
0
10
16.032541579358032
20
52.43025940671333
30
0
10
16.046593109520245
20
52.43937947686679
30
0
10
16.060650753266863
20
52.44850229662262
30
0
10
16.074714514335156
20
52.45762786645471
30
0
10
16.08878439646502
20
52.46675618683868
30
0
10
16.10286040339894
20
52.475887258251795
30
0
10
16.116942538882
20
52.485021081173024
30
0
10
16.131030806661926
20
52.49415765608302
30
0
10
16.14512521048902
20
52.503296983464075
30
0
10
16.159225754116232
20
52.512439063800194
30
0
10
16.173332441299106
20
52.521583897577045
30
0
10
16.18744527579582
20
52.530731485281954
30
0
10
16.201564261367178
20
52.539881827403924
30
0
10
16.215689401776604
20
52.549034924433634
30
0
10
16.22982070079016
20
52.558190776863405
30
0
10
16.243958162176522
20
52.567349385187214
30
0
10
16.258101789707016
20
52.576510749900706
30
0
10
16.2722515871556
20
52.58567487150118
30
0
10
16.28640755829888
20
52.59484175048762
30
0
10
16.300569706916104
20
52.604011387360615
30
0
10
16.314738036789148
20
52.613183782622414
30
0
10
16.328912551702558
20
52.62235893677694
30
0
10
16.34309325544352
20
52.63153685032973
30
0
10
16.357280151801884
20
52.64071752378799
30
0
10
16.371473244570133
20
52.649900957660535
30
0
10
16.38567253754344
20
52.659087152457836
30
0
10
16.399878034519613
20
52.66827610869201
30
0
10
16.414089739299143
20
52.677467826876786
30
0
10
16.428307655685188
20
52.68666230752755
30
0
10
16.442531787483556
20
52.695859551161284
30
0
10
16.45676213850276
20
52.70505955829664
30
0
10
16.470998712553957
20
52.71426232945387
30
0
10
16.485241513451008
20
52.72346786515483
30
0
10
16.499490545010435
20
52.73267616592305
30
0
10
16.513745811051454
20
52.74188723228363
30
0
10
16.528007315395968
20
52.75110106476331
30
0
10
16.54227506186857
20
52.76031766389045
30
0
10
16.55654905429654
20
52.769537030195
30
0
10
16.570829296509853
20
52.778759164208545
30
0
10
16.585115792341192
20
52.78798406646426
30
0
10
16.599408545625927
20
52.79721173749695
30
0
10
16.61370756020214
20
52.806442177843
30
0
10
16.628012839910614
20
52.81567538804041
30
0
10
16.64232438859484
20
52.824911368628776
30
0
10
16.65664221010103
20
52.834150120149296
30
0
10
16.670966308278096
20
52.84339164314476
30
0
10
16.685296686977686
20
52.85263593815958
30
0
10
16.699633350054135
20
52.8618830057397
30
0
10
16.713976301364536
20
52.8711328464327
30
0
10
16.728325544768694
20
52.88038546078776
30
0
10
16.74268108412913
20
52.88964084935561
30
0
10
16.757042923311122
20
52.89889901268858
30
0
10
16.771411066182647
20
52.90815995134059
30
0
10
16.785785516614457
20
52.91742366586715
30
0
10
16.80016627848001
20
52.92669015682531
30
0
10
16.814553355655526
20
52.93595942477373
30
0
10
16.828946752019963
20
52.94523147027264
30
0
10
16.84334647145502
20
52.954506293883824
30
0
10
16.857752517845164
20
52.96378389617067
30
0
10
16.8721648950776
20
52.9730642776981
30
0
10
16.88658360704229
20
52.98234743903264
30
0
10
16.901008657631962
20
52.99163338074234
30
0
10
16.915440050742106
20
53.00092210339686
30
0
10
16.92987779027096
20
53.01021360756738
30
0
10
16.94432188011955
20
53.01950789382666
30
0
10
16.958772324191667
20
53.028804962749035
30
0
10
16.97322912639386
20
53.03810481491035
30
0
10
16.98769229063547
20
53.04740745088803
30
0
10
17.00216182082861
20
53.05671287126108
30
0
10
17.016637720888177
20
53.06602107661
30
0
10
17.03111999473185
20
53.0753320675169
30
0
10
17.045608646280094
20
53.08464584456538
30
0
10
17.06010367945616
20
53.0939624083406
30
0
10
17.074605098186098
20
53.1032817594293
30
0
10
17.089112906398757
20
53.11260389841973
30
0
10
17.103627108025776
20
53.12192882590168
30
0
10
17.118147707001597
20
53.13125654246649
30
0
10
17.13267470726346
20
53.140587048707005
30
0
10
17.147208112751425
20
53.149920345217645
30
0
10
17.16174792740835
20
53.15925643259435
30
0
10
17.17629415517991
20
53.16859531143458
30
0
10
17.190846800014604
20
53.17793698233735
30
0
10
17.205405865863725
20
53.18728144590315
30
0
10
17.21997135668141
20
53.19662870273405
30
0
10
17.23454327642461
20
53.20597875343364
30
0
10
17.24912162905311
20
53.21533159860701
30
0
10
17.263706418529505
20
53.224687238860746
30
0
10
17.278297648819244
20
53.234045674803006
30
0
10
17.2928953238906
20
53.24340690704344
30
0
10
17.307499447714687
20
53.25277093619322
30
0
10
17.322110024265466
20
53.26213776286504
30
0
10
17.336727057519717
20
53.271507387673054
30
0
10
17.35135055145711
20
53.28087981123302
30
0
10
17.365980510060112
20
53.29025503416211
30
0
10
17.380616937314088
20
53.29963305707906
30
0
10
17.395259837207234
20
53.309013880604105
30
0
10
17.40990921373061
20
53.31839750535897
30
0
10
17.42456507087814
20
53.327783931966884
30
0
10
17.4392274126466
20
53.33717316105259
30
0
10
17.45389624303565
20
53.34656519324232
30
0
10
17.468571566047807
20
53.35596002916379
30
0
10
17.48325338568846
20
53.36535766944623
30
0
10
17.497941705965882
20
53.37475811472037
30
0
10
17.512636530891214
20
53.38416136561841
30
0
10
17.527337864478493
20
53.39356742277406
30
0
10
17.542045710744617
20
53.40297628682249
30
0
10
17.556760073709402
20
53.41238795840043
30
0
10
17.571480957395526
20
53.42180243814601
30
0
10
17.586208365828575
20
53.43121972669889
30
0
10
17.600942303037016
20
53.4406398247002
30
0
10
17.615682773052235
20
53.45006273279257
30
0
10
17.63042977990851
20
53.45948845162008
30
0
10
17.645183327643014
20
53.468916981828315
30
0
10
17.65994342029585
20
53.47834832406434
30
0
10
17.674710061909995
20
53.48778247897665
30
0
10
17.689483256531382
20
53.497219447215265
30
0
10
17.70426300820882
20
53.50665922943165
30
0
10
17.71904932099407
20
53.51610182627876
30
0
10
17.733842198941808
20
53.52554723841101
30
0
10
17.748641646109604
20
53.53499546648426
30
0
10
17.763447666557997
20
53.544446511155876
30
0
10
17.778260264350436
20
53.55390037308467
30
0
10
17.793079443553307
20
53.56335705293092
30
0
10
17.807905208235926
20
53.57281655135635
30
0
10
17.822737562470568
20
53.58227886902417
30
0
10
17.837576510332422
20
53.591744006599036
30
0
10
17.852422055899652
20
53.60121196474707
30
0
10
17.867274203253352
20
53.610682744135836
30
0
10
17.882132956477566
20
53.62015634543435
30
0
10
17.896998319659307
20
53.62963276931311
30
0
10
17.911870296888527
20
53.63911201644404
30
0
10
17.92674889225815
20
53.648594087500506
30
0
10
17.941634109864065
20
53.65807898315736
30
0
10
17.95652595380512
20
53.66756670409087
30
0
10
17.971424428183138
20
53.67705725097878
30
0
10
17.986329537102904
20
53.68655062450023
30
0
10
18.001241284672187
20
53.69604682533583
30
0
10
18.016159675001727
20
53.70554585416764
30
0
10
18.031084712205267
20
53.715047711679176
30
0
10
18.0460164003995
20
53.72455239855535
30
0
10
18.060954743704123
20
53.73405991548254
30
0
10
18.075899746241834
20
53.743570263148555
30
0
10
18.090851412138303
20
53.75308344224264
30
0
10
18.10580974552221
20
53.76259945345546
30
0
10
18.12077475052522
20
53.77211829747914
30
0
10
18.13574643128203
20
53.78163997500722
30
0
10
18.150724791930298
20
53.79116448673465
30
0
10
18.16570983661073
20
53.80069183335786
30
0
10
18.18070156946702
20
53.81022201557465
30
0
10
18.195699994645874
20
53.81975503408429
30
0
10
18.210705116297042
20
53.82929088958745
30
0
10
18.22571693857325
20
53.838829582786204
30
0
10
18.240735465630287
20
53.84837111438409
30
0
10
18.255760701626947
20
53.85791548508606
30
0
10
18.27079265072507
20
53.86746269559848
30
0
10
18.2858313170895
20
53.877012746629106
30
0
10
18.300876704888136
20
53.88656563888714
30
0
10
18.315928818291923
20
53.896121373083204
30
0
10
18.330987661474822
20
53.9056799499293
30
0
10
18.34605323861386
20
53.91524137013888
30
0
10
18.361125553889092
20
53.924805634426775
30
0
10
18.376204611483644
20
53.934372743509265
30
0
10
18.39129041558368
20
53.94394269810401
30
0
10
18.406382970378427
20
53.953515498930095
30
0
10
18.42148228006017
20
53.96309114670798
30
0
10
18.43658834882426
20
53.97266964215957
30
0
10
18.451701180869097
20
53.982250986008154
30
0
10
18.466820780396173
20
53.991835178978434
30
0
10
18.481947151610044
20
54.0014222217965
30
0
10
18.49708029871832
20
54.01101211518985
30
0
10
18.51222022593172
20
54.02060485988738
30
0
10
18.52736693746402
20
54.03020045661937
30
0
10
18.542520437532087
20
54.03979890611752
30
0
10
18.55768073035589
20
54.04940020911493
30
0
10
18.57284782015846
20
54.05900436634606
30
0
10
18.588021711165943
20
54.0686113785468
30
0
10
18.60320240760757
20
54.078221246454405
30
0
10
18.61838991371567
20
54.08783397080754
30
0
10
18.63358423372569
20
54.09744955234625
30
0
10
18.648785371876155
20
54.10706799181196
30
0
10
18.663993332408733
20
54.116689289947516
30
0
10
18.679208119568166
20
54.126313447497104
30
0
10
18.69442973760234
20
54.135940465206325
30
0
10
18.709658190762244
20
54.145570343822165
30
0
10
18.724893483301997
20
54.15520308409299
30
0
10
18.740135619478828
20
54.16483868676853
30
0
10
18.755384603553107
20
54.17447715259992
30
0
10
18.77064043978833
20
54.18411848233966
30
0
10
18.785903132451114
20
54.19376267674162
30
0
10
18.801172685811228
20
54.20340973656107
30
0
10
18.81644910414158
20
54.21305966255465
30
0
10
18.831732391718212
20
54.22271245548037
30
0
10
18.847022552820317
20
54.232368116097604
30
0
10
18.86231959173022
20
54.242026645167094
30
0
10
18.877623512733425
20
54.25168804345099
30
0
10
18.892934320118577
20
54.26135231171279
30
0
10
18.90825201817749
20
54.27101945071737
30
0
10
18.923576611205114
20
54.280689461230956
30
0
10
18.93890810349959
20
54.29036234402115
30
0
10
18.954246499362203
20
54.30003809985693
30
0
10
18.969591803097437
20
54.30971672950864
30
0
10
18.98494401901293
20
54.319398233747975
30
0
10
19.00030315141949
20
54.32908261334799
30
0
10
19.01566920463113
20
54.33876986908313
30
0
10
19.031042182965024
20
54.34846000172916
30
0
10
19.046422090741547
20
54.35815301206325
30
0
10
19.061808932284247
20
54.36784890086388
30
0
10
19.07720271191989
20
54.37754766891096
30
0
10
19.092603433978415
20
54.387249316985674
30
0
10
19.108011102792965
20
54.39695384587061
30
0
10
19.123425722699896
20
54.406661256349715
30
0
10
19.13884729803875
20
54.41637154920825
30
0
10
19.154275833152305
20
54.42608472523287
30
0
10
19.169711332386523
20
54.43580078521157
30
0
10
19.1851538000906
20
54.44551972993369
30
0
10
19.200603240616935
20
54.455241560189926
30
0
10
19.216059658321168
20
54.46496627677232
30
0
10
19.23152305756214
20
54.47469388047426
30
0
10
19.246993442701942
20
54.484424372090494
30
0
10
19.262470818105886
20
54.494157752417095
30
0
10
19.277955188142503
20
54.503894022251494
30
0
10
19.293446557183604
20
54.51363318239249
30
0
10
19.30894492960418
20
54.52337523364016
30
0
10
19.324450309782524
20
54.53312017679598
30
0
10
19.33996270210013
20
54.54286801266276
30
0
10
19.35548211094178
20
54.55261874204462
30
0
10
19.37100854069548
20
54.56237236574706
30
0
10
19.386541995752506
20
54.572128884576884
30
0
10
19.402082480507403
20
54.58188829934227
30
0
10
19.41762999935795
20
54.59165061085268
30
0
10
19.433184556705225
20
54.60141581991897
30
0
10
19.448746156953554
20
54.611183927353295
30
0
10
19.464314804510543
20
54.62095493396915
30
0
10
19.479890503787082
20
54.630728840581384
30
0
10
19.495473259197315
20
54.640505648006126
30
0
10
19.511063075158706
20
54.65028535706091
30
0
10
19.526659956091972
20
54.66006796856454
30
0
10
19.54226390642113
20
54.669853483337164
30
0
10
19.557874930573494
20
54.67964190220028
30
0
10
19.57349303297967
20
54.6894332259767
30
0
10
19.589118218073565
20
54.69922745549055
30
0
10
19.604750490292375
20
54.7090245915673
30
0
10
19.620389854076617
20
54.71882463503373
30
0
10
19.636036313870115
20
54.72862758671796
30
0
10
19.65168987412
20
54.73843344744943
30
0
10
19.667350539276708
20
54.748242218058884
30
0
10
19.683018313794015
20
54.75805389937842
30
0
10
19.69869320212901
20
54.76786849224143
30
0
10
19.714375208742094
20
54.777685997482635
30
0
10
19.730064338097023
20
54.78750641593808
30
0
10
19.745760594660855
20
54.79732974844513
30
0
10
19.761463982904
20
54.80715599584245
30
0
10
19.777174507300202
20
54.816985158970034
30
0
10
19.792892172326553
20
54.8268172386692
30
0
10
19.808616982463473
20
54.83665223578256
30
0
10
19.824348942194746
20
54.84649015115404
30
0
10
19.840088056007502
20
54.85633098562892
30
0
10
19.85583432839222
20
54.86617474005375
30
0
10
19.87158776384275
20
54.87602141527641
30
0
10
19.887348366856294
20
54.88587101214609
30
0
10
19.903116141933417
20
54.89572353151326
30
0
10
19.918891093578047
20
54.905578974229755
30
0
10
19.934673226297505
20
54.91543734114868
30
0
10
19.950462544602473
20
54.92529863312446
30
0
10
19.966259053006993
20
54.93516285101283
30
0
10
19.982062756028526
20
54.94502999567081
30
0
10
19.99787365818788
20
54.95490006795674
30
0
10
20.013691764009284
20
54.96477306873029
30
0
10
20.029517078020334
20
54.9746489988524
30
0
10
20.045349604752026
20
54.98452785918531
30
0
10
20.061189348738758
20
54.99440965059259
30
0
10
20.077036314518327
20
55.00429437393908
30
0
10
20.09289050663195
20
55.01418203009098
30
0
10
20.108751929624226
20
55.024072619915714
30
0
10
20.12462058804317
20
55.033966144282026
30
0
10
20.140496486440227
20
55.04386260406
30
0
10
20.156379629370257
20
55.053762000121
30
0
10
20.17227002139153
20
55.06366433333765
30
0
10
20.188167667065738
20
55.0735696045839
30
0
10
20.20407257095803
20
55.08347781473502
30
0
10
20.219984737636953
20
55.093388964667525
30
0
10
20.235904171674512
20
55.103303055259275
30
0
10
20.251830877646135
20
55.11322008738938
30
0
10
20.26776486013071
20
55.12314006193827
30
0
10
20.283706123710544
20
55.13306297978765
30
0
10
20.299654672971407
20
55.14298884182052
30
0
10
20.315610512502538
20
55.15291764892119
30
0
10
20.331573646896594
20
55.16284940197523
30
0
10
20.347544080749728
20
55.17278410186953
30
0
10
20.36352181866153
20
55.18272174949225
30
0
10
20.37950686523507
20
55.19266234573285
30
0
10
20.395499225076872
20
55.20260589148206
30
0
10
20.411498902796954
20
55.21255238763191
30
0
10
20.42750590300879
20
55.22250183507572
30
0
10
20.443520230329337
20
55.232454234708065
30
0
10
20.45954188937905
20
55.24240958742485
30
0
10
20.475570884781852
20
55.252367894123246
30
0
10
20.49160722116517
20
55.26232915570169
30
0
10
20.507650903159906
20
55.27229337305992
30
0
10
20.523701935400474
20
55.28226054709895
30
0
10
20.53976032252479
20
55.29223067872109
30
0
10
20.555826069174255
20
55.302203768829905
30
0
10
20.571899179993803
20
55.31217981833027
30
0
10
20.587979659631856
20
55.32215882812832
30
0
10
20.604067512740365
20
55.33214079913147
30
0
10
20.62016274397478
20
55.34212573224842
30
0
10
20.636265357994095
20
55.35211362838914
30
0
10
20.65237535946081
20
55.36210448846488
30
0
10
20.668492753040955
20
55.37209831338817
30
0
10
20.68461754340411
20
55.38209510407283
30
0
10
20.700749735223354
20
55.39209486143391
30
0
10
20.71688933317535
20
55.4020975863878
30
0
10
20.73303634194026
20
55.412103279852104
30
0
10
20.749190766201817
20
55.42211194274573
30
0
10
20.765352610647287
20
55.432123575988854
30
0
10
20.78152187996751
20
55.44213818050293
30
0
10
20.797698578856856
20
55.452155757210676
30
0
10
20.81388271201327
20
55.46217630703608
30
0
10
20.830074284138256
20
55.47219983090441
30
0
10
20.84627329993688
20
55.48222632974218
30
0
10
20.862479764117786
20
55.49225580447721
30
0
10
20.87869368139318
20
55.50228825603856
30
0
10
20.894915056478858
20
55.51232368535657
30
0
10
20.911143894094185
20
55.522362093362844
30
0
10
20.92738019896212
20
55.532403480990276
30
0
10
20.943623975809206
20
55.542447849173
30
0
10
20.95987522936557
20
55.552495198846415
30
0
10
20.976133964364937
20
55.5625455309472
30
0
10
20.992400185544632
20
55.572598846413285
30
0
10
21.00867389764559
20
55.58265514618388
30
0
10
21.024955105412328
20
55.592714431199454
30
0
10
21.041243813592992
20
55.602776702401734
30
0
10
21.057540026939343
20
55.61284196073372
30
0
10
21.073843750206734
20
55.62291020713965
30
0
10
21.09015498815416
20
55.632981442565054
30
0
10
21.10647374554422
20
55.6430556679567
30
0
10
21.122800027143175
20
55.65313288426266
30
0
10
21.139133837720866
20
55.6632130924322
30
0
10
21.155475182050804
20
55.67329629341589
30
0
10
21.17182406491012
20
55.68338248816554
30
0
10
21.188180491079596
20
55.69347167763424
30
0
10
21.20454446534366
20
55.703563862776335
30
0
10
21.22091599249038
20
55.71365904454743
30
0
10
21.237295077311476
20
55.723757223904336
30
0
10
21.25368172460232
20
55.73385840180518
30
0
10
21.270075939161956
20
55.74396257920934
30
0
10
21.286477725793084
20
55.75406975707744
30
0
10
21.302887089302057
20
55.76417993637133
30
0
10
21.319304034498924
20
55.77429311805416
30
0
10
21.335728566197375
20
55.78440930309031
30
0
10
21.352160689214816
20
55.79452849244544
30
0
10
21.368600408372302
20
55.80465068708643
30
0
10
21.385047728494584
20
55.81477588798143
30
0
10
21.401502654410088
20
55.82490409609983
30
0
10
21.417965190950948
20
55.83503531241227
30
0
10
21.434435342952998
20
55.84516953789069
30
0
10
21.450913115255748
20
55.855306773508225
30
0
10
21.46739851270243
20
55.86544702023928
30
0
10
21.483891540139968
20
55.875590279059516
30
0
10
21.500392202419004
20
55.88573655094582
30
0
10
21.516900504393885
20
55.89588583687636
30
0
10
21.5334164509227
20
55.90603813783056
30
0
10
21.549940046867228
20
55.91619345478906
30
0
10
21.566471297092978
20
55.92635178873374
30
0
10
21.583010206469208
20
55.93651314064778
30
0
10
21.599556779868887
20
55.946677511515574
30
0
10
21.616111022168724
20
55.95684490232274
30
0
10
21.63267293824916
20
55.967015314056184
30
0
10
21.64924253299441
20
55.97718874770405
30
0
10
21.665819811292394
20
55.9873652042557
30
0
10
21.682404778034805
20
55.99754468470178
30
0
10
21.69899743811709
20
56.00772719003415
30
0
10
21.715597796438445
20
56.017912721245935
30
0
10
21.73220585790184
20
56.0281012793315
30
0
10
21.74882162741399
20
56.038292865286444
30
0
10
21.7654451098854
20
56.0484874801076
30
0
10
21.782076310230327
20
56.05868512479307
30
0
10
21.798715233366824
20
56.0688858003422
30
0
10
21.815361884216717
20
56.079089507755555
30
0
10
21.832016267705598
20
56.08929624803493
30
0
10
21.848678388762877
20
56.099506022183405
30
0
10
21.865348252321727
20
56.10971883120527
30
0
10
21.88202586331914
20
56.119934676106084
30
0
10
21.898711226695884
20
56.130153557892605
30
0
10
21.915404347396553
20
56.14037547757286
30
0
10
21.93210523036952
20
56.150600436156104
30
0
10
21.948813880566988
20
56.16082843465285
30
0
10
21.965530302944977
20
56.17105947407482
30
0
10
21.982254502463302
20
56.181293555435005
30
0
10
21.99898648408562
20
56.19153067974761
30
0
10
22.0157262527794
20
56.20177084802809
30
0
10
22.032473813515946
20
56.21201406129312
30
0
10
22.04922917127039
20
56.22226032056064
30
0
10
22.065992331021707
20
56.23250962684981
30
0
10
22.082763297752713
20
56.24276198118104
30
0
10
22.099542076450064
20
56.25301738457597
30
0
10
22.11632867210425
20
56.26327583805744
30
0
10
22.133123089709628
20
56.27353734264957
30
0
10
22.149925334264417
20
56.283801899377714
30
0
10
22.166735410770677
20
56.29406950926844
30
0
10
22.183553324234335
20
56.30434017334956
30
0
10
22.200379079665208
20
56.31461389265012
30
0
10
22.21721268207694
20
56.324890668200396
30
0
10
22.234054136487092
20
56.335170501031904
30
0
10
22.25090344791707
20
56.34545339217738
30
0
10
22.267760621392192
20
56.35573934267082
30
0
10
22.28462566194163
20
56.366028353547414
30
0
10
22.301498574598476
20
56.37632042584362
30
0
10
22.318379364399686
20
56.38661556059711
30
0
10
22.335268036386132
20
56.39691375884677
30
0
10
22.352164595602595
20
56.40721502163277
30
0
10
22.369069047097742
20
56.417519349996475
30
0
10
22.385981395924166
20
56.42782674498048
30
0
10
22.402901647138346
20
56.4381372076286
30
0
10
22.419829805800706
20
56.44845073898591
30
0
10
22.436765876975578
20
56.45876734009872
30
0
10
22.453709865731213
20
56.46908701201452
30
0
10
22.470661777139814
20
56.47940975578208
30
0
10
22.48762161627748
20
56.489735572451366
30
0
10
22.504589388224275
20
56.50006446307359
30
0
10
22.52156509806419
20
56.5103964287012
30
0
10
22.538548750885163
20
56.520731470387844
30
0
10
22.555540351779076
20
56.53106958918843
30
0
10
22.572539905841765
20
56.54141078615906
30
0
10
22.589547418173034
20
56.55175506235711
30
0
10
22.606562893876617
20
56.562102418841135
30
0
10
22.623586338060246
20
56.57245285667095
30
0
10
22.6406177558356
20
56.58280637690759
30
0
10
22.65765715231832
20
56.593162980613286
30
0
10
22.674704532628034
20
56.60352266885153
30
0
10
22.69175990188836
20
56.61388544268704
30
0
10
22.70882326522688
20
56.624251303185744
30
0
10
22.725894627775183
20
56.63462025141483
30
0
10
22.742973994668837
20
56.644992288442666
30
0
10
22.760061371047385
20
56.655367415338844
30
0
10
22.77715676205441
20
56.66574563317423
30
0
10
22.79426017283746
20
56.676126943020876
30
0
10
22.811371608548118
20
56.686511345952056
30
0
10
22.82849107434195
20
56.69689884304229
30
0
10
22.845618575378566
20
56.707289435367315
30
0
10
22.862754116821584
20
56.717683124004104
30
0
10
22.879897703838633
20
56.72807991003083
30
0
10
22.897049341601374
20
56.738479794526874
30
0
10
22.914209035285502
20
56.74888277857289
30
0
10
22.931376790070747
20
56.759288863250724
30
0
10
22.94855261114087
20
56.76969804964344
30
0
10
22.96573650368368
20
56.78011033883535
30
0
10
22.982928472891047
20
56.79052573191197
30
0
10
23.00012852395886
20
56.800944229960045
30
0
10
23.017336662087093
20
56.81136583406754
30
0
10
23.03455289247975
20
56.82179054532363
30
0
10
23.051777220344928
20
56.832218364818736
30
0
10
23.069009650894763
20
56.84264929364449
30
0
10
23.086250189345478
20
56.85308333289373
30
0
10
23.103498840917375
20
56.86352048366056
30
0
10
23.120755610834806
20
56.873960747040236
30
0
10
23.138020504326242
20
56.88440412412929
30
0
10
23.15529352662421
20
56.89485061602545
30
0
10
23.172574682965358
20
56.90530022382769
30
0
10
23.189863978590406
20
56.915752948636175
30
0
10
23.207161418744175
20
56.926208791552305
30
0
10
23.22446700867559
20
56.936667753678684
30
0
10
23.24178075363769
20
56.94712983611916
30
0
10
23.259102658887628
20
56.957595039978784
30
0
10
23.276432729686658
20
56.96806336636384
30
0
10
23.293770971300162
20
56.978534816381824
30
0
10
23.311117388997637
20
56.98900939114144
30
0
10
23.32847198805273
20
56.999487091752634
30
0
10
23.34583477374319
20
57.009967919326556
30
0
10
23.363205751350915
20
57.02045187497558
30
0
10
23.38058492616196
20
57.0309389598133
30
0
10
23.39797230346648
20
57.041429174954516
30
0
10
23.41536788855883
20
57.05192252151527
30
0
10
23.432771686737468
20
57.0624190006128
30
0
10
23.450183703305047
20
57.072918613365566
30
0
10
23.46760394356836
20
57.083421360893276
30
0
10
23.48503241283837
20
57.09392724431681
30
0
10
23.502469116430202
20
57.104436264758284
30
0
10
23.51991405966316
20
57.11494842334104
30
0
10
23.53736724786073
20
57.12546372118963
30
0
10
23.554828686350557
20
57.13598215942984
30
0
10
23.572298380464506
20
57.14650373918865
30
0
10
23.5897763355386
20
57.15702846159427
30
0
10
23.60726255691307
20
57.16755632777614
30
0
10
23.624757049932338
20
57.17808733886488
30
0
10
23.64225981994504
20
57.18862149599236
30
0
10
23.65977087230399
20
57.199158800291634
30
0
10
23.677290212366245
20
57.209699252897025
30
0
10
23.694817845493063
20
57.220242854944026
30
0
10
23.712353777049906
20
57.230789607569356
30
0
10
23.72989801240648
20
57.24133951191097
30
0
10
23.74745055693671
20
57.25189256910803
30
0
10
23.765011416018748
20
57.26244878030091
30
0
10
23.782580595034982
20
57.27300814663119
30
0
10
23.80015809937205
20
57.2835706692417
30
0
10
23.817743934420825
20
57.29413634927646
30
0
10
23.83533810557641
20
57.304705187880685
30
0
10
23.852940618238204
20
57.31527718620087
30
0
10
23.870551477809812
20
57.32585234538467
30
0
10
23.88817068969913
20
57.33643066658096
30
0
10
23.905798259318324
20
57.347012150939875
30
0
10
23.9234341920838
20
57.35759679961271
30
0
10
23.941078493416263
20
57.36818461375201
30
0
10
23.958731168740677
20
57.378775594511524
30
0
10
23.976392223486307
20
57.389369743046224
30
0
10
23.994061663086683
20
57.39996706051229
30
0
10
24.01173949297965
20
57.410567548067135
30
0
10
24.029425718607325
20
57.421171206869374
30
0
10
24.047120345416126
20
57.43177803807882
30
0
10
24.064823378856783
20
57.442388042856514
30
0
10
24.08253482438433
20
57.45300122236473
30
0
10
24.100254687458108
20
57.46361757776695
30
0
10
24.117982973541782
20
57.47423711022785
30
0
10
24.135719688103343
20
57.48485982091336
30
0
10
24.153464836615075
20
57.49548571099058
30
0
10
24.171218424553626
20
57.50611478162786
30
0
10
24.188980457399957
20
57.51674703399474
30
0
10
24.206750940639367
20
57.52738246926199
30
0
10
24.224529879761505
20
57.53802108860159
30
0
10
24.242317280260362
20
57.54866289318675
30
0
10
24.26011314763429
20
57.55930788419189
30
0
10
24.277917487385956
20
57.5699560627926
30
0
10
24.29573030502244
20
57.580607430165756
30
0
10
24.313551606055157
20
57.59126198748942
30
0
10
24.331381395999884
20
57.60191973594285
30
0
10
24.34921968037679
20
57.61258067670655
30
0
10
24.367066464710387
20
57.6232448109622
30
0
10
24.38492175452961
20
57.633912139892736
30
0
10
24.402785555367743
20
57.64458266468228
30
0
10
24.42065787276249
20
57.65525638651621
30
0
10
24.43853871225591
20
57.665933306581046
30
0
10
24.4564280793945
20
57.67661342606459
30
0
10
24.474325979729134
20
57.68729674615583
30
0
10
24.4922324188151
20
57.697983268044986
30
0
10
24.51014740221211
20
57.708672992923475
30
0
10
24.52807093548426
20
57.719365921983936
30
0
10
24.546003024200104
20
57.73006205642022
30
0
10
24.56394367393259
20
57.74076139742741
30
0
10
24.581892890259105
20
57.751463946201774
30
0
10
24.59985067876148
20
57.76216970394081
30
0
10
24.617817045025966
20
57.772878671843245
30
0
10
24.635791994643267
20
57.783590851109
30
0
10
24.653775533208528
20
57.79430624293922
30
0
10
24.671767666321347
20
57.80502484853627
30
0
10
24.689768399585784
20
57.81574666910373
30
0
10
24.70777773861035
20
57.82647170584641
30
0
10
24.72579568900803
20
57.837199959970285
30
0
10
24.74382225639625
20
57.84793143268258
30
0
10
24.76185744639695
20
57.85866612519175
30
0
10
24.77990126463651
20
57.86940403870744
30
0
10
24.797953716745816
20
57.8801451744405
30
0
10
24.816014808360237
20
57.89088953360305
30
0
10
24.834084545119627
20
57.90163711740837
30
0
10
24.85216293266833
20
57.91238792707098
30
0
10
24.870249976655213
20
57.92314196380663
30
0
10
24.888345682733622
20
57.93389922883224
30
0
10
24.90645005656142
20
57.94465972336598
30
0
10
24.924563103800995
20
57.95542344862724
30
0
10
24.942684830119227
20
57.966190405836606
30
0
10
24.960815241187543
20
57.97696059621589
30
0
10
24.978954342681885
20
57.98773402098812
30
0
10
24.99710214028274
20
57.99851068137755
30
0
10
25.01525863967511
20
58.00929057860964
30
0
10
25.033423846548544
20
58.020073713911046
30
0
10
25.051597766597165
20
58.0308600885097
30
0
10
25.06978040551959
20
58.041649703634675
30
0
10
25.087971769019042
20
58.052442560516326
30
0
10
25.10617186280327
20
58.06323866038618
30
0
10
25.1243806925846
20
58.074038004477
30
0
10
25.142598264079925
20
58.08484059402277
30
0
10
25.160824583010708
20
58.09564643025868
30
0
10
25.179059655102996
20
58.10645551442115
30
0
10
25.197303486087396
20
58.11726784774779
30
0
10
25.215556081699123
20
58.128083431477464
30
0
10
25.233817447677975
20
58.13890226685022
30
0
10
25.25208758976835
20
58.149724355107345
30
0
10
25.270366513719235
20
58.16054969749135
30
0
10
25.28865422528423
20
58.17137829524593
30
0
10
25.30695073022154
20
58.18221014961603
30
0
10
25.325256034293986
20
58.1930452618478
30
0
10
25.343570143269012
20
58.20388363318862
30
0
10
25.36189306291867
20
58.214725264887065
30
0
10
25.380224799019658
20
58.225570158192944
30
0
10
25.398565357353288
20
58.23641831435729
30
0
10
25.41691474370552
20
58.24726973463233
30
0
10
25.435272963866954
20
58.25812442027154
30
0
10
25.45364002363283
20
58.26898237252959
30
0
10
25.47201592880305
20
58.27984359266239
30
0
10
25.490400685182156
20
58.29070808192704
30
0
10
25.50879429857937
20
58.3015758415819
30
0
10
25.527196774808555
20
58.31244687288651
30
0
10
25.545608119688254
20
58.32332117710165
30
0
10
25.5640283390417
20
58.33419875548932
30
0
10
25.58245743869678
20
58.34507960931274
30
0
10
25.600895424486072
20
58.35596373983633
30
0
10
25.619342302246835
20
58.36685114832573
30
0
10
25.63779807782105
20
58.377741836047846
30
0
10
25.656262757055362
20
58.38863580427077
30
0
10
25.674736345801136
20
58.399533054263806
30
0
10
25.693218849914434
20
58.41043358729749
30
0
10
25.711710275256028
20
58.421337404643566
30
0
10
25.73021062769142
20
58.43224450757503
30
0
10
25.74871991309083
20
58.44315489736608
30
0
10
25.767238137329194
20
58.454068575292126
30
0
10
25.78576530628618
20
58.46498554262981
30
0
10
25.804301425846198
20
58.475905800657
30
0
10
25.82284650189839
20
58.486829350652776
30
0
10
25.84140054033665
20
58.49775619389744
30
0
10
25.85996354705962
20
58.50868633167252
30
0
10
25.878535527970694
20
58.51961976526077
30
0
10
25.89711648897802
20
58.53055649594616
30
0
10
25.915706435994515
20
58.54149652501386
30
0
10
25.934305374937864
20
58.55243985375031
30
0
10
25.952913311730523
20
58.56338648344314
30
0
10
25.971530252299733
20
58.57433641538121
30
0
10
25.990156202577513
20
58.58528965085461
30
0
10
26.008791168500668
20
58.59624619115465
30
0
10
26.027435156010796
20
58.607206037573846
30
0
10
26.046088171054294
20
58.618169191405975
30
0
10
26.06475021958237
20
58.629135653946015
30
0
10
26.083421307551003
20
58.64010542649013
30
0
10
26.102101440921047
20
58.651078510335815
30
0
10
26.120790625658106
20
58.66205490678166
30
0
10
26.139488867732638
20
58.67303461712757
30
0
10
26.158196173119936
20
58.68401764267464
30
0
10
26.176912547800097
20
58.69500398472518
30
0
10
26.19563799775808
20
58.70599364458277
30
0
10
26.214372528983667
20
58.71698662355217
30
0
10
26.233116147471502
20
58.7279829229394
30
0
10
26.251868859221055
20
58.73898254405166
30
0
10
26.270630670236674
20
58.74998548819742
30
0
10
26.289401586527557
20
58.76099175668635
30
0
10
26.308181614107763
20
58.77200135082936
30
0
10
26.326970758996243
20
58.783014271938605
30
0
10
26.345769027216793
20
58.79403052132742
30
0
10
26.36457642479811
20
58.8050501003104
30
0
10
26.38339295777375
20
58.816073010203354
30
0
10
26.402218632182198
20
58.827099252323336
30
0
10
26.421053454066804
20
58.8381288279886
30
0
10
26.439897429475828
20
58.84916173851866
30
0
10
26.45875056446243
20
58.86019798523423
30
0
10
26.477612865084673
20
58.87123756945726
30
0
10
26.49648433740555
20
58.88228049251093
30
0
10
26.515364987492966
20
58.89332675571968
30
0
10
26.534254821419747
20
58.90437636040912
30
0
10
26.55315384526366
20
58.915429307906145
30
0
10
26.572062065107385
20
58.92648559953884
30
0
10
26.59097948703856
20
58.93754523663654
30
0
10
26.609906117149745
20
58.94860822052978
30
0
10
26.62884196153847
20
58.95967455255036
30
0
10
26.647787026307213
20
58.97074423403132
30
0
10
26.66674131756343
20
58.98181726630692
30
0
10
26.685704841419486
20
58.992893650712595
30
0
10
26.704677603992767
20
59.00397338858509
30
0
10
26.723659611405626
20
59.015056481262356
30
0
10
26.74265086978537
20
59.02614293008356
30
0
10
26.76165138526431
20
59.037232736389115
30
0
10
26.78066116397974
20
59.048325901520656
30
0
10
26.799680212073948
20
59.05942242682106
30
0
10
26.818708535694224
20
59.07052231363443
30
0
10
26.837746140992852
20
59.08162556330611
30
0
10
26.85679303412714
20
59.09273217718267
30
0
10
26.875849221259394
20
59.10384215661192
30
0
10
26.89491470855696
20
59.1149555029429
30
0
10
26.913989502192187
20
59.12607221752588
30
0
10
26.933073608342465
20
59.13719230171237
30
0
10
26.952167033190207
20
59.148315756855105
30
0
10
26.971269782922885
20
59.15944258430808
30
0
10
26.990381863732996
20
59.170572785426494
30
0
10
27.009503281818102
20
59.1817063615668
30
0
10
27.02863404338081
20
59.192843314086694
30
0
10
27.047774154628794
20
59.2039836443451
30
0
10
27.06692362177478
20
59.21512735370215
30
0
10
27.08608245103657
20
59.22627444351926
30
0
10
27.105250648637067
20
59.23742491515906
30
0
10
27.124428220804198
20
59.2485787699854
30
0
10
27.14361517377103
20
59.25973600936341
30
0
10
27.16281151377569
20
59.270896634659415
30
0
10
27.18201724706142
20
59.28206064724102
30
0
10
27.201232379876547
20
59.293228048477026
30
0
10
27.220456918474497
20
59.304398839737495
30
0
10
27.239690869113836
20
59.31557302239372
30
0
10
27.258934238058217
20
59.32675059781825
30
0
10
27.278187031576426
20
59.33793156738484
30
0
10
27.297449255942393
20
59.349115932468536
30
0
10
27.31672091743514
20
59.36030369444557
30
0
10
27.336002022338878
20
59.371494854693466
30
0
10
27.355292576942908
20
59.38268941459094
30
0
10
27.374592587541716
20
59.39388737551799
30
0
10
27.393902060434915
20
59.40508873885582
30
0
10
27.413221001927294
20
59.4162935059869
30
0
10
27.432549418328804
20
59.42750167829493
30
0
10
27.451887315954536
20
59.438713257164856
30
0
10
27.471234701124807
20
59.44992824398289
30
0
10
27.49059158016506
20
59.461146640136434
30
0
10
27.509957959405963
20
59.47236844701419
30
0
10
27.52933384518333
20
59.48359366600605
30
0
10
27.548719243838224
20
59.494822298503216
30
0
10
27.568114161716842
20
59.50605434589805
30
0
10
27.587518605170647
20
59.517289809584234
30
0
10
27.606932580556286
20
59.52852869095667
30
0
10
27.62635609423562
20
59.5397709914115
30
0
10
27.64578915257573
20
59.551016712346104
30
0
10
27.66523176194893
20
59.562265855159126
30
0
10
27.684683928732763
20
59.57351842125045
30
0
10
27.70414565931
20
59.5847744120212
30
0
10
27.723616960068668
20
59.59603382887374
30
0
10
27.74309783740203
20
59.60729667321171
30
0
10
27.7625882977086
20
59.618562946439965
30
0
10
27.782088347392172
20
59.629832649964634
30
0
10
27.801597992861772
20
59.64110578519308
30
0
10
27.821117240531724
20
59.65238235353393
30
0
10
27.840646096821594
20
59.66366235639703
30
0
10
27.86018456815626
20
59.67494579519352
30
0
10
27.87973266096587
20
59.68623267133575
30
0
10
27.899290381685848
20
59.69752298623733
30
0
10
27.91885773675693
20
59.70881674131312
30
0
10
27.938434732625154
20
59.72011393797925
30
0
10
27.958021375741865
20
59.73141457765309
30
0
10
27.9776176725637
20
59.74271866175325
30
0
10
27.997223629552643
20
59.75402619169961
30
0
10
28.016839253175966
20
59.765337168913284
30
0
10
28.036464549906295
20
59.776651594816656
30
0
10
28.056099526221598
20
59.78796947083337
30
0
10
28.075744188605135
20
59.79929079838828
30
0
10
28.09539854354556
20
59.810615578907544
30
0
10
28.115062597536845
20
59.82194381381854
30
0
10
28.13473635707833
20
59.83327550454994
30
0
10
28.154419828674712
20
59.8446106525316
30
0
10
28.174113018836056
20
59.85594925919473
30
0
10
28.193815934077797
20
59.86729132597171
30
0
10
28.21352858092074
20
59.87863685429622
30
0
10
28.233250965891088
20
59.889985845603185
30
0
10
28.252983095520406
20
59.90133830132877
30
0
10
28.27272497634568
20
59.912694222910446
30
0
10
28.292476614909273
20
59.92405361178688
30
0
10
28.312238017758958
20
59.935416469398035
30
0
10
28.332009191447934
20
59.94678279718514
30
0
10
28.351790142534778
20
59.95815259659065
30
0
10
28.371580877583536
20
59.969525869058316
30
0
10
28.39138140316364
20
59.98090261603312
30
0
10
28.411191725849967
20
59.992282838961316
30
0
10
28.431011852222838
20
60.00366653929042
30
0
10
28.450841788867997
20
60.01505371846919
30
0
10
28.470681542376653
20
60.02644437794767
30
0
10
28.490531119345466
20
60.03783851917715
30
0
10
28.510390526376572
20
60.04923614361022
30
0
10
28.530259770077524
20
60.06063725270067
30
0
10
28.550138857061402
20
60.072041847903606
30
0
10
28.570027793946707
20
60.08344993067536
30
0
10
28.589926587357475
20
60.094861502473556
30
0
10
28.609835243923182
20
60.10627656475707
30
0
10
28.629753770278832
20
60.117695118986035
30
0
10
28.649682173064907
20
60.12911716662186
30
0
10
28.669620458927394
20
60.14054270912721
30
0
10
28.689568634517798
20
60.15197174796603
30
0
10
28.709526706493136
20
60.16340428460353
30
0
10
28.729494681515945
20
60.17484032050618
30
0
10
28.749472566254283
20
60.186279857141706
30
0
10
28.769460367381747
20
60.19772289597912
30
0
10
28.789458091577472
20
60.20916943848869
30
0
10
28.80946574552613
20
60.22061948614198
30
0
10
28.829483335917953
20
60.232073040411784
30
0
10
28.849510869448697
20
60.24353010277217
30
0
10
28.869548352819734
20
60.25499067469852
30
0
10
28.889595792737943
20
60.26645475766744
30
0
10
28.909653195915816
20
60.27792235315682
30
0
10
28.92972056907139
20
60.28939346264582
30
0
10
28.94979791892831
20
60.30086808761489
30
0
10
28.969885252215814
20
60.31234622954572
30
0
10
28.989982575668698
20
60.32382788992129
30
0
10
29.010089896027395
20
60.33531307022586
30
0
10
29.03020722003792
20
60.346801771944946
30
0
10
29.05033455445192
20
60.35829399656536
30
0
10
29.070471906026643
20
60.36978974557517
30
0
10
29.090619281524962
20
60.38128902046372
30
0
10
29.1107766877154
20
60.392791822721655
30
0
10
29.13094413137208
20
60.40429815384085
30
0
10
29.151121619274786
20
60.4158080153145
30
0
10
29.17130915820894
20
60.427321408637034
30
0
10
29.191506754965626
20
60.438838335304204
30
0
10
29.21171441634157
20
60.450358796813006
30
0
10
29.231932149139183
20
60.46188279466173
30
0
10
29.25215996016652
20
60.47341033034993
30
0
10
29.27239785623733
20
60.48494140537847
30
0
10
29.292645844171034
20
60.49647602124944
30
0
10
29.31290393079274
20
60.50801417946628
30
0
10
29.33317212293326
20
60.519555881533655
30
0
10
29.353450427429074
20
60.53110112895752
30
0
10
29.37373885112241
20
60.54264992324514
30
0
10
29.394037400861166
20
60.55420226590504
30
0
10
29.414346083498963
20
60.56575815844699
30
0
10
29.43466490589517
20
60.57731760238212
30
0
10
29.454993874914855
20
60.5888805992228
30
0
10
29.475332997428833
20
60.60044715048268
30
0
10
29.495682280313652
20
60.61201725767672
30
0
10
29.51604173045162
20
60.62359092232114
30
0
10
29.53641135473076
20
60.63516814593345
30
0
10
29.556791160044888
20
60.64674893003244
30
0
10
29.577181153293576
20
60.65833327613821
30
0
10
29.597581341382146
20
60.66992118577213
30
0
10
29.617991731221714
20
60.68151266045686
30
0
10
29.63841232972916
20
60.693107701716336
30
0
10
29.658843143827177
20
60.70470631107582
30
0
10
29.679284180444217
20
60.7163084900618
30
0
10
29.699735446514545
20
60.72791424020212
30
0
10
29.720196948978252
20
60.73952356302588
30
0
10
29.740668694781192
20
60.75113646006345
30
0
10
29.76115069087508
20
60.762752932846546
30
0
10
29.781642944217435
20
60.77437298290814
30
0
10
29.802145461771595
20
60.785996611782494
30
0
10
29.822658250506734
20
60.797623821005146
30
0
10
29.84318131739788
20
60.80925461211297
30
0
10
29.863714669425903
20
60.82088898664412
30
0
10
29.884258313577515
20
60.83252694613802
30
0
10
29.904812256845304
20
60.844168492135424
30
0
10
29.9253765062277
20
60.85581362617835
30
0
10
29.945951068729023
20
60.86746234981014
30
0
10
29.966535951359443
20
60.879114664575376
30
0
10
29.98713116113504
20
60.89077057202
30
0
10
30.007736705077765
20
60.90243007369123
30
0
10
30.02835259021547
20
60.91409317113758
30
0
10
30.04897882358192
20
60.92575986590885
30
0
10
30.069615412216756
20
60.937430159556165
30
0
10
30.090262363165554
20
60.94910405363191
30
0
10
30.1109196834798
20
60.96078154968982
30
0
10
30.13158738021692
20
60.97246264928489
30
0
10
30.15226546044024
20
60.984147353973434
30
0
10
30.172953931219045
20
60.99583566531305
30
0
10
30.19365279962857
20
61.00752758486267
30
0
10
30.214362072749967
20
61.01922311418249
30
0
10
30.23508175767038
20
61.030922254834024
30
0
10
30.255811861482883
20
61.042625008380114
30
0
10
30.276552391286558
20
61.05433137638489
30
0
10
30.297303354186404
20
61.06604136041375
30
0
10
30.318064757293453
20
61.07775496203346
30
0
10
30.338836607724684
20
61.08947218281204
30
0
10
30.3596189126031
20
61.10119302431887
30
0
10
30.380411679057683
20
61.11291748812457
30
0
10
30.40121491422341
20
61.12464557580111
30
0
10
30.422028625241296
20
61.13637728892178
30
0
10
30.44285281925835
20
61.14811262906113
30
0
10
30.463687503427614
20
61.159851597795075
30
0
10
30.484532684908157
20
61.17159419670079
30
0
10
30.505388370865088
20
61.1833404273568
30
0
10
30.526254568469557
20
61.19509029134292
30
0
10
30.54713128489874
20
61.20684379024026
30
0
10
30.5680185273359
20
61.21860092563128
30
0
10
30.588916302970347
20
61.23036169909974
30
0
10
30.609824618997447
20
61.242126112230686
30
0
10
30.63074348261865
20
61.253894166610515
30
0
10
30.65167290104147
20
61.26566586382689
30
0
10
30.672612881479548
20
61.277441205468875
30
0
10
30.693563431152572
20
61.289220193126766
30
0
10
30.714524557286357
20
61.30100282839221
30
0
10
30.735496267112783
20
61.312789112858155
30
0
10
30.756478567869884
20
61.32457904811888
30
0
10
30.777471466801796
20
61.33637263576998
30
0
10
30.79847497115876
20
61.34816987740837
30
0
10
30.819489088197187
20
61.35997077463228
30
0
10
30.84051382517958
20
61.371775329041256
30
0
10
30.861549189374614
20
61.38358354223617
30
0
10
30.88259518805709
20
61.39539541581921
30
0
10
30.903651828507993
20
61.40721095139389
30
0
10
30.924719118014426
20
61.41903015056504
30
0
10
30.945797063869716
20
61.430853014938826
30
0
10
30.966885673373316
20
61.44267954612271
30
0
10
30.987984953830875
20
61.45450974572551
30
0
10
31.009094912554232
20
61.46634361535734
30
0
10
31.030215556861428
20
61.47818115662966
30
0
10
31.051346894076694
20
61.49002237115526
30
0
10
31.07248893153045
20
61.50186726054823
30
0
10
31.093641676559365
20
61.513715826424
30
0
10
31.1148051365063
20
61.52556807039933
30
0
10
31.13597931872034
20
61.537423994092315
30
0
10
31.157164230556813
20
61.54928359912235
30
0
10
31.178359879377286
20
61.56114688711018
30
0
10
31.199566272549568
20
61.57301385967789
30
0
10
31.220783417447713
20
61.584884518448895
30
0
10
31.242011321452043
20
61.5967588650479
30
0
10
31.263249991949138
20
61.608636901101
30
0
10
31.284499436331846
20
61.62051862823557
30
0
10
31.305759661999303
20
61.63240404808036
30
0
10
31.327030676356898
20
61.64429316226541
30
0
10
31.348312486816365
20
61.65618597242215
30
0
10
31.369605100795688
20
61.6680824801833
30
0
10
31.39090852571916
20
61.67998268718292
30
0
10
31.412222769017408
20
61.691886595056445
30
0
10
31.433547838127367
20
61.7037942054406
30
0
10
31.454883740492257
20
61.71570551997345
30
0
10
31.476230483561686
20
61.72762054029443
30
0
10
31.497588074791558
20
61.7395392680443
30
0
10
31.518956521644125
20
61.75146170486512
30
0
10
31.54033583158801
20
61.76338785240036
30
0
10
31.561726012098173
20
61.77531771229481
30
0
10
31.583127070655944
20
61.78725128619456
30
0
10
31.604539014749
20
61.79918857574707
30
0
10
31.62596185187142
20
61.81112958260113
30
0
10
31.647395589523665
20
61.823074308406916
30
0
10
31.668840235212556
20
61.83502275481588
30
0
10
31.69029579645137
20
61.84697492348091
30
0
10
31.711762280759697
20
61.858930816056116
30
0
10
31.733239695663613
20
61.870890434197065
30
0
10
31.754728048695565
20
61.88285377956062
30
0
10
31.77622734739446
20
61.894820853805
30
0
10
31.797737599305602
20
61.90679165858976
30
0
10
31.819258811980724
20
61.9187661955758
30
0
10
31.840790992978032
20
61.93074446642541
30
0
10
31.86233414986217
20
61.94272647280219
30
0
10
31.883888290204222
20
61.9547122163711
30
0
10
31.905453421581758
20
61.96670169879846
30
0
10
31.92702955157881
20
61.97869492175194
30
0
10
31.948616687785844
20
61.99069188690053
30
0
10
31.970214837799876
20
62.00269259591462
30
0
10
31.99182400922439
20
62.01469705046594
30
0
10
32.01344420966932
20
62.02670525222755
30
0
10
32.03507544675118
20
62.0387172028739
30
0
10
32.0567177280929
20
62.05073290408074
30
0
10
32.07837106132403
20
62.06275235752527
30
0
10
32.10003545408057
20
62.07477556488597
30
0
10
32.121710914005064
20
62.086802527842686
30
0
10
32.14339744874662
20
62.09883324807666
30
0
10
32.16509506596086
20
62.11086772727046
30
0
10
32.18680377330996
20
62.122905967108025
30
0
10
32.208523578462675
20
62.13494796927465
30
0
10
32.23025448909429
20
62.146993735456995
30
0
10
32.2519965128867
20
62.15904326734309
30
0
10
32.273749657528334
20
62.1710965666223
30
0
10
32.29551393071424
20
62.18315363498539
30
0
10
32.31728934014605
20
62.195214474124455
30
0
10
32.339075893531984
20
62.207279085732985
30
0
10
32.36087359858687
20
62.21934747150581
30
0
10
32.382682463032154
20
62.23141963313914
30
0
10
32.4045024945959
20
62.24349557233055
30
0
10
32.4263337010128
20
62.25557529077898
30
0
10
32.44817609002417
20
62.26765879018475
30
0
10
32.47002966937798
20
62.27974607224952
30
0
10
32.49189444682883
20
62.29183713867637
30
0
10
32.513770430137996
20
62.303931991169705
30
0
10
32.53565762707338
20
62.31603063143529
30
0
10
32.55755604540957
20
62.32813306118031
30
0
10
32.579465692927855
20
62.3402392821133
30
0
10
32.60138657741615
20
62.35234929594415
30
0
10
32.62331870666911
20
62.36446310438415
30
0
10
32.64526208848808
20
62.37658070914598
30
0
10
32.667216730681055
20
62.38870211194364
30
0
10
32.68918264106281
20
62.40082731449253
30
0
10
32.71115982745477
20
62.41295631850945
30
0
10
32.73314829768514
20
62.42508912571256
30
0
10
32.755148059588834
20
62.43722573782141
30
0
10
32.777159121007486
20
62.449366156556884
30
0
10
32.79918148978952
20
62.46151038364132
30
0
10
32.82121517379005
20
62.47365842079837
30
0
10
32.84326018087102
20
62.48581026975313
30
0
10
32.86531651890106
20
62.49796593223199
30
0
10
32.88738419575564
20
62.510125409962804
30
0
10
32.90946321931697
20
62.52228870467476
30
0
10
32.93155359747407
20
62.53445581809846
30
0
10
32.95365533812275
20
62.54662675196589
30
0
10
32.97576844916561
20
62.55880150801039
30
0
10
32.99789293851208
20
62.57098008796673
30
0
10
33.02002881407838
20
62.58316249357104
30
0
10
33.042176083787574
20
62.59534872656084
30
0
10
33.06433475556954
20
62.60753878867504
30
0
10
33.086504837361
20
62.61973268165393
30
0
10
33.10868633710552
20
62.63193040723921
30
0
10
33.130879262753524
20
62.644131967173976
30
0
10
33.153083622262294
20
62.656337363202674
30
0
10
33.17529942359595
20
62.66854659707118
30
0
10
33.19752667472554
20
62.68075967052675
30
0
10
33.21976538362893
20
62.692976585318036
30
0
10
33.24201555829094
20
62.70519734319511
30
0
10
33.26427720670321
20
62.71742194590938
30
0
10
33.28655033686436
20
62.72965039521371
30
0
10
33.308834956779855
20
62.74188269286232
30
0
10
33.3311310744621
20
62.754118840610836
30
0
10
33.35343869793045
20
62.7663588402163
30
0
10
33.37575783521113
20
62.77860269343713
30
0
10
33.39808849433738
20
62.79085040203317
30
0
10
33.420430683349316
20
62.80310196776564
30
0
10
33.44278441029406
20
62.81535739239718
30
0
10
33.46514968322567
20
62.82761667769184
30
0
10
33.48752651020515
20
62.83987982541502
30
0
10
33.509914899300526
20
62.852146837333585
30
0
10
33.53231485858677
20
62.864417715215765
30
0
10
33.55472639614587
20
62.876692460831215
30
0
10
33.577149520066776
20
62.888971075951
30
0
10
33.59958423844549
20
62.901253562347584
30
0
10
33.622030559384974
20
62.91353992179483
30
0
10
33.64448849099525
20
62.92583015606802
30
0
10
33.66695804139335
20
62.93812426694384
30
0
10
33.68943921870334
20
62.9504222562004
30
0
10
33.71193203105635
20
62.962724125617214
30
0
10
33.7344364865905
20
62.9750298769752
30
0
10
33.75695259345103
20
62.98733951205667
30
0
10
33.77948035979022
20
62.999653032645405
30
0
10
33.802019793767386
20
63.01197044052653
30
0
10
33.824570903549
20
63.024291737486664
30
0
10
33.847133697308536
20
63.03661692531375
30
0
10
33.86970818322663
20
63.048946005797234
30
0
10
33.89229436949096
20
63.061278980727906
30
0
10
33.914892264296384
20
63.073615851898055
30
0
10
33.937501875844795
20
63.0859566211013
30
0
10
33.96012321234528
20
63.09830129013277
30
0
10
33.98275628201401
20
63.110649860788925
30
0
10
34.005401093074305
20
63.123002334867714
30
0
10
34.02805765375666
20
63.135358714168476
30
0
10
34.05072597229868
20
63.147719000491975
30
0
10
34.07340605694515
20
63.160083195640404
30
0
10
34.096097915948036
20
63.17245130141736
30
0
10
34.118801557566464
20
63.18482331962792
30
0
10
34.14151699006674
20
63.19719925207852
30
0
10
34.16424422172239
20
63.20957910057707
30
0
10
34.18698326081412
20
63.22196286693291
30
0
10
34.20973411562983
20
63.234350552956776
30
0
10
34.232496794464645
20
63.24674216046084
30
0
10
34.25527130562092
20
63.25913769125871
30
0
10
34.27805765740823
20
63.27153714716543
30
0
10
34.3008558581434
20
63.28394052999748
30
0
10
34.32366591615049
20
63.29634784157278
30
0
10
34.346487839760805
20
63.308759083710655
30
0
10
34.36932163731292
20
63.32117425823188
30
0
10
34.39216731715268
20
63.33359336695865
30
0
10
34.4150248876332
20
63.346016411714636
30
0
10
34.43789435711489
20
63.358443394324915
30
0
10
34.46077573396543
20
63.370874316615996
30
0
10
34.48366902655981
20
63.38330918041584
30
0
10
34.50657424328033
20
63.39574798755386
30
0
10
34.529491392516604
20
63.40819073986087
30
0
10
34.552420482665575
20
63.420637439169184
30
0
10
34.57536152213147
20
63.433088087312484
30
0
10
34.59831451932593
20
63.44554268612596
30
0
10
34.62127948266788
20
63.45800123744621
30
0
10
34.64425642058364
20
63.47046374311131
30
0
10
34.667245341506835
20
63.482930204960724
30
0
10
34.69024625387852
20
63.49540062483541
30
0
10
34.71325916614708
20
63.50787500457776
30
0
10
34.73628408676833
20
63.52035334603162
30
0
10
34.75932102420543
20
63.53283565104226
30
0
10
34.782369986928956
20
63.54532192145642
30
0
10
34.80543098341691
20
63.55781215912229
30
0
10
34.82850402215472
20
63.57030636588953
30
0
10
34.85158911163516
20
63.582804543609186
30
0
10
34.87468626035853
20
63.595306694133846
30
0
10
34.89779547683252
20
63.6078128193175
30
0
10
34.920916769572266
20
63.62032292101557
30
0
10
34.94405014710041
20
63.63283700108503
30
0
10
34.96719561794697
20
63.645355061384194
30
0
10
34.9903531906495
20
63.65787710377289
30
0
10
35.01352287375302
20
63.670403130112405
30
0
10
35.03670467581001
20
63.68293314226547
30
0
10
35.0598986053805
20
63.695467142096305
30
0
10
35.083104671031975
20
63.70800513147057
30
0
10
35.10632288133944
20
63.72054711225537
30
0
10
35.129553244885415
20
63.73309308631929
30
0
10
35.15279577025999
20
63.74564305553241
30
0
10
35.17605046606073
20
63.75819702176622
30
0
10
35.199317340892776
20
63.770754986893714
30
0
10
35.222596403368804
20
63.78331695278931
30
0
10
35.24588766210908
20
63.79588292132896
30
0
10
35.269191125741415
20
63.80845289439003
30
0
10
35.29250680290115
20
63.821026873851345
30
0
10
35.31583470223129
20
63.83360486159323
30
0
10
35.339174832382405
20
63.846186859497514
30
0
10
35.36252720201264
20
63.858772869447435
30
0
10
35.385891819787766
20
63.87136289332772
30
0
10
35.409268694381154
20
63.883956933024585
30
0
10
35.43265783447381
20
63.8965549904257
30
0
10
35.456059248754386
20
63.90915706742024
30
0
10
35.47947294591916
20
63.92176316589883
30
0
10
35.502898934672054
20
63.93437328775358
30
0
10
35.52633722372463
20
63.94698743487808
30
0
10
35.54978782179616
20
63.9596056091674
30
0
10
35.57325073761355
20
63.972227812518064
30
0
10
35.59672597991141
20
63.98485404682815
30
0
10
35.620213557432024
20
63.99748431399713
30
0
10
35.64371347892537
20
64.01011861592599
30
0
10
35.66722575314914
20
64.02275695451722
30
0
10
35.69075038886876
20
64.0353993316748
30
0
10
35.71428739485732
20
64.04804574930414
30
0
10
35.73783677989571
20
64.06069620931218
30
0
10
35.76139855277251
20
64.07335071360737
30
0
10
35.78497272228406
20
64.08600926409957
30
0
10
35.80855929723447
20
64.0986718627002
30
0
10
35.83215828643556
20
64.11133851132212
30
0
10
35.855769698706986
20
64.12400921187974
30
0
10
35.87939354287618
20
64.13668396628891
30
0
10
35.90302982777832
20
64.14936277646699
30
0
10
35.92667856225638
20
64.16204564433282
30
0
10
35.95033975516118
20
64.17473257180677
30
0
10
35.974013415351344
20
64.18742356081069
30
0
10
35.99769955169329
20
64.20011861326789
30
0
10
36.02139817306129
20
64.21281773110323
30
0
10
36.04510928833745
20
64.22552091624306
30
0
10
36.0688329064117
20
64.23822817061517
30
0
10
36.09256903618186
20
64.25093949614894
30
0
10
36.11631768655359
20
64.2636548947752
30
0
10
36.140078866440476
20
64.27637436842629
30
0
10
36.16385258476385
20
64.28909791903601
30
0
10
36.18763885045307
20
64.30182554853974
30
0
10
36.21143767244534
20
64.31455725887433
30
0
10
36.23524905968577
20
64.32729305197813
30
0
10
36.259073021127385
20
64.34003292979102
30
0
10
36.282909565731124
20
64.35277689425435
30
0
10
36.306758702465864
20
64.36552494731099
30
0
10
36.33062044030844
20
64.37827709090534
30
0
10
36.354494788243606
20
64.39103332698332
30
0
10
36.37838175526407
20
64.4037936574923
30
0
10
36.40228135037055
20
64.41655808438125
30
0
10
36.4261935825717
20
64.4293266096006
30
0
10
36.450118460884156
20
64.44209923510226
30
0
10
36.47405599433256
20
64.45487596283975
30
0
10
36.498006191949536
20
64.46765679476803
30
0
10
36.52196906277574
20
64.4804417328436
30
0
10
36.54594461585981
20
64.49323077902449
30
0
10
36.569932860258476
20
64.50602393527025
30
0
10
36.5939338050364
20
64.51882120354189
30
0
10
36.617947459266375
20
64.53162258580204
30
0
10
36.641973832029194
20
64.54442808401478
30
0
10
36.66601293241375
20
64.55723770014576
30
0
10
36.69006476951699
20
64.5700514361621
30
0
10
36.71412935244389
20
64.5828692940325
30
0
10
36.738206690307585
20
64.59569127572716
30
0
10
36.762296792229264
20
64.6085173832178
30
0
10
36.786399667338245
20
64.62134761847769
30
0
10
36.8105153247719
20
64.63418198348158
30
0
10
36.834643773675786
20
64.64702048020584
30
0
10
36.85878502320357
20
64.65986311062828
30
0
10
36.88293908251704
20
64.67270987672829
30
0
10
36.907105960786176
20
64.6855607804868
30
0
10
36.93128566718903
20
64.69841582388624
30
0
10
36.95547821091191
20
64.7112750089106
30
0
10
36.979683601149254
20
64.72413833754541
30
0
10
37.003901847103684
20
64.73700581177773
30
0
10
37.028132957986
20
64.74987743359614
30
0
10
37.052376943015204
20
64.76275320499074
30
0
10
37.07663381141854
20
64.77563312795326
30
0
10
37.100903572431456
20
64.7885172044769
30
0
10
37.12518623529762
20
64.80140543655642
30
0
10
37.14948180926891
20
64.81429782618811
30
0
10
37.173790303605486
20
64.82719437536983
30
0
10
37.198111727575736
20
64.84009508610093
30
0
10
37.222446090456316
20
64.85299996038239
30
0
10
37.2467934015322
20
64.86590900021669
30
0
10
37.27115367009654
20
64.87882220760784
30
0
10
37.29552690545087
20
64.89173958456144
30
0
10
37.31991311690497
20
64.9046611330846
30
0
10
37.34431231377696
20
64.91758685518603
30
0
10
37.368724505393246
20
64.93051675287596
30
0
10
37.39314970108857
20
64.94345082816615
30
0
10
37.41758791020601
20
64.95638908306998
30
0
10
37.442039142097
20
64.96933151960233
30
0
10
37.4665034061213
20
64.98227813977967
30
0
10
37.49098071164703
20
64.99522894562
30
0
10
37.5
20
65.0
30
0
0
ENDSEC
0
EOF
