0
SECTION
2
ENTITIES
0
LWPOLYLINE
90
500
10
0.0
20
47.175793356584485
10
0.0751503006012024
20
47.175793356584485
10
0.1503006012024048
20
47.17580423825668
10
0.2254509018036072
20
47.17588059287944
10
0.3006012024048096
20
47.17605466565404
10
0.375751503006012
20
47.176351417329755
10
0.4509018036072144
20
47.17679174929475
10
0.5260521042084167
20
47.177393886743154
10
0.6012024048096192
20
47.17817411994791
10
0.6763527054108215
20
47.179147253879925
10
0.751503006012024
20
47.18032690362122
10
0.8266533066132263
20
47.181725699628096
10
0.9018036072144288
20
47.1833554363508
10
0.9769539078156312
20
47.18522718327037
10
1.0521042084168335
20
47.18735136991409
10
1.127254509018036
20
47.18973785222847
10
1.2024048096192383
20
47.19239596521878
10
1.2775551102204408
20
47.19533456523617
10
1.352705410821643
20
47.19856206431071
10
1.4278557114228456
20
47.202086458275325
10
1.503006012024048
20
47.205915349979165
10
1.5781563126252502
20
47.210055968575496
10
1.6533066132264527
20
47.2145151856453
10
1.7284569138276553
20
47.219299528753844
10
1.8036072144288575
20
47.22441519291576
10
1.87875751503006
20
47.22986805035209
10
1.9539078156312624
20
47.23566365885253
10
2.029058116232465
20
47.241807269000915
10
2.104208416833667
20
47.248303830479
10
2.1793587174348694
20
47.25515799762897
10
2.254509018036072
20
47.26237413442718
10
2.3296593186372743
20
47.269956318998815
10
2.4048096192384767
20
47.27790834778406
10
2.479959919839679
20
47.28623373945063
10
2.5551102204408815
20
47.29493573863374
10
2.6302605210420844
20
47.30401731957328
10
2.705410821643286
20
47.31348118970753
10
2.780561122244489
20
47.32332979327411
10
2.8557114228456912
20
47.33356531496105
10
2.9308617234468937
20
47.34418968364359
10
3.006012024048096
20
47.35520457623645
10
3.0811623246492985
20
47.36661142168519
10
3.1563126252505005
20
47.378411405115585
10
3.231462925851703
20
47.39060547215487
10
3.3066132264529053
20
47.40319433343475
10
3.3817635270541078
20
47.41617846928212
10
3.4569138276553106
20
47.429558134599894
10
3.532064128256513
20
47.44333336393725
10
3.607214428857715
20
47.45750397674584
10
3.6823647294589175
20
47.47206958281582
10
3.75751503006012
20
47.48702958788345
10
3.8326653306613223
20
47.50238319940007
10
3.9078156312625247
20
47.51812943245052
10
3.982965931863727
20
47.53426711580768
10
4.05811623246493
20
47.550794898108684
10
4.133266533066132
20
47.5677112541374
10
4.208416833667334
20
47.58501449119701
10
4.283567134268536
20
47.60270275555616
10
4.358717434869739
20
47.620774038951744
10
4.433867735470941
20
47.639226185131314
10
4.509018036072144
20
47.658056896418145
10
4.584168336673346
20
47.67726374028228
10
4.6593186372745485
20
47.69684415590109
10
4.734468937875751
20
47.71679546069349
10
4.809619238476953
20
47.73711485681241
10
4.884769539078156
20
47.75779943758095
10
4.959919839679358
20
47.77884619385819
10
5.035070140280561
20
47.8002520203217
10
5.110220440881763
20
47.82201372165438
10
5.1853707414829655
20
47.84412801862443
10
5.260521042084169
20
47.86659155404798
10
5.3356713426853695
20
47.889400898624956
10
5.410821643286572
20
47.912552556639746
10
5.485971943887775
20
47.936042971519036
10
5.561122244488978
20
47.95986853124027
10
5.63627254509018
20
47.98402557358506
10
5.7114228456913825
20
48.00851039123268
10
5.786573146292585
20
48.03331923668981
10
5.861723446893787
20
48.05844832705332
10
5.93687374749499
20
48.08389384860381
10
6.012024048096192
20
48.1096519612284
10
6.087174348697395
20
48.13571880267176
10
6.162324649298597
20
48.162090492615256
10
6.2374749498997994
20
48.188763136584534
10
6.312625250501001
20
48.215732829686566
10
6.387775551102203
20
48.24299566017749
10
6.462925851703406
20
48.27054771286334
10
6.538076152304608
20
48.298385072335826
10
6.613226452905811
20
48.32650382604605
10
6.688376753507013
20
48.35490006721915
10
6.7635270541082155
20
48.38356989761322
10
6.838677354709418
20
48.41250943012617
10
6.913827655310621
20
48.44171479125431
10
6.988977955911824
20
48.47118212340673
10
7.064128256513026
20
48.50090758707955
10
7.1392785571142285
20
48.53088736289454
10
7.21442885771543
20
48.56111765350617
10
7.2895791583166325
20
48.591594685381914
10
7.364729458917835
20
48.62231471045996
10
7.439879759519037
20
48.65327400768913
10
7.51503006012024
20
48.6844688844553
10
7.590180360721442
20
48.71589567789897
10
7.665330661322645
20
48.74755075612839
10
7.740480961923847
20
48.779430519332635
10
7.8156312625250495
20
48.81153140079906
10
7.890781563126252
20
48.84384986783937
10
7.965931863727454
20
48.87638242262848
10
8.041082164328657
20
48.9091256029604
10
8.11623246492986
20
48.942075982925
10
8.191382765531062
20
48.975230173509686
10
8.266533066132263
20
49.00858482312982
10
8.341683366733466
20
49.04213661809142
10
8.416833667334668
20
49.07588228298988
10
8.491983967935871
20
49.109818581048145
10
8.567134268537073
20
49.1439423143976
10
8.642284569138276
20
49.17825032430501
10
8.717434869739478
20
49.21273949134857
10
8.792585170340681
20
49.247406735546036
10
8.867735470941883
20
49.28224901643786
10
8.942885771543086
20
49.31726333312805
10
9.018036072144287
20
49.35244672428541
10
9.09318637274549
20
49.387796268107685
10
9.168336673346692
20
49.42330908225104
10
9.243486973947894
20
49.458982323727156
10
9.318637274549097
20
49.494813188770195
10
9.3937875751503
20
49.53079891267568
10
9.468937875751502
20
49.56693676961334
10
9.544088176352705
20
49.603224072415806
10
9.619238476953907
20
49.639658172344944
10
9.69438877755511
20
49.676236458837614
10
9.769539078156312
20
49.712956359232386
10
9.844689378757515
20
49.749815338478875
10
9.919839679358716
20
49.78681089883108
10
9.99498997995992
20
49.82394057952613
10
10.070140280561121
20
49.8612019564498
10
10.145290581162325
20
49.89859264178994
10
10.220440881763526
20
49.93611028367911
10
10.29559118236473
20
49.97375256582745
10
10.370741482965931
20
50.01151720714681
10
10.445891783567134
20
50.04940196136718
10
10.521042084168338
20
50.087404616646324
10
10.596192384769537
20
50.12552299517348
10
10.671342685370739
20
50.16375495276794
10
10.746492985971942
20
50.202098378473245
10
10.821643286573144
20
50.240551194147834
10
10.896793587174347
20
50.27911135405263
10
10.97194388777555
20
50.31777684443638
10
11.047094188376752
20
50.3565456831192
10
11.122244488977955
20
50.39541591907496
10
11.197394789579157
20
50.43438563201298
10
11.27254509018036
20
50.473452931959535
10
11.347695390781562
20
50.51261595883956
10
11.422845691382765
20
50.55187288205909
10
11.497995991983966
20
50.59122190008867
10
11.57314629258517
20
50.630661240048205
10
11.648296593186371
20
50.670189157293514
10
11.723446893787575
20
50.70980393500492
10
11.798597194388776
20
50.74950388377815
10
11.87374749498998
20
50.78928734121778
10
11.948897795591181
20
50.82915267153355
10
12.024048096192384
20
50.8690982651396
10
12.099198396793586
20
50.90912253825701
10
12.17434869739479
20
50.949223932519686
10
12.249498997995993
20
50.98940091458384
10
12.324649298597194
20
51.02965197574114
10
12.399799599198397
20
51.06997563153576
10
12.474949899799599
20
51.11037042138535
10
12.5501002004008
20
51.15083490820606
10
12.625250501002002
20
51.19136767804181
10
12.700400801603205
20
51.2319673396977
10
12.775551102204407
20
51.272632524377826
10
12.85070140280561
20
51.31336188532744
10
12.925851703406812
20
51.35415409747953
10
13.001002004008015
20
51.395007857105945
10
13.076152304609217
20
51.435921881472964
10
13.15130260521042
20
51.47689490850144
10
13.226452905811621
20
51.517925696431554
10
13.301603206412825
20
51.55901302349206
10
13.376753507014026
20
51.60015568757421
10
13.45190380761523
20
51.64135250591025
10
13.527054108216431
20
51.68260231475648
10
13.602204408817634
20
51.72390396908094
10
13.677354709418836
20
51.765256342255654
10
13.75250501002004
20
51.80665832575343
10
13.827655310621243
20
51.84810882884923
10
13.902805611222444
20
51.88960677832601
10
13.977955911823647
20
51.93115111818515
10
14.053106212424849
20
51.972740809361206
10
14.128256513026052
20
52.01437482944122
10
14.203406813627254
20
52.05605217238839
10
14.278557114228457
20
52.09777184827005
10
14.353707414829659
20
52.13953288299006
10
14.42885771543086
20
52.18133431802542
10
14.504008016032062
20
52.223175210167156
10
14.579158316633265
20
52.265054631265365
10
14.654308617234467
20
52.30697166797846
10
14.72945891783567
20
52.34892542152649
10
14.804609218436871
20
52.39091500744853
10
14.879759519038075
20
52.43293955536409
10
14.954909819639276
20
52.47499820873844
10
15.03006012024048
20
52.51709012465193
10
15.105210420841681
20
52.559214473573086
10
15.180360721442884
20
52.60137043913557
10
15.255511022044086
20
52.64355721791888
10
15.33066132264529
20
52.68577401923276
10
15.405811623246493
20
52.72802006490527
10
15.480961923847694
20
52.77029458907446
10
15.556112224448897
20
52.81259683798358
10
15.631262525050099
20
52.85492606977982
10
15.706412825651302
20
52.897281554316486
10
15.781563126252504
20
52.93966257295855
10
15.856713426853707
20
52.98206841839157
10
15.931863727454909
20
53.02449839443392
10
16.007014028056112
20
53.0669518158522
10
16.082164328657313
20
53.10942800817991
10
16.157314629258515
20
53.15192630753921
10
16.23246492985972
20
53.194446060465815
10
16.30761523046092
20
53.23698662373687
10
16.382765531062123
20
53.27954736420188
10
16.457915831663325
20
53.32212765861656
10
16.533066132264526
20
53.36472689347954
10
16.608216432865728
20
53.407344464871976
10
16.683366733466933
20
53.44997977829991
10
16.758517034068134
20
53.492632248539415
10
16.833667334669336
20
53.53530129948441
10
16.908817635270537
20
53.57798636399717
10
16.983967935871743
20
53.62068688376142
10
17.059118236472944
20
53.663402309138
10
17.134268537074146
20
53.706132099023066
10
17.20941883767535
20
53.74887572070876
10
17.284569138276552
20
53.79163264974631
10
17.359719438877754
20
53.83440236981155
10
17.434869739478955
20
53.87718437257274
10
17.51002004008016
20
53.91997815756078
10
17.585170340681362
20
53.96278323204158
10
17.660320641282564
20
54.00559911089078
10
17.735470941883765
20
54.04842531647055
10
17.81062124248497
20
54.09126137850863
10
17.88577154308617
20
54.134106833979416
10
17.960921843687373
20
54.17696122698718
10
18.036072144288575
20
54.21982410865125
10
18.11122244488978
20
54.26269503699328
10
18.18637274549098
20
54.30557357682639
10
18.261523046092183
20
54.348459299646336
10
18.336673346693384
20
54.391351783524506
10
18.411823647294586
20
54.43425061300277
10
18.486973947895788
20
54.477155378990204
10
18.562124248496993
20
54.520065678661595
10
18.637274549098194
20
54.56298111535765
10
18.712424849699396
20
54.60590129848702
10
18.7875751503006
20
54.64882584342996
10
18.862725450901802
20
54.691754371443686
10
18.937875751503004
20
54.73468650956934
10
19.013026052104205
20
54.777621890540615
10
19.08817635270541
20
54.82056015269387
10
19.163326653306612
20
54.863500939879884
10
19.238476953907814
20
54.90644390137707
10
19.313627254509015
20
54.9493886918062
10
19.38877755511022
20
54.99233497104662
10
19.46392785571142
20
55.03528240415383
10
19.539078156312623
20
55.07823066127859
10
19.614228456913825
20
55.12117941758728
10
19.68937875751503
20
55.164128353183735
10
19.76452905811623
20
55.20707715303235
10
19.839679358717433
20
55.25002550688251
10
19.914829659318638
20
55.292973109194314
10
19.98997995991984
20
55.335919659065574
10
20.06513026052104
20
55.37886486016002
10
20.140280561122243
20
55.421808420636765
10
20.215430861723448
20
55.464750053080934
10
20.29058116232465
20
55.50768947443548
10
20.36573146292585
20
55.550626405934146
10
20.440881763527052
20
55.59356057303558
10
20.516032064128257
20
55.63649170535854
10
20.59118236472946
20
55.67941953661817
10
20.66633266533066
20
55.72234380456341
10
20.741482965931862
20
55.765264250915386
10
20.816633266533067
20
55.80818062130689
10
20.89178356713427
20
55.85109266522283
10
20.96693386773547
20
55.89400013594171
10
21.042084168336675
20
55.936902790478065
10
21.117234468937877
20
55.97980038952585
10
21.192384769539075
20
56.022692697402796
10
21.267535070140276
20
56.065579481995684
10
21.342685370741478
20
56.1084605147065
10
21.417835671342683
20
56.15133557039952
10
21.492985971943884
20
56.19420442734923
10
21.568136272545086
20
56.237066867189164
10
21.643286573146288
20
56.279922674861524
10
21.718436873747493
20
56.32277163856767
10
21.793587174348694
20
56.365613549719406
10
21.868737474949896
20
56.40844820289106
10
21.9438877755511
20
56.451275395772385
10
22.019038076152302
20
56.494094929122184
10
22.094188376753504
20
56.53690660672273
10
22.169338677354705
20
56.57971023533491
10
22.24448897795591
20
56.62250562465408
10
22.319639278557112
20
56.66529258726671
10
22.394789579158314
20
56.708070938607655
10
22.469939879759515
20
56.75084049691814
10
22.54509018036072
20
56.79360108320446
10
22.62024048096192
20
56.83635252119729
10
22.695390781563123
20
56.87909463731173
10
22.770541082164325
20
56.9218272606079
10
22.84569138276553
20
56.96455022275223
10
22.92084168336673
20
57.007263357979376
10
22.995991983967933
20
57.0499665030547
10
23.071142284569138
20
57.092659497237385
10
23.14629258517034
20
57.13534218224415
10
23.22144288577154
20
57.17801440221352
10
23.296593186372743
20
57.22067600367064
10
23.371743486973948
20
57.26332683549273
10
23.44689378757515
20
57.30596674887498
10
23.52204408817635
20
57.34859559729711
10
23.597194388777552
20
57.39121323649036
10
23.672344689378757
20
57.433819524405
10
23.74749498997996
20
57.47641432117846
10
23.82264529058116
20
57.518997489103825
10
23.897795591182362
20
57.56156889259893
10
23.972945891783567
20
57.60412839817587
10
24.04809619238477
20
57.64667587441103
10
24.12324649298597
20
57.68921119191558
10
24.19839679358717
20
57.73173422330642
10
24.273547094188377
20
57.77424484317755
10
24.34869739478958
20
57.816742928071946
10
24.42384769539078
20
57.85922835645384
10
24.498997995991985
20
57.90170100868143
10
24.574148296593187
20
57.94416076697999
10
24.649298597194388
20
57.986607515415464
10
24.72444889779559
20
58.0290411398684
10
24.799599198396795
20
58.0714615280083
10
24.874749498997996
20
58.113868569268405
10
24.949899799599198
20
58.15626215482082
10
25.025050100200396
20
58.19864217755204
10
25.1002004008016
20
58.24100853203884
10
25.175350701402802
20
58.28336111452456
10
25.250501002004004
20
58.325699822895736
10
25.325651302605205
20
58.36802455665906
10
25.40080160320641
20
58.410335216918746
10
25.475951903807612
20
58.4526317063542
10
25.551102204408814
20
58.49491392919802
10
25.626252505010015
20
58.537181791214394
10
25.70140280561122
20
58.579435199677725
10
25.776553106212422
20
58.62167406335166
10
25.851703406813623
20
58.663898292468424
10
25.926853707414825
20
58.7061077987084
10
26.00200400801603
20
58.74830249518012
10
26.07715430861723
20
58.79048229640044
10
26.152304609218433
20
58.83264711827513
10
26.227454909819635
20
58.87479687807967
10
26.30260521042084
20
58.91693149444034
10
26.37775551102204
20
58.959050887315634
10
26.452905811623243
20
59.001154977977926
10
26.528056112224448
20
59.043243688995396
10
26.60320641282565
20
59.08531694421424
10
26.67835671342685
20
59.12737466874116
10
26.753507014028052
20
59.16941678892606
10
26.828657314629258
20
59.21144323234505
10
26.90380761523046
20
59.25345392778368
10
26.97895791583166
20
59.295448805220424
10
27.054108216432862
20
59.33742779581039
10
27.129258517034067
20
59.3793908318693
10
27.20440881763527
20
59.42133784685767
10
27.27955911823647
20
59.46326877536525
10
27.354709418837672
20
59.505183553095684
10
27.429859719438877
20
59.54708211685137
10
27.50501002004008
20
59.588964404518585
10
27.58016032064128
20
59.63083035505278
10
27.655310621242485
20
59.672679908464126
10
27.730460921843687
20
59.71451300580323
10
27.805611222444888
20
59.75632958914709
10
27.88076152304609
20
59.79812960158527
10
27.955911823647295
20
59.839912987206205
10
28.031062124248496
20
59.881679691083754
10
28.106212424849698
20
59.92342965926396
10
28.1813627254509
20
59.96516283875196
10
28.256513026052104
20
60.006879177499094
10
28.331663326653306
20
60.048578624390224
10
28.406813627254508
20
60.090261129231195
10
28.48196392785571
20
60.13192664273651
10
28.557114228456914
20
60.173575116517156
10
28.632264529058116
20
60.2152065030686
10
28.707414829659317
20
60.256820755759
10
28.782565130260522
20
60.29841782881752
10
28.85771543086172
20
60.33999767732284
10
28.932865731462922
20
60.381560257191865
10
29.008016032064123
20
60.423105525168516
10
29.083166332665325
20
60.46463343881275
10
29.15831663326653
20
60.50614395648967
10
29.23346693386773
20
60.54763703735888
10
29.308617234468933
20
60.589112641363876
10
29.383767535070135
20
60.63057072922166
10
29.45891783567134
20
60.672011262412504
10
29.53406813627254
20
60.713434203169804
10
29.609218436873743
20
60.75483951447012
10
29.684368737474948
20
60.79622716002334
10
29.75951903807615
20
60.83759710426299
10
29.83466933867735
20
60.878949312336644
10
29.909819639278552
20
60.920283750096516
10
29.984969939879758
20
60.96160038409016
10
30.06012024048096
20
61.002899181551285
10
30.13527054108216
20
61.04418011039071
10
30.210420841683362
20
61.08544313918747
10
30.285571142284567
20
61.12668823717997
10
30.36072144288577
20
61.167915374257355
10
30.43587174348697
20
61.20912452095093
10
30.511022044088172
20
61.25031564842572
10
30.586172344689377
20
61.291488728472146
10
30.66132264529058
20
61.332643733497825
10
30.73647294589178
20
61.37378063651946
10
30.811623246492985
20
61.41489941115486
10
30.886773547094187
20
61.45600003161505
10
30.961923847695388
20
61.49708247269649
10
31.03707414829659
20
61.53814670977346
10
31.112224448897795
20
61.579192718790424
10
31.187374749498996
20
61.62022047625463
10
31.262525050100198
20
61.66122995922871
10
31.3376753507014
20
61.70222114532346
10
31.412825651302605
20
61.74319401269063
10
31.487975951903806
20
61.78414854001589
10
31.563126252505008
20
61.825084706511866
10
31.63827655310621
20
61.86600249191124
10
31.713426853707414
20
61.90690187645997
10
31.788577154308616
20
61.94778284091061
10
31.863727454909817
20
61.988645366515705
10
31.938877755511022
20
62.029489435021254
10
32.014028056112224
20
62.07031502866031
10
32.089178356713425
20
62.11112213014661
10
32.16432865731463
20
62.15191072266833
10
32.23947895791583
20
62.192680789881926
10
32.31462925851703
20
62.233432315906
10
32.38977955911824
20
62.274165285315334
10
32.46492985971944
20
62.31487968313491
10
32.54008016032064
20
62.355575494834106
10
32.61523046092184
20
62.396252706320865
10
32.690380761523045
20
62.43691130393604
10
32.765531062124246
20
62.477551274447755
10
32.84068136272545
20
62.51817260504583
10
32.91583166332665
20
62.558775283336324
10
32.99098196392785
20
62.59935929733614
10
33.06613226452905
20
62.63992463546767
10
33.141282565130254
20
62.68047128655353
10
33.216432865731456
20
62.720999239811356
10
33.291583166332664
20
62.761508484848704
10
33.366733466933866
20
62.801999011657955
10
33.44188376753507
20
62.84247081061134
10
33.51703406813627
20
62.882923872456
10
33.59218436873747
20
62.923358188309116
10
33.66733466933867
20
62.96377374965312
10
33.74248496993987
20
63.00417054833094
10
33.817635270541075
20
63.04454857654132
10
33.892785571142284
20
63.084907826834204
10
33.967935871743485
20
63.12524829210618
10
34.04308617234469
20
63.16556996559597
10
34.11823647294589
20
63.205872840880005
10
34.19338677354709
20
63.24615691186801
10
34.26853707414829
20
63.286422172798716
10
34.34368737474949
20
63.32666861823553
10
34.4188376753507
20
63.36689624306237
10
34.4939879759519
20
63.40710504247948
10
34.569138276553105
20
63.4472950119993
10
34.644288577154306
20
63.48746614744245
10
34.71943887775551
20
63.52761844493368
10
34.79458917835671
20
63.56775190089794
10
34.86973947895791
20
63.60786651205647
10
34.94488977955911
20
63.64796227542294
10
35.02004008016032
20
63.68803918829965
10
35.09519038076152
20
63.728097248273755
10
35.170340681362724
20
63.768136453213586
10
35.245490981963925
20
63.80815680126496
10
35.32064128256513
20
63.848158290847564
10
35.39579158316633
20
63.88814092065141
10
35.47094188376753
20
63.92810468963328
10
35.54609218436874
20
63.96804959701326
10
35.62124248496994
20
64.0079756422713
10
35.69639278557114
20
64.04788282514382
10
35.77154308617234
20
64.08777114562034
10
35.846693386773545
20
64.12764060394021
10
35.921843687374746
20
64.16749120058931
10
35.99699398797595
20
64.20732293629685
10
36.07214428857715
20
64.24713581203214
10
36.14729458917836
20
64.28692982900151
10
36.22244488977956
20
64.32670498864512
10
36.29759519038076
20
64.36646129263397
10
36.37274549098196
20
64.40619874286682
10
36.447895791583164
20
64.44591734146724
10
36.523046092184366
20
64.4856170907806
10
36.59819639278557
20
64.5252979933712
10
36.67334669338677
20
64.56496005201937
10
36.74849699398797
20
64.60460326971864
10
36.82364729458917
20
64.64422764967289
10
36.89879759519037
20
64.6838331952936
10
36.973947895791575
20
64.72341991019715
10
37.049098196392784
20
64.76298779820203
10
37.124248496993985
20
64.80253686332624
10
37.19939879759519
20
64.84206710978458
10
37.27454909819639
20
64.88157854198612
10
37.34969939879759
20
64.92107116453155
10
37.42484969939879
20
64.9605449822107
10
37.5
20
65.0
0
ENDSEC
0
EOF
